<?xml version="1.0" standalone="no"?>
<!DOCTYPE svg PUBLIC "-//W3C//DTD SVG 1.1//EN" "http://www.w3.org/Graphics/SVG/1.1/DTD/svg11.dtd" >
<svg>
<metadata>
Created by FontForge 20090914 at Sat Oct  8 10:22:19 2016
 By www-data
Inner Mongolia University Mongolian Information Study Group
</metadata>
<defs>
<font id="OyunQaganTig" horiz-adv-x="834" >
  <font-face 
    font-family="Oyun Qagan Tig"
    font-weight="400"
    font-stretch="normal"
    units-per-em="2048"
    panose-1="3 2 4 0 0 0 0 0 0 0"
    ascent="1638"
    descent="-410"
    x-height="916"
    cap-height="1356"
    bbox="-800 -442 1976 1770"
    underline-thickness="20"
    underline-position="1510"
    unicode-range="U+0020-U+E78F"
  />
<missing-glyph horiz-adv-x="1329" 
d="M606 86c-18 0 -34 2.00098 -48 6.00098s-26.333 9.33301 -37 16c-13.333 15.333 -20 40 -20 74c0 28 12 54.667 36 80c20 16 43 24 69 24h8c26 0 50 -12.667 72 -38c18 -17.333 27 -39.333 27 -66c0 -40.667 -11.667 -68.334 -35 -83.001
c-21.333 -8.66699 -45.333 -13 -72 -13zM606 450.001l-42 -0.00390625c-2.66699 24 -4.5 45.833 -5.5 65.5s-1.5 39.5 -1.5 59.5c0 100 26.333 186.667 79 260l99.5 98l99.5 92c22.667 19.333 34 52.333 34 99c-23.333 131.333 -99 200.333 -227 207
c-105.333 -9.33301 -168.666 -48.666 -189.999 -117.999c0 -8 11.333 -15.333 34 -22c46 -4 72 -28 78 -72c0 -54 -26 -83 -78 -87c-66 0 -99 39 -99 117c13.333 128 100.666 201.333 261.999 220c186.667 -16 288.667 -118 306 -306c0 -84 -24 -159 -72 -225
c-11.333 -15.333 -29.166 -33.666 -53.499 -54.999l-88.5 -75l-25.5 -19.5c-7.66699 -5.66699 -13.834 -10.5 -18.501 -14.5c-61.333 -44 -92 -108 -92 -192c0 -5.33301 0.166992 -10.666 0.5 -15.999s0.5 -10.666 0.5 -15.999zM294 -7.00293h745v1479h-745v-1479z
M1107 -76.0029h-885l1 1625h884v-1625z" />
    <glyph glyph-name=".notdef" horiz-adv-x="1329" 
d="M606 86c-18 0 -34 2.00098 -48 6.00098s-26.333 9.33301 -37 16c-13.333 15.333 -20 40 -20 74c0 28 12 54.667 36 80c20 16 43 24 69 24h8c26 0 50 -12.667 72 -38c18 -17.333 27 -39.333 27 -66c0 -40.667 -11.667 -68.334 -35 -83.001
c-21.333 -8.66699 -45.333 -13 -72 -13zM606 450.001l-42 -0.00390625c-2.66699 24 -4.5 45.833 -5.5 65.5s-1.5 39.5 -1.5 59.5c0 100 26.333 186.667 79 260l99.5 98l99.5 92c22.667 19.333 34 52.333 34 99c-23.333 131.333 -99 200.333 -227 207
c-105.333 -9.33301 -168.666 -48.666 -189.999 -117.999c0 -8 11.333 -15.333 34 -22c46 -4 72 -28 78 -72c0 -54 -26 -83 -78 -87c-66 0 -99 39 -99 117c13.333 128 100.666 201.333 261.999 220c186.667 -16 288.667 -118 306 -306c0 -84 -24 -159 -72 -225
c-11.333 -15.333 -29.166 -33.666 -53.499 -54.999l-88.5 -75l-25.5 -19.5c-7.66699 -5.66699 -13.834 -10.5 -18.501 -14.5c-61.333 -44 -92 -108 -92 -192c0 -5.33301 0.166992 -10.666 0.5 -15.999s0.5 -10.666 0.5 -15.999zM294 -7.00293h745v1479h-745v-1479z
M1107 -76.0029h-885l1 1625h884v-1625z" />
    <glyph glyph-name="space" unicode=" " horiz-adv-x="413" 
 />
    <glyph glyph-name="exclam" unicode="!" horiz-adv-x="1928" 
d="M238 745.5c38.667 -47 129.831 -62.168 273.498 -45.501l491.5 54.5c184 19.667 280.167 33.334 288.5 41.001s8.5 15.5 0.5 23.5s-105 22.167 -291 42.5s-350.667 39.333 -494 57s-233.666 5 -270.999 -38s-36.666 -88 2.00098 -135zM1555.5 728.499
c23 -24.333 50.166 -36.501 81.499 -36.501c32.667 0 60.334 12 83.001 36s34 53.667 34 89c0 34.667 -10.833 63.667 -32.5 87s-48.167 35 -79.5 35c-32 0 -60.167 -12.333 -84.5 -37s-36.5 -53.667 -36.5 -87s11.5 -62.166 34.5 -86.499z" />
    <glyph glyph-name="quotedbl" unicode="&#x22;" horiz-adv-x="836" 
d="M576 803l-76.001 412.999c-0.666992 8.66699 -1.16699 17 -1.5 25s-0.5 16.333 -0.5 25c0 42 9.33301 72.667 28 92s43.334 29 74.001 29c28.667 0 52.5 -9.66699 71.5 -29s28.5 -45.333 28.5 -78c0 -28.667 -1.5 -58.167 -4.5 -88.5s-7.83301 -62.166 -14.5 -95.499
l-57 -293h-48zM209.999 802.999l-55 295.999c-7.33301 40.667 -12.833 74.834 -16.5 102.501s-5.5 48.834 -5.5 63.501c0 42.667 8.83301 73.667 26.5 93s41.5 29 71.5 29s54.5 -9.83301 73.5 -29.5s28.5 -45.834 28.5 -78.501c0 -13.333 -2.16699 -34.833 -6.5 -64.5
s-10.833 -68.5 -19.5 -116.5l-54 -295h-43z" />
    <glyph glyph-name="numbersign" unicode="#" horiz-adv-x="1024" 
d="M115 -28l93 455h-171v82h187l69 343h-256v80h275l91 455h83l-91 -455h337l97 455h83l-95 -455h170v-80h-185l-70 -343h255v-82h-272l-93 -455h-81l91 455h-339l-95 -455h-83zM308 509h339l72 343h-341z" />
    <glyph glyph-name="dollar" unicode="$" horiz-adv-x="1024" 
d="M108 334l44.001 -0.00292969c7.33301 -92 35.833 -162.167 85.5 -210.5s124.5 -77.166 224.5 -86.499v584c-150 92.667 -250 174.667 -300 246c-35.333 51.333 -53 113 -53 185c0 40.667 7.66699 79.334 23 116.001s38 69.5 68 98.5s67 53.167 111 72.5
s94.333 32.333 151 39v92h64v-92c28 -1.33301 53.333 -3.66602 76 -6.99902s43.334 -7.33301 62.001 -12c18.667 -5.33301 82.667 -28.333 192 -69v-299h-39c-4.66699 52.667 -13.667 98.167 -27 136.5s-31.833 70.333 -55.5 96s-52.667 45.5 -87 59.5
s-74.833 23.333 -121.5 28v-508c168 -117.333 275.667 -204 323 -260c23.333 -28 41.166 -59 53.499 -93s18.5 -72 18.5 -114c0 -45.333 -8.83301 -88.666 -26.5 -129.999s-43.5 -78.5 -77.5 -111.5s-75.5 -60.333 -124.5 -82s-104.5 -35.167 -166.5 -40.5v-128h-64v128
c-32 1.33301 -62.333 3.83301 -91 7.5s-56.667 8.5 -84 14.5c-27.333 5.33301 -55.833 12.666 -85.5 21.999s-60.834 21 -93.501 35v283zM462.001 844.997v465c-66.667 -8 -116.167 -29.167 -148.5 -63.5s-48.5 -77.5 -48.5 -129.5c0 -24.667 3.33301 -48.167 10 -70.5
s17.667 -44.333 33 -66s35.5 -43.667 60.5 -66s56.167 -45.5 93.5 -69.5zM526.001 36.9971c77.333 14 136 43.5 176 88.5s60 98.5 60 160.5c0 44 -13.333 85.667 -40 125c-26.667 40 -92 95.667 -196 167v-541z" />
    <glyph glyph-name="percent" unicode="%" horiz-adv-x="1992" 
d="M304 1351l1443 -988v-89l-1443 988v89zM1018 1305c0 42 9.66699 80.666 29 115.999s45.5 65.833 78.5 91.5s71.667 45.667 116 60s91.5 21.5 141.5 21.5c59.333 0 111.666 -7.66699 156.999 -23s83.333 -36.166 114 -62.499s53.834 -56.833 69.501 -91.5
s23.5 -71 23.5 -109c0 -40 -9 -77.667 -27 -113s-43.167 -66 -75.5 -92s-70.833 -46.5 -115.5 -61.5s-93.334 -22.5 -146.001 -22.5c-59.333 0 -111.666 8.33301 -156.999 25s-83.5 38.5 -114.5 65.5s-54.333 57.667 -70 92s-23.5 68.833 -23.5 103.5zM1071 1306
c0 -18.667 5.66797 -35.834 17.001 -51.501s29.666 -29.167 54.999 -40.5s58.333 -20.166 99 -26.499s90 -9.5 148 -9.5c104 0 180.167 11.333 228.5 34s72.5 54 72.5 94c0 36.667 -25 67.5 -75 92.5s-127 37.5 -231 37.5c-105.333 0 -184 -11.333 -236 -34
s-78 -54.667 -78 -96zM304.001 319.999c0 42 9.66699 80.666 29 115.999s45.5 65.833 78.5 91.5s71.667 45.667 116 60s91.5 21.5 141.5 21.5c59.333 0 111.666 -7.66699 156.999 -23s83.333 -36.166 114 -62.499s53.834 -56.833 69.501 -91.5s23.5 -71 23.5 -109
c0 -40 -9 -77.667 -27 -113s-43.167 -66 -75.5 -92s-70.833 -46.5 -115.5 -61.5s-93.334 -22.5 -146.001 -22.5c-59.333 0 -111.666 8.33301 -156.999 25s-83.5 38.5 -114.5 65.5s-54.333 57.667 -70 92s-23.5 68.833 -23.5 103.5zM357.001 320.998
c0 -18.667 5.66797 -35.834 17.001 -51.501s29.666 -29.167 54.999 -40.5s58.333 -20.166 99 -26.499s90 -9.5 148 -9.5c104 0 180.167 11.333 228.5 34s72.5 54 72.5 94c0 36.667 -25 67.5 -75 92.5s-127 37.5 -231 37.5c-105.333 0 -184 -11.333 -236 -34
s-78 -54.667 -78 -96z" />
    <glyph glyph-name="ampersand" unicode="&#x26;" horiz-adv-x="1593" 
d="M1045 873l419.999 0.000976562v-37c-58 -5.33301 -101 -18.333 -129 -39c-27.333 -21.333 -70.333 -84.666 -129 -189.999c-59.333 -106 -125.333 -205 -198 -297c30 -34.667 58 -64 84 -88s51 -43.333 75 -58s47.5 -25.167 70.5 -31.5s46.5 -9.5 70.5 -9.5
c46 0 85 12.5 117 37.5s54.667 61.833 68 110.5l37 -27c-24.667 -94 -64.334 -163.333 -119.001 -208s-118.334 -67 -191.001 -67c-27.333 0 -54.666 3.5 -81.999 10.5s-55.5 18.333 -84.5 34s-58.667 35.834 -89 60.501s-62.166 54.667 -95.499 90
c-83.333 -73.333 -158 -124.333 -224 -153c-66 -28 -136.667 -42 -212 -42c-55.333 0 -105 8 -149 24s-81.667 37.5 -113 64.5s-55.333 58.667 -72 95s-25 74.5 -25 114.5c0 80.667 29 161 87 241c57.333 80.667 166.333 164 327 250c-16 35.333 -29.167 66.833 -39.5 94.5
s-18.666 53 -24.999 76s-10.666 44.667 -12.999 65s-3.5 41.166 -3.5 62.499c0 50 9 95.333 27 136s42.833 75.5 74.5 104.5s68.667 51.333 111 67s87.833 23.5 136.5 23.5c38.667 0 74.5 -6.33301 107.5 -19s61.5 -30 85.5 -52s42.667 -47.833 56 -77.5s20 -61.5 20 -95.5
c0 -71.333 -24.333 -133.333 -73 -186c-24 -26.667 -57.167 -54.5 -99.5 -83.5s-94.5 -59.5 -156.5 -91.5c42.667 -76 86 -148.333 130 -217s89 -134.334 135 -197.001c117.333 140.667 176 258.667 176 354c0 12.667 -2 25.5 -6 38.5s-9.83301 24.667 -17.5 35
s-17.334 19.166 -29.001 26.499s-25.167 12 -40.5 14v37zM662.999 847.001c164.667 78.667 247.001 179.003 247.001 301.003c0 23.333 -4 45.166 -12 65.499s-18.833 38 -32.5 53s-30 26.667 -49 35s-39.5 12.5 -61.5 12.5c-29.333 0 -55 -5.83301 -77 -17.5
s-40.333 -26.334 -55 -44.001s-25.667 -37 -33 -58s-11 -40.833 -11 -59.5c0 -17.333 1.16699 -34.5 3.5 -51.5s6.66602 -36.167 12.999 -57.5s14.833 -46.333 25.5 -75s24.667 -63.334 42 -104.001zM818 222.004l-111.498 156.002c-30.333 43.333 -54.166 79 -71.499 107
s-35.166 59 -53.499 93l-58.5 113c-160.667 -92.667 -241 -203.334 -241 -332.001c0 -35.333 6 -69.166 18 -101.499s29 -60.833 51 -85.5s48.667 -44.5 80 -59.5s66.666 -22.5 105.999 -22.5c21.333 0 41.666 1.66699 60.999 5s39.666 9.66602 60.999 18.999
s44.666 22.666 69.999 39.999s55 40 89 68z" />
    <glyph glyph-name="quotesingle" unicode="'" horiz-adv-x="369" 
d="M158 803l-53.999 296.001c-7.33301 41.333 -13 75.666 -17 102.999s-6 48.333 -6 63c0 42.667 8.66699 73.667 26 93s41 29 71 29s54.833 -9.83301 74.5 -29.5s29.5 -45.5 29.5 -77.5c-0.666992 -12.667 -2.83398 -34 -6.50098 -64s-10.167 -69.333 -19.5 -118l-54 -295
h-44z" />
    <glyph glyph-name="parenleft" unicode="(" horiz-adv-x="682" 
d="M636 -91l-0.000976562 -36.9961c-101.333 51.333 -185.333 110.666 -252 177.999c-96 96.667 -170 210.667 -222 342c-52 130.667 -78 267 -78 409c0 206.667 51 395 153 565c102 170.667 235 292.667 399 366v-42c-81.333 -44.667 -148.666 -106.667 -201.999 -186
c-52.667 -78.667 -92 -178.334 -118 -299.001c-26 -121.333 -39 -247.333 -39 -378c0 -142.667 11 -272.334 33 -389.001c17.333 -92.667 38.333 -166.334 63 -221.001c24.667 -56 57.667 -109.667 99 -161s96 -100.333 164 -147z" />
    <glyph glyph-name="parenright" unicode=")" horiz-adv-x="682" 
d="M46 1680l-0.000976562 41.999c102 -50.667 186.333 -109.667 253 -177c95.333 -97.333 169 -211.666 221 -342.999s78 -267.666 78 -408.999c0 -206.667 -51 -395 -153 -565c-102.667 -171.333 -235.667 -293.333 -399 -366v37c82 46 149.333 108.333 202 187
c54 79.333 93.333 178.666 118 297.999c12.667 60.667 22.334 122.5 29.001 185.5s10 127.5 10 193.5c0 142 -11 271.667 -33 389c-17.333 92.667 -38.333 166.334 -63 221.001c-25.333 55.333 -58.5 108.666 -99.5 159.999s-95.5 100.333 -163.5 147z" />
    <glyph glyph-name="asterisk" unicode="*" horiz-adv-x="1024" 
d="M494 1044c-3.33301 47.333 -12.6719 93 -28.0049 137c-22.667 64 -34 109 -34 135c0 34.667 8.16699 61 24.5 79s36.5 27 60.5 27c20.667 0 38.667 -8.83301 54 -26.5s23 -43.5 23 -77.5c0 -13.333 -2.66699 -31.166 -8 -53.499s-11.5 -46.333 -18.5 -72
s-13.667 -51.5 -20 -77.5s-10.5 -49.667 -12.5 -71c18.667 11.333 36.167 24.166 52.5 38.499s31.833 29.833 46.5 46.5c22.667 26.667 42 47.834 58 63.501s30.167 27.5 42.5 35.5s23.666 13 33.999 15s21.5 3 33.5 3c22 0 40.5 -7.5 55.5 -22.5s22.5 -32.833 22.5 -53.5
c0 -12 -1.83301 -23.333 -5.5 -34s-12.167 -21 -25.5 -31s-33.166 -19.833 -59.499 -29.5s-62.166 -19.5 -107.499 -29.5c-51.333 -11.333 -94 -24.333 -128 -39c36 -18.667 78.333 -32.334 127 -41.001c41.333 -7.33301 74.833 -15.833 100.5 -25.5
s45.5 -19.834 59.5 -30.501s23.5 -22 28.5 -34s7.5 -24.333 7.5 -37c0 -20 -7.5 -37.333 -22.5 -52s-32.5 -22 -52.5 -22c-10 0 -20.333 1.33301 -31 4s-22.334 8 -35.001 16s-27.167 19.5 -43.5 34.5s-34.833 35.167 -55.5 60.5c-13.333 16.667 -28.5 32.5 -45.5 47.5
s-35.833 29.833 -56.5 44.5c0.666992 -36.667 8.33398 -78 23.001 -124c24 -79.333 36 -133 36 -161c0 -13.333 -2.16699 -25.833 -6.5 -37.5s-10.166 -21.667 -17.499 -30s-15.5 -15 -24.5 -20s-17.833 -7.5 -26.5 -7.5c-10 0 -20.167 1.66699 -30.5 5
s-19.833 8.66602 -28.5 15.999s-15.667 17.166 -21 29.499s-8 27.5 -8 45.5c0 14 2.5 31.5 7.5 52.5s10.5 41.833 16.5 62.5s11.833 39.667 17.5 57s9.16699 29.333 10.5 36c4.66699 18.667 8.33398 44 11.001 76c-19.333 -13.333 -37.666 -27.166 -54.999 -41.499
s-33.333 -29.5 -48 -45.5c-21.333 -24 -39.833 -43.833 -55.5 -59.5s-29.667 -28 -42 -37s-23.666 -15.167 -33.999 -18.5s-21.166 -5 -32.499 -5s-22 2.16699 -32 6.5s-18.667 10 -26 17s-13.166 14.833 -17.499 23.5s-6.5 17.667 -6.5 27c0 16.667 6.66699 34.167 20 52.5
s34 33.5 62 45.5c9.33301 4 24.166 8.5 44.499 13.5l78.5 18.5c40.667 8 81 20.667 121 38c-36 18 -79 32 -129 42c-82 16.667 -132.667 32.334 -152 47.001c-30 22 -45 48.667 -45 80c0 8.66699 2 17.334 6 26.001s9.5 16.5 16.5 23.5s15 12.5 24 16.5s18.5 6 28.5 6
c11.333 0 22.666 -1.5 33.999 -4.5s23.333 -8.5 36 -16.5s26.5 -18.833 41.5 -32.5s31.833 -31.167 50.5 -52.5c38 -43.333 75.333 -76 112 -98z" />
    <glyph glyph-name="plus" unicode="+" horiz-adv-x="1696" 
d="M795 269v499h-498v82h498v497h80v-497h500v-82h-500v-499h-80z" />
    <glyph glyph-name="comma" unicode="," horiz-adv-x="990" 
d="M323 550l-0.00585938 44.001c34 11.333 64.333 26.166 91 44.499s49.334 38.833 68.001 61.5s32.834 47 42.501 73s14.5 52 14.5 78c0 10 -2.33301 19.333 -7 28s-10 13 -16 13c-2 0 -6 -1.5 -12 -4.5l-20.5 -10c-7.66699 -3.66699 -16.167 -7 -25.5 -10
s-18.666 -4.5 -27.999 -4.5c-32.667 0 -58.667 9.66699 -78 29s-29 46 -29 80c0 16.667 3.33301 32.167 10 46.5s15.834 26.833 27.501 37.5s25.334 19.167 41.001 25.5s32.5 9.5 50.5 9.5c21.333 0 42.166 -5 62.499 -15s38.333 -24.167 54 -42.5
s28.334 -40.5 38.001 -66.5s14.5 -54.667 14.5 -86c0 -34 -5.83301 -67.333 -17.5 -100s-29.667 -63.167 -54 -91.5s-55.166 -54.5 -92.499 -78.5s-82 -44.333 -134 -61z" />
    <glyph glyph-name="hyphen" unicode="-" horiz-adv-x="1094" 
d="M622 1253v-887h-141v887h141z" />
    <glyph glyph-name="period" unicode="." horiz-adv-x="618" 
d="M316 927c15.333 0 29.666 -2.83301 42.999 -8.5s25 -13.5 35 -23.5s18 -21.833 24 -35.5s9 -28.167 9 -43.5s-3 -29.666 -9 -42.999s-14 -25 -24 -35s-21.667 -18 -35 -24s-27.666 -9 -42.999 -9s-29.666 3 -42.999 9s-25 14 -35 24s-18 21.667 -24 35
s-9 27.666 -9 42.999c0 16 3 30.667 9 44s14 25 24 35s21.667 17.833 35 23.5s27.666 8.5 42.999 8.5z" />
    <glyph glyph-name="slash" unicode="/" horiz-adv-x="569" 
d="M574 1422l-491 -1450h-80l491 1450h80z" />
    <glyph glyph-name="zero" unicode="0" horiz-adv-x="1024" 
d="M74 670c0 156 23.3369 289 70.0039 399c17.333 41.333 38.333 81 63 119s52.5 71.5 83.5 100.5s65.333 52.167 103 69.5s78.5 26 122.5 26c103.333 0 196.666 -53 279.999 -159c103.333 -131.333 155 -309.333 155 -534c0 -53.333 -2.33301 -104.333 -7 -153
s-12.5 -95.334 -23.5 -140.001s-25.5 -87.5 -43.5 -128.5s-40.667 -80.5 -68 -118.5c-17.333 -24 -37.833 -46.667 -61.5 -68s-48.834 -40 -75.501 -56s-54.334 -28.5 -83.001 -37.5s-56.334 -13.5 -83.001 -13.5c-57.333 0 -111.5 16.667 -162.5 50s-96.167 80 -135.5 140
c-41.333 62.667 -74 136.834 -98 222.501s-36 179.5 -36 281.5zM270.004 645c0 -80 4.33398 -155.333 13.001 -226s22 -133.334 40 -188.001c19.333 -59.333 44.333 -106.166 75 -140.499s67.667 -51.5 111 -51.5c18 0 36.667 3.83301 56 11.5s38 20 56 37
s34.667 38.833 50 65.5s28 59 38 97c15.333 58 26.833 127 34.5 207s11.5 172.667 11.5 278c0 154.667 -16 283.667 -48 387c-20.667 66 -46 115.167 -76 147.5s-68.667 48.5 -116 48.5c-54 0 -100.333 -28.167 -139 -84.5s-65.334 -135.5 -80.001 -237.5
c-8.66699 -60 -15.167 -119 -19.5 -177s-6.5 -116 -6.5 -174z" />
    <glyph glyph-name="one" unicode="1" horiz-adv-x="1024" 
d="M240 1223l330 160.997h33v-1145c0 -39.333 0.666992 -70.166 2 -92.499s3.66602 -39.5 6.99902 -51.5s8.33301 -20.667 15 -26s15 -10.333 25 -15c20.667 -10.667 61.334 -16.334 122.001 -17.001v-37h-510v37c32.667 0.666992 58.834 2.33398 78.501 5.00098
s35.167 6.33398 46.5 11.001s19.666 10.334 24.999 17.001s9.66602 14 12.999 22c7.33301 18 11 67 11 147v732c0 100 -3.33301 163.333 -10 190c-5.33301 21.333 -14 37 -26 47s-26.667 15 -44 15c-25.333 0 -59.666 -10.333 -102.999 -31z" />
    <glyph glyph-name="two" unicode="2" horiz-adv-x="1024" 
d="M939 261l-94.999 -261h-800v37c118 108 218.333 205.5 301 292.5s148 164.833 196 233.5c96 136 144 260.333 144 373c0 42.667 -7.16699 82.167 -21.5 118.5s-33.666 67.5 -57.999 93.5s-52.833 46.333 -85.5 61s-67 22 -103 22
c-33.333 0 -65.166 -4.83301 -95.499 -14.5s-58.333 -24.167 -84 -43.5s-48.5 -43.333 -68.5 -72s-36.333 -62 -49 -100h-37c8.66699 62 24 116.667 46 164s49.667 87.333 83 120s71.666 57.334 114.999 74.001s91 25 143 25c54.667 0 105.667 -9.66699 153 -29
s88.166 -45.333 122.499 -78s61.333 -70.5 81 -113.5s29.5 -88.167 29.5 -135.5c0 -68.667 -16 -137.334 -48 -206.001c-48.667 -107.333 -128.667 -221.666 -240 -342.999l-202.5 -218.5c-51.667 -54.333 -87.834 -90.833 -108.501 -109.5h354c44.667 0 82.334 1 113.001 3
s56.667 6.83301 78 14.5s39.666 18.667 54.999 33s30.333 34.166 45 59.499h37z" />
    <glyph glyph-name="three" unicode="3" horiz-adv-x="1024" 
d="M104 1098c38.667 91.333 87.499 161.831 146.499 211.498s132.5 74.5 220.5 74.5c46.667 0 89.334 -7.5 128.001 -22.5s72 -35.167 100 -60.5s49.667 -54.666 65 -87.999s23 -68 23 -104c0 -99.333 -62 -201.333 -186 -306c84 -32.667 147.167 -79.167 189.5 -139.5
s63.5 -131.833 63.5 -214.5c0 -68.667 -12.833 -132 -38.5 -190s-61.834 -108 -108.501 -150s-103 -74.667 -169 -98s-139 -35 -219 -35c-46.667 0 -85.167 3.16699 -115.5 9.5s-54.5 14.666 -72.5 24.999s-30.5 21.833 -37.5 34.5s-10.5 25.334 -10.5 38.001
c0 19.333 7.83301 36.333 23.5 51s34.5 22 56.5 22h22c5.33301 0 11.833 -1.33301 19.5 -4s18 -7 31 -13s31.5 -15.333 55.5 -28s43.5 -22.167 58.5 -28.5s28 -11 39 -14s21.167 -4.66699 30.5 -5s20.666 -0.5 33.999 -0.5c34 0 66.333 7.16699 97 21.5
s57.5 33.833 80.5 58.5s41.333 53 55 85s20.5 65.667 20.5 101c0 22 -2.5 44.667 -7.5 68s-11.667 45.833 -20 67.5s-18 41.5 -29 59.5s-22.833 32.667 -35.5 44c-14 12.667 -31.333 25.334 -52 38.001s-43 24 -67 34s-49 18 -75 24s-51.667 9 -77 9h-32v30
c52 6.66699 104.667 25.667 158 57c54 32 92.833 69.833 116.5 113.5s35.5 91.834 35.5 144.501c0 34 -5.83301 65.167 -17.5 93.5s-27.667 52.666 -48 72.999s-44.166 36 -71.499 47s-56.666 16.5 -87.999 16.5c-104 0 -190.333 -55.333 -259 -166z" />
    <glyph glyph-name="four" unicode="4" horiz-adv-x="1024" 
d="M953 500v-142h-182v-358h-165v358h-574v128l629 898h110v-884h182zM606 500v673l-476 -673h476z" />
    <glyph glyph-name="five" unicode="5" horiz-adv-x="1024" 
d="M889 1356l-77.9971 -170.001h-408l-89 -182c176.667 -26 316.667 -91.667 420 -197c88.667 -90.667 133 -197.334 133 -320.001c0 -70 -14.667 -136 -44 -198c-28.667 -60.667 -65 -112.334 -109 -155.001s-93 -77 -147 -103c-76 -36.667 -154.667 -55 -236 -55
c-41.333 0 -76.833 3.83301 -106.5 11.5s-53.834 17.834 -72.501 30.501s-32.334 27 -41.001 43s-13 32 -13 48c0 18.667 7.66699 35.167 23 49.5s34.666 21.5 57.999 21.5c8.66699 0 16.5 -0.5 23.5 -1.5s14.333 -3.16699 22 -6.5s16.667 -8.16602 27 -14.499
s23.5 -15.166 39.5 -26.499c49.333 -34.667 100 -52 152 -52c38.667 0 75.667 7.83301 111 23.5s66.5 37.334 93.5 65.001s48.667 60 65 97s24.5 76.5 24.5 118.5c0 82 -26.333 158.333 -79 229c-53.333 71.333 -126 126.333 -218 165c-72 29.333 -171 46.666 -297 51.999
l260 527h486z" />
    <glyph glyph-name="six" unicode="6" horiz-adv-x="1024" 
d="M918 1384l0.00292969 -37.001c-42.667 -5.33301 -80.834 -11.666 -114.501 -18.999s-65.334 -17.5 -95.001 -30.5s-58.167 -29.5 -85.5 -49.5s-56 -44.667 -86 -74c-27.333 -27.333 -52 -55.666 -74 -84.999s-42.167 -61 -60.5 -95s-34.833 -70.5 -49.5 -109.5
s-28 -81.5 -40 -127.5c96 66 192.333 99 289 99c46 0 89.667 -9.83301 131 -29.5s77.833 -47.334 109.5 -83.001s56.667 -78 75 -127s27.5 -102.5 27.5 -160.5c0 -60.667 -10.667 -119.667 -32 -177s-51 -108.5 -89 -153.5s-83.333 -81.167 -136 -108.5
s-110.667 -41 -174 -41c-45.333 0 -87.333 7.66699 -126 23s-73.834 36.333 -105.501 63s-59.5 57.834 -83.5 93.501s-44.333 74.167 -61 115.5s-29.167 84.166 -37.5 128.499s-12.5 88.5 -12.5 132.5c0 122 24.167 237.333 72.5 346s117.833 205.667 208.5 291
c76 70.667 153.5 124.167 232.5 160.5s165.167 54.5 258.5 54.5h58zM296.003 683.999c-12 -90 -18.0039 -162.666 -18.0039 -217.999c0 -28 2.33301 -58.167 7 -90.5s11.834 -64.666 21.501 -96.999s21.667 -63.333 36 -93s31.333 -55.834 51 -78.501s42 -40.834 67 -54.501
s52.5 -20.5 82.5 -20.5c28.667 0 56.5 7 83.5 21s50.833 34.5 71.5 61.5s37.334 60.167 50.001 99.5s19 84 19 134c0 55.333 -5.66699 108.5 -17 159.5s-28 95.833 -50 134.5s-49.333 69.5 -82 92.5s-70 34.5 -112 34.5c-14 0 -27.333 -1 -40 -3s-26.667 -6.16699 -42 -12.5
s-33.166 -15 -53.499 -26s-45.166 -25.5 -74.499 -43.5z" />
    <glyph glyph-name="seven" unicode="7" horiz-adv-x="1024" 
d="M206 1356h727.001v-38l-452 -1346h-112l405 1221h-373c-39.333 0 -73.333 -2.83301 -102 -8.5s-54.334 -15.167 -77.001 -28.5s-43.167 -30.833 -61.5 -52.5s-36.833 -48.167 -55.5 -79.5l-29 11z" />
    <glyph glyph-name="eight" unicode="8" horiz-adv-x="1024" 
d="M393 683c-108 88.667 -177.333 159.336 -208 212.003s-46 108 -46 166c0 43.333 9 84.5 27 123.5s43.167 73.333 75.5 103s71.5 53.167 117.5 70.5s97 26 153 26c54 0 103.333 -8.16699 148 -24.5s83 -38 115 -65s56.833 -58.167 74.5 -93.5s26.5 -71.666 26.5 -108.999
c0 -50.667 -18 -102.334 -54 -155.001c-36 -53.333 -111 -115.333 -225 -186c58.667 -46 107.334 -86.667 146.001 -122s67.667 -66 87 -92c50.667 -67.333 76 -139 76 -215c0 -47.333 -9.5 -91.833 -28.5 -133.5s-45.833 -78.334 -80.5 -110.001
s-76.334 -56.667 -125.001 -75s-102.334 -27.5 -161.001 -27.5c-56.667 0 -108.667 9 -156 27s-88.166 42.167 -122.499 72.5s-61 65.666 -80 105.999s-28.5 82.833 -28.5 127.5c0 59.333 20 118.666 60 177.999c20.667 30 48.167 61.167 82.5 93.5s76.5 66.5 126.5 102.5z
M550 790.002c80 72 130.665 128.667 151.998 170c21.333 42.667 32 90 32 142c0 70.667 -19.5 125.667 -58.5 165s-92.833 59 -161.5 59c-34 0 -65 -5.33301 -93 -16s-52.167 -25 -72.5 -43s-36.166 -39 -47.499 -63s-17 -49 -17 -75c0 -34.667 8.83301 -69.167 26.5 -103.5
s42.834 -67.5 75.501 -99.5zM439.998 645.002c-48 -40 -85.668 -84.332 -113.001 -132.999c-17.333 -30 -30 -61.5 -38 -94.5s-12 -67.5 -12 -103.5c0 -42.667 6.16699 -81.5 18.5 -116.5s29.5 -64.833 51.5 -89.5s48.333 -43.834 79 -57.501s64.334 -20.5 101.001 -20.5
c36 0 68.667 5.5 98 16.5s54.333 26 75 45s36.667 41.167 48 66.5s17 52.333 17 81c0 47.333 -12.667 90.333 -38 129c-46 70 -141.667 162.333 -287 277z" />
    <glyph glyph-name="nine" unicode="9" horiz-adv-x="1024" 
d="M108 -28l-0.00195312 37c50.667 2 97.167 8.66699 139.5 20s81.833 27.833 118.5 49.5s71.334 48.667 104.001 81s64.667 70.5 96 114.5c70.667 98 119.334 205 146.001 321c-105.333 -67.333 -200 -101 -284 -101c-47.333 0 -92.166 9.66699 -134.499 29
s-79.166 46.666 -110.499 81.999s-56.166 77.833 -74.499 127.5s-27.5 104.834 -27.5 165.501s10.167 120.167 30.5 178.5s49 110.166 86 155.499s81.5 82 133.5 110s109.667 42 173 42c64 0 122.5 -15.5 175.5 -46.5s98.5 -72.5 136.5 -124.5s67.5 -111.667 88.5 -179
s31.5 -137.333 31.5 -210c0 -61.333 -6.5 -121.5 -19.5 -180.5s-31.833 -115.833 -56.5 -170.5s-54.834 -106.5 -90.501 -155.5s-75.834 -94.5 -120.501 -136.5c-34.667 -31.333 -70.5 -59.666 -107.5 -84.999s-75.5 -47.333 -115.5 -66s-81.833 -33 -125.5 -43
s-88.834 -15 -135.501 -15h-57zM727.998 669c12 86.667 18.001 156 18.001 208c0 28.667 -2.5 59.5 -7.5 92.5s-12.333 66 -22 99s-21.834 64.5 -36.501 94.5s-31.667 56.667 -51 80s-41.333 41.833 -66 55.5s-51.667 20.5 -81 20.5s-57.333 -6.66699 -84 -20
s-50.334 -33.166 -71.001 -59.499s-37.167 -59.5 -49.5 -99.5s-18.5 -86.333 -18.5 -139c0 -59.333 5.66699 -114.333 17 -165s27.833 -94.5 49.5 -131.5s47.834 -66.167 78.501 -87.5s65.334 -32 104.001 -32c14.667 0 31.5 2 50.5 6s38.5 9.5 58.5 16.5
s39.667 15.667 59 26s36.666 22.166 51.999 35.499z" />
    <glyph glyph-name="colon" unicode=":" horiz-adv-x="1236" 
d="M1086 817c0 -15.333 -3 -29.666 -9 -42.999s-14 -25 -24 -35s-21.667 -18 -35 -24s-27.666 -9 -42.999 -9s-29.666 3 -42.999 9s-25 14 -35 24s-18 21.667 -24 35s-9 27.666 -9 42.999s3 29.666 9 42.999s14 25 24 35s21.667 18 35 24s27.666 9 42.999 9
s29.666 -3 42.999 -9s25 -14 35 -24s18 -21.667 24 -35s9 -27.666 9 -42.999zM337 819c0 -15.333 -2.99902 -29.833 -8.99902 -43.5s-14.167 -25.5 -24.5 -35.5s-22.333 -18 -36 -24s-27.834 -9 -42.501 -9c-15.333 0 -29.666 3 -42.999 9s-25 14 -35 24
s-18 21.833 -24 35.5s-9 28.167 -9 43.5s3 29.666 9 42.999s14 25 24 35s21.667 18 35 24s27.666 9 42.999 9s29.833 -3 43.5 -9s25.5 -14 35.5 -24s18 -21.667 24 -35s9 -27.666 9 -42.999z" />
    <glyph glyph-name="semicolon" unicode=";" horiz-adv-x="1516" 
d="M784 1470c15.333 0 29.666 -2.83301 42.999 -8.5s25 -13.5 35 -23.5s18 -21.667 24 -35s9 -27.666 9 -42.999s-3 -29.666 -9 -42.999s-14 -25 -24 -35s-21.667 -18 -35 -24s-27.666 -9 -42.999 -9s-29.666 3 -42.999 9s-25 14 -35 24s-18 21.667 -24 35
s-9 27.666 -9 42.999s3 29.666 9 42.999s14 25 24 35s21.667 17.833 35 23.5s27.666 8.5 42.999 8.5zM644 184l-0.00585938 44.001c34 11.333 64.333 26.166 91 44.499s49.334 38.833 68.001 61.5s32.834 47 42.501 73s14.5 52 14.5 78c0 10 -2.33301 19.333 -7 28
s-10 13 -16 13c-2 0 -6 -1.5 -12 -4.5l-20.5 -10c-7.66699 -3.66699 -16.167 -7 -25.5 -10s-18.666 -4.5 -27.999 -4.5c-32.667 0 -58.667 9.66699 -78 29s-29 46 -29 80c0 16.667 3.33301 32.167 10 46.5s15.834 26.833 27.501 37.5s25.334 19.167 41.001 25.5
s32.5 9.5 50.5 9.5c21.333 0 42.166 -5 62.499 -15s38.333 -24.167 54 -42.5s28.334 -40.5 38.001 -66.5s14.5 -54.667 14.5 -86c0 -34 -5.83301 -67.333 -17.5 -100s-29.667 -63.167 -54 -91.5s-55.166 -54.5 -92.499 -78.5s-82 -44.333 -134 -61z" />
    <glyph glyph-name="less" unicode="&#x3c;" horiz-adv-x="1155" 
d="M37 796l1076 466v-87l-926 -402l926 -406v-90l-1076 470v49z" />
    <glyph glyph-name="equal" unicode="=" horiz-adv-x="1511" 
d="M962 1350v-1079h-82v1079h82zM636 1350v-1079h-82v1079h82z" />
    <glyph glyph-name="greater" unicode="&#x3e;" horiz-adv-x="1155" 
d="M1113 753l-1076 -466v86l927 402l-927 406v91l1076 -470v-49z" />
    <glyph glyph-name="question" unicode="?" horiz-adv-x="1904" 
d="M948 477l-40.9971 -0.00488281c5.33301 85.333 15.666 154.666 30.999 207.999c8 28 20.667 61 38 99s38.666 81.667 63.999 131c19.333 38 35.666 71.333 48.999 100s23 53 29 73c12 40.667 18 81.667 18 123c0 42 -6.16699 80.167 -18.5 114.5s-29 63.5 -50 87.5
s-45.667 42.5 -74 55.5s-58.5 19.5 -90.5 19.5c-29.333 0 -55.5 -3.83301 -78.5 -11.5s-42.5 -17.667 -58.5 -30s-28.333 -26.166 -37 -41.499s-13 -31 -13 -47c0 -11.333 3.16699 -25.166 9.5 -41.499s13.166 -32.833 20.499 -49.5l20.5 -47.5
c6.33301 -15 9.5 -26.5 9.5 -34.5c0 -24 -7.66699 -44.167 -23 -60.5s-34 -24.5 -56 -24.5c-14 0 -27.667 3.5 -41 10.5s-25.166 17.333 -35.499 31s-18.666 30.167 -24.999 49.5s-9.5 41.333 -9.5 66c0 36.667 8.33301 72.334 25 107.001s40.5 65.334 71.5 92.001
s68.833 48 113.5 64s94.667 24 150 24c58.667 0 111.167 -8.33301 157.5 -25s85.666 -39.167 117.999 -67.5s57 -61.666 74 -99.999s25.5 -79.166 25.5 -122.499c0 -49.333 -11 -99.333 -33 -150c-11.333 -25.333 -27 -53.166 -47 -83.499s-45.333 -62.833 -76 -97.5
c-96 -108 -155.333 -185.667 -178 -233c-20.667 -44.667 -33.667 -107.334 -39 -188.001zM934.003 352.995c32 0 58.667 -10.667 80 -32s32 -48 32 -80c0 -15.333 -3 -29.666 -9 -42.999s-14 -25 -24 -35s-21.833 -18 -35.5 -24s-28.167 -9 -43.5 -9s-29.666 3 -42.999 9
s-25 14 -35 24s-18 21.667 -24 35s-9 27.666 -9 42.999c0 16 3 30.833 9 44.5s14 25.5 24 35.5s21.667 17.833 35 23.5s27.666 8.5 42.999 8.5z" />
    <glyph glyph-name="at" unicode="@" horiz-adv-x="1886" 
d="M1408 958l-117.001 -398.998l-52.5 -183c-13 -47.333 -21.833 -81 -26.5 -101c-9.33301 -41.333 -14 -73.333 -14 -96c0 -21.333 7.16699 -39.333 21.5 -54s32.166 -22 53.499 -22c24 0 51.167 6 81.5 18s61.333 30.5 93 55.5s62.834 57.167 93.501 96.5
s58.334 86 83.001 140c48.667 108 73 222 73 342c0 113.333 -27.667 218.666 -83 315.999s-133 171.333 -233 222c-50 25.333 -102.667 44.666 -158 57.999s-113.333 20 -174 20c-154 0 -297 -41 -429 -123c-132 -80.667 -236.667 -198 -314 -352
c-76.667 -152.667 -115 -312 -115 -478c0 -153.333 33.667 -292.666 101 -417.999c66.667 -124.667 162 -219.334 286 -284.001c122.667 -64.667 254.667 -97 396 -97c175.333 0 333.666 47 474.999 141c142.667 94.667 252.334 232 329.001 412h58
c-60 -183.333 -169 -331.333 -327 -444c-158.667 -113.333 -338.667 -170 -540 -170c-158 0 -305.333 37.667 -442 113s-242.334 181.666 -317.001 318.999c-75.333 137.333 -113 288.666 -113 453.999c0 176.667 41.333 340.667 124 492
c83.333 153.333 199 272.333 347 357c74.667 42.667 151.5 74.834 230.5 96.501s160.5 32.5 244.5 32.5c137.333 0 261.666 -28.667 372.999 -86c112 -57.333 196.667 -140.666 254 -249.999c58 -109.333 87 -225.666 87 -348.999c0 -122.667 -27.333 -243.667 -82 -363
c-54 -119.333 -123 -206.333 -207 -261c-83.333 -54.667 -171 -82 -263 -82c-50.667 0 -88.834 11.833 -114.501 35.5s-38.5 57.5 -38.5 101.5c0 36.667 6 85.667 18 147c-100 -120 -179 -197.333 -237 -232c-59.333 -35.333 -111.666 -53 -156.999 -53
c-23.333 0 -46 5.5 -68 16.5s-41.333 26.667 -58 47s-30 44.833 -40 73.5s-15 60.667 -15 96c0 97.333 31.333 205.666 94 324.999c63.333 120 147 217.667 251 293c77.333 55.333 146 83 206 83c44.667 0 81.834 -11.5 111.501 -34.5s49.834 -57.5 60.501 -103.5l33 110z
M1057 917.002c-30.667 0 -61.999 -10.5039 -93.999 -31.5039s-63 -49.5 -93 -85.5s-58.5 -77.667 -85.5 -125s-51.167 -97.333 -72.5 -150c-39.333 -96.667 -59 -174 -59 -232c0 -21.333 3.16699 -40.666 9.5 -57.999s14.833 -32.166 25.5 -44.499s23 -22 37 -29
s28.333 -10.5 43 -10.5c38.667 0 79.167 14.5 121.5 43.5s87.166 74.167 134.499 135.5c46.667 60.667 80.667 122 102 184c37.333 106.667 56 193 56 259c0 22 -3.33301 41.833 -10 59.5s-15.667 32.834 -27 45.501s-24.5 22.334 -39.5 29.001s-31.167 10 -48.5 10z" />
    <glyph glyph-name="A" unicode="A" horiz-adv-x="1479" 
d="M937 454l-524.994 0.00292969l-92 -214c-22.667 -52 -34 -91.333 -34 -118c0 -10.667 1.83301 -20.5 5.5 -29.5s11.167 -17.333 22.5 -25s27.333 -14 48 -19s47.667 -8.83301 81 -11.5v-37h-427v37c56 10 92.667 23 110 39s35.166 40.167 53.499 72.5
s38.166 73.166 59.499 122.499l477 1116h35l472 -1128c19.333 -46.667 37.166 -84.167 53.499 -112.5s33.166 -50.333 50.499 -66s36.166 -26.5 56.499 -32.5s44.5 -9.66699 72.5 -11v-37h-535v37c26.667 1.33301 49 4.33301 67 9s32.167 10.667 42.5 18
s17.666 15.666 21.999 24.999s6.5 19.666 6.5 30.999c0.666992 14.667 -2.5 33.5 -9.5 56.5s-17.167 50.5 -30.5 82.5zM909.006 528.003l-230 548l-236 -548h466z" />
    <glyph glyph-name="B" unicode="B" horiz-adv-x="1366" 
d="M946 692c55.333 -12 102.501 -28.332 141.501 -48.999s70.833 -45 95.5 -73s42.667 -58.833 54 -92.5s17 -69.167 17 -106.5c0 -33.333 -5.5 -66.5 -16.5 -99.5s-26.833 -64 -47.5 -93s-45.834 -55.333 -75.501 -79s-63.167 -42.834 -100.5 -57.501
c-74 -28 -187.333 -42 -340 -42h-640v37h51c56 0 96.667 18 122 54c15.333 23.333 23 73 23 149v876c0 83.333 -9.66699 136.333 -29 159c-26 29.333 -64.667 44 -116 44h-51v37h586c109.333 0 197 -8 263 -24c50 -12 94.167 -29 132.5 -51s70.5 -47.667 96.5 -77
s45.667 -61.833 59 -97.5s20 -73.167 20 -112.5c0 -68 -20.667 -128.833 -62 -182.5s-102.333 -93.5 -183 -119.5zM422.001 746.001c50.667 -9.33301 113.666 -14.002 188.999 -14.002c98 0 171 10.333 219 31c24.667 10.667 46.5 24.334 65.5 41.001
s34.833 35.334 47.5 56.001s22.334 43 29.001 67s10 49 10 75c0 38.667 -8.16699 75.5 -24.5 110.5s-40.5 65.5 -72.5 91.5s-71.667 46.667 -119 62s-102 23 -164 23c-68 0 -128 -7.33301 -180 -22v-521zM422 97.999c76.667 -18 153.001 -27.002 229.001 -27.002
c60.667 0 114.167 7.33301 160.5 22s85.166 34.834 116.499 60.501s54.833 55.667 70.5 90s23.5 71.166 23.5 110.499c0 43.333 -8.5 83.833 -25.5 121.5s-43 70.334 -78 98.001s-79 49.5 -132 65.5s-115.5 24 -187.5 24c-42 0 -77.5 -0.666992 -106.5 -2
s-52.5 -3.66602 -70.5 -6.99902v-556z" />
    <glyph glyph-name="C" unicode="C" horiz-adv-x="1366" 
d="M1233 1387l31 -460.997h-31c-20.667 68.667 -45.834 127.667 -75.501 177s-63.5 89.666 -101.5 120.999s-80 54.333 -126 69s-96 22 -150 22c-90.667 0 -171 -22.167 -241 -66.5s-125.667 -112.5 -167 -204.5c-22.667 -50.667 -40 -108.167 -52 -172.5
s-18 -136.5 -18 -216.5c0 -122 19.667 -228.333 59 -319c20 -46 45.167 -86.333 75.5 -121s64.833 -63.667 103.5 -87s80.834 -41 126.501 -53s93.167 -18 142.5 -18c56 0 104.333 5.66699 145 17s77.667 28.666 111 51.999s65.5 52.666 96.5 87.999
s65.167 76.666 102.5 123.999l31 -20c-34 -60 -70.667 -112 -110 -156s-82 -80.333 -128 -109s-95.833 -49.834 -149.5 -63.501s-111.5 -20.5 -173.5 -20.5c-225.333 0 -399.333 83.333 -522 250c-92 124 -138 270 -138 438c0 80.667 11 158.834 33 234.501
s56 145.5 102 209.5c32 45.333 68.5 85.833 109.5 121.5s85.333 65.667 133 90s97.834 42.833 150.501 55.5s106.667 19 162 19c98 0 194.667 -24 290 -72c29.333 -15.333 49.333 -22.666 60 -21.999c21.333 0 39.166 8.83301 53.499 26.5s24.5 40.167 30.5 67.5h35z" />
    <glyph glyph-name="D" unicode="D" horiz-adv-x="1479" 
d="M35 0l-0.000976562 37.001h51c56.667 0 97.334 18.333 122.001 55c14.667 21.333 22 70.666 22 147.999v876c0 85.333 -9.33301 138.333 -28 159c-26 29.333 -64.667 44 -116 44h-51v37h552c202.667 0 356.667 -23 462 -69c106 -46 191 -122.667 255 -230
c64.667 -106.667 97 -230.667 97 -372c0 -100 -16.167 -192 -48.5 -276s-80.333 -156.167 -144 -216.5s-143 -107.5 -238 -141.5s-204.833 -51 -329.5 -51h-606zM421.999 98.001c83.333 -18.667 154.332 -28 212.999 -28c76.667 0 147.834 14.167 213.501 42.5
s122.5 68.666 170.5 120.999s85.667 115.833 113 190.5s41 158.334 41 251.001c0 93.333 -13.5 177.333 -40.5 252s-64.667 138.167 -113 190.5s-106 92.5 -173 120.5s-140.167 42 -219.5 42c-30 0 -62 -2.5 -96 -7.5s-70.333 -12.167 -109 -21.5v-1153z" />
    <glyph glyph-name="E" unicode="E" horiz-adv-x="1251" 
d="M428 1282l0.00292969 -536h298c43.333 0 78.5 3.83301 105.5 11.5s48.167 19.667 63.5 36s26 36.833 32 61.5s10 54 12 88h37v-472h-37c-4.66699 33.333 -9.33398 60.5 -14.001 81.5s-9.33398 36.167 -14.001 45.5c-6 12 -13.667 22.5 -23 31.5s-21.333 16.833 -36 23.5
s-32.334 11.667 -53.001 15s-45 5 -73 5h-298v-447c0 -59.333 2.66699 -96 8 -110c2.66699 -6 6 -11.667 10 -17s9.83301 -9.83301 17.5 -13.5s17.667 -6.5 30 -8.5s27.833 -3 46.5 -3h230c39.333 0 72.166 1.16699 98.499 3.5s49.333 6.33301 69 12s37 13.667 52 24
s30.833 23.5 47.5 39.5c20.667 20 41.667 45.667 63 77s42.666 68 63.999 110h40l-117 -340h-1045v37h48c12.667 0 26 1.33301 40 4s27.167 7 39.5 13s23.5 13.5 33.5 22.5s17 19.5 21 31.5c8 20.667 12 64.334 12 131.001v881c0 85.333 -8.66699 138.333 -26 159
c-24 26.667 -64 40 -120 40h-48v37h1045v-297h-24c-7.33301 36 -14.666 65.667 -21.999 89s-15.666 42.666 -24.999 57.999s-20 27.5 -32 36.5s-26.333 17.167 -43 24.5c-27.333 10 -74.333 15 -141 15h-372z" />
    <glyph glyph-name="F" unicode="F" horiz-adv-x="1139" 
d="M419 1282l-0.00390625 -532.998h247c28.667 0 53.167 2.66699 73.5 8s37.5 15 51.5 29s25 33 33 57s14.333 54.667 19 92h37v-459h-37c-0.666992 34 -4 63 -10 87s-15.667 43.667 -29 59s-31.166 26.5 -53.499 33.5s-50.5 10.5 -84.5 10.5h-247v-426
c0 -32 0.666992 -58 2 -78s3.83301 -36.333 7.5 -49s9.16699 -22.834 16.5 -30.501s17 -14.834 29 -21.501c28.667 -16 59.334 -24 92.001 -24h49v-37h-582v37h48c56.667 0 97.334 16.333 122.001 49c16 20.667 24 72 24 154v876c0 32 -0.666992 58 -2 78
s-3.83301 36.5 -7.5 49.5s-9 23.167 -16 30.5s-16.5 14.333 -28.5 21c-29.333 16 -60 24 -92 24h-48v37h1009v-298h-22c-13.333 48.667 -28.166 87.667 -44.499 117s-36.333 52 -60 68s-51.5 26.5 -83.5 31.5s-70 7.5 -114 7.5h-299z" />
    <glyph glyph-name="G" unicode="G" horiz-adv-x="1479" 
d="M1257 1387l35.002 -428.001h-35c-34.667 106 -80.334 186.333 -137.001 241c-81.333 78 -185 117 -311 117c-172.667 0 -304 -68.333 -394 -205c-75.333 -115.333 -113 -252.666 -113 -411.999c0 -129.333 25 -247.333 75 -354c22 -47.333 48.333 -90 79 -128
s65 -70.333 103 -97s79.167 -47.334 123.5 -62.001s91.166 -22 140.499 -22c50 0 98.167 6.33301 144.5 19s91.5 31.334 135.5 56.001v392c0 34.667 -1.33301 62.5 -4 83.5s-6.5 37.833 -11.5 50.5s-11.667 22.334 -20 29.001s-17.833 12.667 -28.5 18
c-21.333 11.333 -59.333 17 -114 17v38h525v-38h-25c-22.667 0 -42 -2.5 -58 -7.5s-29.167 -14.5 -39.5 -28.5s-17.833 -34 -22.5 -60s-7 -60 -7 -102v-415c-40 -21.333 -78.667 -39.5 -116 -54.5s-75.166 -27.333 -113.499 -37s-77.666 -16.834 -117.999 -21.501
s-83.166 -7 -128.499 -7c-262 0 -461 84 -597 252c-102 126 -153 271.333 -153 436c0 46 4.66699 92.167 14 138.5s22.666 91.5 39.999 135.5s38.666 86.167 63.999 126.5s53.666 77.5 84.999 111.5c66.667 74.667 142.834 129.667 228.501 165s181.167 53 286.5 53
c31.333 0 58.666 -1.16699 81.999 -3.5s46 -6 68 -11s45.167 -11.667 69.5 -20l86.5 -30.5c36.667 -14 61.667 -21 75 -21c12.667 0 23.5 5.83301 32.5 17.5s14.5 34.5 16.5 68.5h37z" />
    <glyph glyph-name="H" unicode="H" horiz-adv-x="1479" 
d="M421 727h630v388c0 32 -0.666992 58 -2 78s-3.83301 36.5 -7.5 49.5s-9.16699 23.333 -16.5 31s-17 14.834 -29 21.501c-29.333 16 -59.666 24 -90.999 24h-48v37h581l-1 -37h-48c-12.667 0 -26 -1.33301 -40 -4s-27.333 -7 -40 -13s-23.834 -13.5 -33.501 -22.5
s-16.834 -19.833 -21.501 -32.5c-7.33301 -22 -11 -66 -11 -132v-875c0 -32 0.666992 -58 2 -78s3.83301 -36.5 7.5 -49.5s9 -23.167 16 -30.5s16.5 -14.333 28.5 -21c28.667 -16 59.334 -24 92.001 -24h48v-37h-580v37h48c54.667 0 95 16.333 121 49
c16.667 20.667 25 72 25 154v413h-630v-413c0 -32 0.666992 -58 2 -78s3.83301 -36.333 7.5 -49s9.16699 -22.834 16.5 -30.501s17 -14.834 29 -21.501c28.667 -16 59 -24 91 -24h49v-37h-581v37h48c56.667 0 97.334 16.333 122.001 49c16 20.667 24 72 24 154v875
c0 32 -0.666992 58 -2 78s-3.83301 36.5 -7.5 49.5s-9 23.333 -16 31s-16.5 14.834 -28.5 21.501c-29.333 16 -60 24 -92 24h-48v37h581v-37h-49c-13.333 0 -26.833 -1.33301 -40.5 -4s-26.667 -7 -39 -13s-23.333 -13.5 -33 -22.5s-16.834 -19.833 -21.501 -32.5
c-8 -21.333 -12 -65.333 -12 -132v-388z" />
    <glyph glyph-name="I" unicode="I" horiz-adv-x="682" 
d="M632 37l-0.000976562 -36.998h-581v37h48c56.667 0 97.334 16.333 122.001 49c16 20.667 24 72 24 154v876c0 32 -0.666992 58 -2 78s-3.83301 36.5 -7.5 49.5s-9 23.167 -16 30.5s-16.5 14.333 -28.5 21c-29.333 16 -60 24 -92 24h-48v37h581v-37h-49
c-56 0 -96.333 -16.333 -121 -49c-16.667 -20.667 -25 -72 -25 -154v-876c0 -32 0.666992 -58 2 -78s3.83301 -36.333 7.5 -49s9.16699 -22.834 16.5 -30.501s17 -14.834 29 -21.501c28.667 -16 59 -24 91 -24h49z" />
    <glyph glyph-name="J" unicode="J" horiz-adv-x="797" 
d="M204 1319l-0.00292969 36.9951h581v-37h-49c-56 0 -96.333 -16.333 -121 -49c-16 -21.333 -24 -72.666 -24 -153.999v-663c0 -103.333 -11.333 -186 -34 -248c-11.333 -31.333 -26.666 -61.166 -45.999 -89.499s-42.166 -53.333 -68.499 -75s-56.333 -39 -90 -52
s-69.834 -19.5 -108.501 -19.5c-31.333 0 -59.5 4.33301 -84.5 13s-46.167 20 -63.5 34s-30.666 30.167 -39.999 48.5s-14 37.5 -14 57.5c0 18.667 3 34.667 9 48s13.833 24.333 23.5 33s20.667 14.834 33 18.501s24.5 5.5 36.5 5.5c10 0 19.5 -1 28.5 -3
s18.333 -7.5 28 -16.5s19.667 -22.333 30 -40s22.166 -42.167 35.499 -73.5c14.667 -36 34.334 -54 59.001 -54c8.66699 0 17.5 2.5 26.5 7.5s17 13.5 24 25.5s12.667 27.5 17 46.5s6.5 42.5 6.5 70.5v926c0 32 -0.666992 58 -2 78s-3.83301 36.333 -7.5 49
s-9.16699 22.834 -16.5 30.501s-17 14.834 -29 21.501c-29.333 16 -59.666 24 -90.999 24h-49z" />
    <glyph glyph-name="K" unicode="K" horiz-adv-x="1479" 
d="M612 752l500.002 -496.996c82 -82 152 -138 210 -168c58.667 -29.333 116.667 -46 174 -50v-37h-645v37c38.667 0 66.5 6.5 83.5 19.5s25.5 27.5 25.5 43.5c0 8 -0.333008 15.167 -1 21.5s-3.16699 13.166 -7.5 20.499s-11.333 16.666 -21 27.999s-23.834 26 -42.501 44
l-468 463v-437c0 -32 0.666992 -58 2 -78s3.83301 -36.333 7.5 -49s9.16699 -22.834 16.5 -30.501s17 -14.834 29 -21.501c28.667 -16 59 -24 91 -24h46v-37h-578v37h48c56.667 0 97.334 16.333 122.001 49c16 20.667 24 72 24 154v876c0 30.667 -0.5 56 -1.5 76
s-3.5 36.5 -7.5 49.5s-9.5 23.5 -16.5 31.5s-16.5 15.333 -28.5 22c-29.333 16 -60 24 -92 24h-48v37h578v-37h-46c-12.667 0 -25.834 -1.33301 -39.501 -4s-26.667 -6.83398 -39 -12.501s-23.5 -13 -33.5 -22s-17.333 -19.833 -22 -32.5c-8 -21.333 -12 -65.333 -12 -132
v-415c26 21.333 55.667 47.333 89 78l102.5 97l104 102l93.5 94.5l70.5 75.5c19 21.333 31.167 35.666 36.5 42.999c18 26.667 27 50 27 70c0 15.333 -6.83301 28.833 -20.5 40.5s-37.5 17.5 -71.5 17.5h-31v37h498v-37c-29.333 -1.33301 -56 -5.33301 -80 -12
c-12 -4 -25.333 -9.33301 -40 -16s-30.834 -15.667 -48.501 -27s-37 -25.166 -58 -41.499s-44.167 -36.166 -69.5 -59.499z" />
    <glyph glyph-name="L" unicode="L" horiz-adv-x="1251" 
d="M1174 375l32.998 -7l-116 -368h-1050v37h51c56.667 0 97.667 18.667 123 56c14 20.667 21 70 21 148v875c0 85.333 -9.33301 138.333 -28 159c-26 29.333 -64.667 44 -116 44h-51v37h614v-37c-36.667 0 -67.167 -1.66699 -91.5 -5s-44.333 -8.33301 -60 -15
s-28 -14.5 -37 -23.5s-16.5 -18.833 -22.5 -29.5c-10.667 -20.667 -16 -71.667 -16 -153v-852c0 -23.333 0.833008 -43.333 2.5 -60s4.5 -30.5 8.5 -41.5s9.33301 -20 16 -27s15.334 -12.5 26.001 -16.5c16 -6.66699 68 -10 156 -10h99c103.333 0 176.333 7.66699 219 23
c21.333 7.33301 41.333 17.333 60 30s36.834 29.5 54.501 50.5s35 46.5 52 76.5s34.5 66.333 52.5 109z" />
    <glyph glyph-name="M" unicode="M" horiz-adv-x="1821" 
d="M838 0l-524 1141v-906c0 -83.333 9 -135.333 27 -156c24.667 -28 63.667 -42 117 -42h48v-37h-472v37h48c57.333 0 98 17.333 122 52c14.667 20.667 22 69.334 22 146.001v886c0 58.667 -6.66699 102 -20 130c-4.66699 10 -11 19.167 -19 27.5s-18.833 15.5 -32.5 21.5
s-30.167 10.667 -49.5 14s-43 5 -71 5v37h384l492 -1061l484 1061h384v-37h-47c-58 0 -99 -17.333 -123 -52c-14.667 -20.667 -22 -69.334 -22 -146.001v-886c0 -83.333 9.33301 -135.333 28 -156c24.667 -28 63.667 -42 117 -42h47v-37h-576v37h48
c57.333 0 98 17.333 122 52c14.667 20.667 22 69.334 22 146.001v906l-523 -1141h-33z" />
    <glyph glyph-name="N" unicode="N" horiz-adv-x="1479" 
d="M-27 1356h367.999l829 -1017v782c0 83.333 -9.33301 135.333 -28 156c-25.333 28 -64.333 42 -117 42h-47v37h472v-37h-48c-57.333 0 -98 -17.333 -122 -52c-14.667 -20.667 -22 -69.334 -22 -146.001v-1143h-36l-894 1092v-835c0 -83.333 9 -135.333 27 -156
c24.667 -28 63.667 -42 117 -42h48v-37h-472v37h47c58 0 99 17.333 123 52c14.667 20.667 22 69.334 22 146.001v943c-20 23.333 -36.667 42 -50 56s-26 25.5 -38 34.5s-25 16.333 -39 22s-31.333 12.167 -52 19.5c-19.333 6 -48.666 9 -87.999 9v37z" />
    <glyph glyph-name="O" unicode="O" horiz-adv-x="1479" 
d="M749 1387c175.333 0 327.668 -67.001 457.001 -201.001c129.333 -133.333 194 -300 194 -500c0 -206 -65 -377 -195 -513s-287.333 -204 -472 -204c-187.333 0 -344.333 66.333 -471 199s-190 304.334 -190 515.001c0 215.333 73.333 391 220 527
c127.333 118 279.666 177 456.999 177zM730.002 1314c-68.667 0 -129.667 -14.6699 -183 -44.0029s-98.166 -71.166 -134.499 -125.499s-64 -120.166 -83 -197.499s-28.5 -164 -28.5 -260c0 -95.333 9.33301 -182.666 28 -261.999s46.167 -147.5 82.5 -204.5
s81.166 -101.333 134.499 -133s115 -47.5 185 -47.5c62.667 0 120.834 12 174.501 36s100.167 61.167 139.5 111.5s70.166 114.5 92.499 192.5s33.5 171 33.5 279c0 103.333 -9.16699 195.5 -27.5 276.5s-46 149.5 -83 205.5s-83 98.833 -138 128.5
s-119.167 44.5 -192.5 44.5z" />
    <glyph glyph-name="P" unicode="P" horiz-adv-x="1139" 
d="M420 635l0.000976562 -395c0 -85.333 9.33301 -138.333 28 -159c25.333 -29.333 63.666 -44 114.999 -44h52v-37h-581v37h51c28 0 52.5 4.66699 73.5 14s37.5 23.333 49.5 42c13.333 21.333 20 70.333 20 147v876c0 84.667 -9 137.667 -27 159
c-26 29.333 -64.667 44 -116 44h-51v37h497c120.667 0 216.334 -12.667 287.001 -38c34.667 -12.667 67 -29.667 97 -51s56.333 -46.5 79 -75.5s40.5 -61.167 53.5 -96.5s19.5 -73.333 19.5 -114c0 -55.333 -9.33301 -105.833 -28 -151.5s-45.834 -85 -81.501 -118
s-79.5 -58.667 -131.5 -77s-111.333 -27.5 -178 -27.5s-142.667 9.33301 -228 28zM420.001 692c36 -6.66699 67.501 -11.667 94.501 -15s50.167 -5 69.5 -5c34.667 0 67.5 7.16699 98.5 21.5s58 34.333 81 60s41.333 56.167 55 91.5s20.5 74 20.5 116
c0 49.333 -7.33301 93.5 -22 132.5s-35 72 -61 99s-56.5 47.5 -91.5 61.5s-72.833 21 -113.5 21c-17.333 0 -36.833 -1.5 -58.5 -4.5s-45.834 -7.83301 -72.501 -14.5v-564z" />
    <glyph glyph-name="Q" unicode="Q" horiz-adv-x="1479" 
d="M902 -15c68.667 -118.667 141.998 -205.001 219.998 -259.001c79.333 -55.333 169.333 -87 270 -95v-32c-90.667 2.66699 -189 21.334 -295 56.001c-103.333 32.667 -202.666 79.334 -297.999 140.001c-92 58.667 -172.667 122 -242 190c-96 38.667 -172 79.667 -228 123
c-82.667 64.667 -146.167 144 -190.5 238s-66.5 205.667 -66.5 335c0 202 65.667 370.333 197 505c130.667 134 289.667 201 477 201c178 0 331.333 -67.333 460 -202c64.667 -68 113.334 -143.833 146.001 -227.5s49 -177.167 49 -280.5
c0 -166.667 -46.333 -312.334 -139 -437.001c-92 -125.333 -212 -210.333 -360 -255zM733.998 1310c-68.667 0 -129.832 -14 -183.499 -42s-99 -68.833 -136 -122.5s-65.167 -119.5 -84.5 -197.5s-29 -167 -29 -267c0 -94.667 9.33301 -181.334 28 -260.001
s46.167 -146.5 82.5 -203.5s81.5 -101.333 135.5 -133s116.333 -47.5 187 -47.5c68.667 0 130 13.833 184 41.5s99.833 67.834 137.5 120.501s66.5 117.167 86.5 193.5s30 162.833 30 259.5c0 108 -10.5 203 -31.5 285s-50.833 150.667 -89.5 206s-84.834 97 -138.501 125
s-113.167 42 -178.5 42z" />
    <glyph glyph-name="R" unicode="R" horiz-adv-x="1366" 
d="M1384 0h-361.999l-459 634c-17.333 -0.666992 -32.833 -1.16699 -46.5 -1.5s-25.834 -0.5 -36.501 -0.5c-8.66699 0 -18 0.166992 -28 0.5s-20.333 0.833008 -31 1.5v-394c0 -85.333 9.33301 -138.333 28 -159c25.333 -29.333 63.333 -44 114 -44h53v-37h-581v37h51
c56.667 0 97.667 18.667 123 56c14 20.667 21 69.667 21 147v876c0 85.333 -9.33301 138.333 -28 159c-26 29.333 -64.667 44 -116 44h-51v37h494c142.667 0 248.667 -10.667 318 -32c34 -10 65.833 -25 95.5 -45s55.667 -43.667 78 -71s40 -58 53 -92
s19.5 -70.333 19.5 -109c0 -42 -6.66699 -81.167 -20 -117.5s-33.833 -69.5 -61.5 -99.5s-62.5 -56 -104.5 -78s-91.333 -39.333 -148 -52l280 -389c64.667 -90 119.667 -149.333 165 -178c46.667 -29.333 106.667 -48 180 -56v-37zM421.001 697
c12.667 0 23.6689 -0.166992 33.002 -0.5s17 -0.5 23 -0.5c64.667 0 121.5 7.5 170.5 22.5s89.833 35.833 122.5 62.5s57.167 58.167 73.5 94.5s24.5 75.833 24.5 118.5c0 42 -7 80.5 -21 115.5s-33.833 65.167 -59.5 90.5s-56.334 45 -92.001 59s-74.834 21 -117.501 21
c-19.333 0 -42 -1.5 -68 -4.5s-55.667 -7.83301 -89 -14.5v-564z" />
    <glyph glyph-name="S" unicode="S" horiz-adv-x="1139" 
d="M939 1387l0.00390625 -468.997h-37c-12 90 -33.667 161.667 -65 215c-15.333 26.667 -34.5 50.667 -57.5 72s-48 39.5 -75 54.5s-55.667 26.667 -86 35s-60.833 12.5 -91.5 12.5c-34 0 -65.667 -5.83301 -95 -17.5s-54.833 -27.167 -76.5 -46.5s-38.5 -41.5 -50.5 -66.5
s-18 -50.833 -18 -77.5c0 -37.333 8.66699 -69.833 26 -97.5s41.166 -53.167 71.499 -76.5s66 -46 107 -68l133.5 -71l154 -84c48.667 -27.333 91.5 -57.5 128.5 -90.5s66.5 -70.667 88.5 -113s33 -93.166 33 -152.499c0 -50.667 -10.5 -98.834 -31.5 -144.501
s-50.333 -85.667 -88 -120s-82.667 -61.666 -135 -81.999s-109.833 -30.5 -172.5 -30.5c-23.333 0 -43.333 0.333008 -60 1s-32.667 2.16699 -48 4.5s-31.166 6 -47.499 11s-35.833 11.833 -58.5 20.5c-16 6 -32.333 11.5 -49 16.5s-32 9.16699 -46 12.5s-25.833 6 -35.5 8
s-15.834 3 -18.501 3c-16.667 0 -29.834 -5 -39.501 -15s-16.834 -30.667 -21.501 -62h-37v465h37c8.66699 -48.667 18.834 -91.167 30.501 -127.5s24.834 -66.833 39.501 -91.5c14.667 -24 33.667 -46.333 57 -67s49.5 -38.5 78.5 -53.5s60.333 -26.667 94 -35
s68.167 -12.5 103.5 -12.5c42 0 79.667 6 113 18s61.666 28.167 84.999 48.5s41.166 44 53.499 71s18.5 55.167 18.5 84.5c0 43.333 -9 79.833 -27 109.5s-42.167 56.167 -72.5 79.5s-65.666 45.666 -105.999 66.999s-82.833 45.333 -127.5 72l-146.5 85.5
c-47 27 -88.5 56.667 -124.5 89s-64.833 69.166 -86.5 110.499s-32.5 90.666 -32.5 147.999c0 48 10 93.667 30 137s47.667 81.333 83 114s77.166 58.5 125.499 77.5s101.166 28.5 158.499 28.5c70.667 0 147 -17.667 229 -53c36 -16.667 62.333 -25 79 -25
c17.333 0 31.5 5.16699 42.5 15.5s19.833 31.166 26.5 62.499h37z" />
    <glyph glyph-name="T" unicode="T" horiz-adv-x="1251" 
d="M1185 1356l-0.00195312 -317.999h-23c-5.33301 42.667 -14.166 78.834 -26.499 108.501s-28.5 53.667 -48.5 72s-44.333 31.666 -73 39.999s-62 12.5 -100 12.5h-191v-1036c0 -83.333 9 -135.333 27 -156c24.667 -28 63.667 -42 117 -42h47v-37h-575v37h48
c57.333 0 98 17.333 122 52c14.667 20.667 22 69.334 22 146.001v1036h-163c-41.333 0 -77.333 -3 -108 -9s-56.667 -17.333 -78 -34s-38.666 -40.334 -51.999 -71.001s-23.333 -70.334 -30 -119.001h-38v318h1123z" />
    <glyph glyph-name="U" unicode="U" horiz-adv-x="1479" 
d="M977 1319l-0.00488281 36.999h480v-37h-51c-53.333 0 -94.333 -22.333 -123 -67c-14 -21.333 -21 -69.333 -21 -144v-550c0 -135.333 -13.667 -241 -41 -317c-17.333 -48.667 -42 -90.167 -74 -124.5s-69 -62.5 -111 -84.5s-88.167 -38.167 -138.5 -48.5
s-102.833 -15.5 -157.5 -15.5c-147.333 0 -259.666 25.667 -336.999 77c-48.667 32 -86.167 65.833 -112.5 101.5s-45.666 75 -57.999 118s-19.5 90.667 -21.5 143s-3 111.833 -3 178.5v530c0 42 -2.83301 76.333 -8.5 103s-14.5 47.334 -26.5 62.001
s-27.167 24.667 -45.5 30s-40.166 8 -65.499 8h-51v37h586v-37h-52c-32 0 -57.667 -4.5 -77 -13.5s-34 -22.167 -44 -39.5s-16.5 -38.666 -19.5 -63.999s-4.5 -54 -4.5 -86v-591c0 -33.333 1 -66.333 3 -99s6 -64.167 12 -94.5s14.167 -59 24.5 -86
s23.833 -51.833 40.5 -74.5c26 -36 60.833 -64.5 104.5 -85.5s99.5 -31.5 167.5 -31.5c44 0 86.167 5.16699 126.5 15.5s77.333 24.666 111 42.999s62.834 40 87.501 65s43.334 52.5 56.001 82.5c26 60.667 39 163 39 307v549c0 85.333 -9.33301 138.333 -28 159
c-26 29.333 -64.667 44 -116 44h-51z" />
    <glyph glyph-name="V" unicode="V" horiz-adv-x="1479" 
d="M1454 1356l0.00195312 -37.001c-28.667 -5.33301 -53.167 -13 -73.5 -23s-38.166 -23 -53.499 -39s-28.833 -35.167 -40.5 -57.5s-23.5 -47.833 -35.5 -76.5l-473 -1154h-37l-508 1169c-26.667 61.333 -45 98 -55 110c-16.667 20.667 -37 36.834 -61 48.501
s-57 19.167 -99 22.5v37h554v-37c-32 -3.33301 -57.833 -7.66602 -77.5 -12.999s-34.834 -11.833 -45.501 -19.5s-17.834 -16.334 -21.501 -26.001s-5.5 -20.5 -5.5 -32.5c0 -34 15.333 -86 46 -156l345 -795l320 785c31.333 78 47 131.667 47 161
c0 20.667 -10.833 40.167 -32.5 58.5s-58.834 30.833 -111.501 37.5v37h418z" />
    <glyph glyph-name="W" unicode="W" horiz-adv-x="1933" 
d="M1917 1356v-37c-18 0 -34 -1.5 -48 -4.5s-26.833 -8 -38.5 -15s-22.5 -16.167 -32.5 -27.5s-20 -25.666 -30 -42.999c-12.667 -22.667 -33.667 -78.334 -63 -167.001l-378 -1093h-40l-309 867l-307 -867h-36l-403 1126c-30.667 85.333 -49.667 135 -57 149
c-13.333 25.333 -31.333 44.166 -54 56.499s-54 18.5 -94 18.5v37h502v-37h-24c-36 0 -63.167 -8 -81.5 -24s-27.5 -35.333 -27.5 -58c0 -11.333 3.5 -30.5 10.5 -57.5s18.167 -61.5 33.5 -103.5l267 -761l225 647l-72 205c-10.667 24.667 -21.5 46.334 -32.5 65.001
s-23.667 34.5 -38 47.5s-31 22.833 -50 29.5s-41.833 10 -68.5 10v37h528v-37h-36c-38 0 -65.5 -7.83301 -82.5 -23.5s-25.5 -37.5 -25.5 -65.5c0 -34 15 -93.333 45 -178l260 -737l258 747c29.333 84 44 141.333 44 172c0 31.333 -14 53.333 -42 66s-64 19 -108 19v37h405z
" />
    <glyph glyph-name="X" unicode="X" horiz-adv-x="1479" 
d="M836 751l290.998 -434.005c40.667 -60.667 75.834 -109.834 105.501 -147.501s54.167 -64.5 73.5 -80.5c38.667 -31.333 88.334 -48.666 149.001 -51.999v-37h-582v37c46 1.33301 79.833 8.33301 101.5 21s32.5 31.334 32.5 56.001c0 8.66699 0.166992 15.5 0.5 20.5
s-1.33398 11.5 -5.00098 19.5s-10 19 -19 33l-40.5 61l-230 348l-284 -364c-16 -20 -28.167 -36 -36.5 -48s-14.5 -22 -18.5 -30s-6.33301 -14.833 -7 -20.5s-1 -12.167 -1 -19.5c0 -10.667 2 -20.5 6 -29.5s11 -16.833 21 -23.5s23.333 -12.167 40 -16.5
s37.667 -6.83301 63 -7.5v-37h-481v37c42 3.33301 79.167 13.333 111.5 30s63.833 37 94.5 61c38 30 80.667 75 128 135l320 404l-267 391c-73.333 106 -135 175.333 -185 208c-51.333 33.333 -109.666 51 -174.999 53v37h627v-37c-26.667 -1.33301 -49 -4.33301 -67 -9
s-32.333 -10.5 -43 -17.5s-18.167 -14.833 -22.5 -23.5s-6.5 -17.667 -6.5 -27c0 -25.333 16 -61.333 48 -108l208 -311l241 305l34.5 45c8.33301 11.333 14.5 21 18.5 29s6.33301 15 7 21s1 12.667 1 20c0 15.333 -5 29 -15 41s-21.667 20.333 -35 25
c-7.33301 2.66699 -19 4.83398 -35 6.50098s-36 2.83398 -60 3.50098v37h481v-37c-22.667 -1.33301 -43 -4.16602 -61 -8.49902s-34.5 -9.83301 -49.5 -16.5s-29.167 -14.667 -42.5 -24s-26.333 -19.666 -39 -30.999c-28.667 -25.333 -71 -73.333 -127 -144z" />
    <glyph glyph-name="Y" unicode="Y" horiz-adv-x="1479" 
d="M976 1356l473 -0.00488281v-37h-26c-8 0 -18.833 -2 -32.5 -6s-28.167 -9.66699 -43.5 -17s-31 -16.666 -47 -27.999s-30.667 -24 -44 -38c-14 -14.667 -29.167 -33.667 -45.5 -57l-55.5 -83l-327 -515v-340c0 -83.333 9.33301 -135.333 28 -156
c24.667 -28 64.667 -42 120 -42h44v-37h-576v37h48c57.333 0 98 17.333 122 52c14.667 20.667 22 69.334 22 146.001v321l-372 568c-22 34 -40.5 61.167 -55.5 81.5s-26.5 34.833 -34.5 43.5c-4 4 -10.667 9.83301 -20 17.5s-21 15.5 -35 23.5s-29.5 14.833 -46.5 20.5
s-34.833 8.5 -53.5 8.5v37h580v-37h-30c-14.667 0 -29.5 -1.66699 -44.5 -5s-28.5 -8.66602 -40.5 -15.999s-21.833 -16.5 -29.5 -27.5s-11.5 -24.167 -11.5 -39.5c0 -24 20.333 -67.333 61 -130l283 -437l266 418c40 62.667 60 109.334 60 140.001
c-1.33301 14 -4.33301 27 -9 39s-12 22.333 -22 31s-23.667 15.334 -41 20.001s-39 7 -65 7v37z" />
    <glyph glyph-name="Z" unicode="Z" horiz-adv-x="1251" 
d="M1178 1356l-890.998 -1274h556c85.333 0 150.666 18.667 195.999 56c46 37.333 86.667 113 122 227l33 -6l-64 -359h-1104v37l870 1238h-434c-36 0 -66.5 -2 -91.5 -6s-46.5 -9.83301 -64.5 -17.5s-32.833 -17.167 -44.5 -28.5s-21.834 -24.666 -30.501 -39.999
c-16.667 -28 -32 -83.333 -46 -166h-38l28 339h1003z" />
    <glyph glyph-name="bracketleft" unicode="[" horiz-adv-x="682" 
d="M608 -406h-440v1793h440v-79h-290v-1636h290v-78z" />
    <glyph glyph-name="backslash" unicode="\" horiz-adv-x="569" 
d="M83 1422l490 -1450h-80l-490 1450h80z" />
    <glyph glyph-name="bracketright" unicode="]" horiz-adv-x="682" 
d="M75 1387h440v-1794h-440v79h290v1636h-290v79z" />
    <glyph glyph-name="asciicircum" unicode="^" horiz-adv-x="961" 
d="M498 1384l425 -717h-92l-350 586l-350 -586h-94l431 717h30z" />
    <glyph glyph-name="underscore" unicode="_" horiz-adv-x="1024" 
d="M1042 -442h-1059v84h1059v-84z" />
    <glyph glyph-name="grave" unicode="`" horiz-adv-x="682" 
d="M118 1390h223l106 -345h-35z" />
    <glyph glyph-name="a" unicode="a" horiz-adv-x="909" 
d="M583 132c-94 -73.333 -153.003 -115.334 -177.003 -126.001c-35.333 -16.667 -73.666 -25 -114.999 -25c-31.333 0 -60.333 5.66699 -87 17s-49.667 27.333 -69 48s-34.5 45.5 -45.5 74.5s-16.5 61.167 -16.5 96.5c0 26 3.5 50 10.5 72s17.5 42.833 31.5 62.5
s31.833 38.5 53.5 56.5s47.167 35.667 76.5 53c68.667 40.667 181.334 89.334 338.001 146.001v36c0 46 -3.83301 84.333 -11.5 115s-18.667 55.167 -33 73.5s-32.166 31.333 -53.499 39s-45.333 11.5 -72 11.5c-21.333 0 -40.5 -3.16699 -57.5 -9.5
s-31.5 -14.666 -43.5 -24.999s-21.167 -22.333 -27.5 -36s-9.5 -27.5 -9.5 -41.5l2 -58c0 -30.667 -7.83301 -54.334 -23.5 -71.001s-36.167 -25 -61.5 -25c-24.667 0 -44.834 8.66699 -60.501 26s-23.5 41 -23.5 71c0 28 7.5 55.667 22.5 83s36.667 52 65 74
s63.333 39.667 105 53s89.167 20 142.5 20c70.667 0 130.667 -10.333 180 -31s85 -56.334 107 -107.001c12 -29.333 18 -88 18 -176v-311c0 -44 0.5 -79.333 1.5 -106s2.16699 -45 3.5 -55c3.33301 -19.333 8.83301 -32.333 16.5 -39s16.5 -10 26.5 -10c6.66699 0 13 1 19 3
s13 6 21 12s17.333 14.167 28 24.5l41 40.5v-56c-75.333 -100 -146.666 -150 -213.999 -150c-32 0 -58 11.333 -78 34s-30 61.334 -30 116.001zM582.997 196.999v349c-50.667 -20 -92.167 -37 -124.5 -51s-55.833 -25.333 -70.5 -34
c-52.667 -30 -90.334 -60.833 -113.001 -92.5s-34 -66.5 -34 -104.5c0 -24 3.83301 -46.167 11.5 -66.5s18 -38 31 -53s28.167 -26.667 45.5 -35s35.333 -12.5 54 -12.5c50.667 0 117.334 33.333 200.001 100z" />
    <glyph glyph-name="b" unicode="b" horiz-adv-x="1024" 
d="M315 758c89.333 123.333 185 185 287 185c46 0 90.167 -10.333 132.5 -31s79.666 -50.5 111.999 -89.5s58.166 -86.167 77.499 -141.5s29 -118 29 -188c0 -163.333 -54 -294.333 -162 -393c-93.333 -85.333 -196.666 -128 -309.999 -128
c-105.333 0 -215.666 38.667 -330.999 116v949c0 102.667 -2.66699 166.667 -8 192c-4.66699 24 -12.334 40.333 -23.001 49s-24 13 -40 13c-19.333 0 -42.666 -5.33301 -69.999 -16l-14 35l275 112h45v-664zM315 694v-547.999c68.667 -67.333 141 -101 217 -101
c30 0 59.667 8.5 89 25.5s55.833 42 79.5 75s42.834 73.833 57.501 122.5s22 104.667 22 168c0 58 -7.16699 109.667 -21.5 155s-33.5 83.5 -57.5 114.5s-51.5 54.667 -82.5 71s-62.833 24.5 -95.5 24.5c-16 0 -31.667 -1.33301 -47 -4s-31 -7.83398 -47 -15.501
s-33.333 -18.5 -52 -32.5s-39.334 -32.333 -62.001 -55z" />
    <glyph glyph-name="c" unicode="c" horiz-adv-x="909" 
d="M842 348c-12.667 -60.667 -31.6689 -114.336 -57.002 -161.003s-55 -86 -89 -118s-71.333 -56.167 -112 -72.5s-82.667 -24.5 -126 -24.5c-51.333 0 -100.333 11.333 -147 34s-87.834 55 -123.501 97s-64.167 92.833 -85.5 152.5s-32 126.834 -32 201.501
c0 72 11.667 137.833 35 197.5s54.833 110.834 94.5 153.501s86 75.834 139 99.501s109.167 35.5 168.5 35.5c44.667 0 85.834 -6.66699 123.501 -20s70.167 -30.666 97.5 -51.999s48.833 -45 64.5 -71s23.5 -51.667 23.5 -77s-8 -45.833 -24 -61.5s-39 -23.5 -69 -23.5
c-15.333 0 -29.5 1.66699 -42.5 5s-24.333 9.33301 -34 18s-17.5 20.667 -23.5 36s-10 35 -12 59c-3.33301 39.333 -16.5 69.166 -39.5 89.499s-55.5 30.5 -97.5 30.5c-39.333 0 -74 -8.83301 -104 -26.5s-55.333 -41.667 -76 -72s-36.167 -65.666 -46.5 -105.999
s-15.5 -83.166 -15.5 -128.499c0 -53.333 6.83301 -104.833 20.5 -154.5s33.334 -93.834 59.001 -132.501s56.834 -69.667 93.501 -93s78.334 -35 125.001 -35c28 0 54.667 3.5 80 10.5s49.666 19.167 72.999 36.5s45.833 41.166 67.5 71.499s42.5 68.833 62.5 115.5z" />
    <glyph glyph-name="d" unicode="d" horiz-adv-x="1024" 
d="M711 103c-44.667 -46.667 -88.167 -80.168 -130.5 -100.501s-88.5 -30.5 -138.5 -30.5s-97.5 11.167 -142.5 33.5s-84.667 53.333 -119 93s-61.666 86.834 -81.999 141.501s-30.5 114.667 -30.5 180c0 131.333 41.333 251.333 124 360
c83.333 109.333 189.666 164 318.999 164c80 0 146.667 -25.667 200 -77v300c0 12 0.5 25.167 1.5 39.5s-0.166992 27.833 -3.5 40.5s-10 23.167 -20 31.5s-26.333 12.5 -49 12.5c-18 0 -41 -5.33301 -69 -16l-13 35l273 112h45v-1059
c0 -108.667 2.33301 -174.334 7 -197.001c5.33301 -23.333 13.5 -39.666 24.5 -48.999s23.833 -14 38.5 -14c17.333 0 41.333 5.66699 72 17l11 -35l-272 -113h-46v131zM711 172.999l0.000976562 472.002c-3.33301 38 -11.833 71.667 -25.5 101
s-30.334 54.166 -50.001 74.499s-41.334 35.666 -65.001 45.999s-47.5 15.5 -71.5 15.5c-35.333 0 -68 -9.16699 -98 -27.5s-56.167 -44.333 -78.5 -78s-39.833 -74 -52.5 -121s-19 -99.167 -19 -156.5c0 -67.333 8.16699 -127 24.5 -179s37.833 -95.667 64.5 -131
s57 -62 91 -80s68.667 -27 104 -27c60.667 0 119.334 30.333 176.001 91z" />
    <glyph glyph-name="e" unicode="e" horiz-adv-x="909" 
d="M218 571c0 -68 8.99805 -128.997 26.998 -182.997s42.333 -99.833 73 -137.5s66.167 -66.334 106.5 -86.001s82.833 -29.5 127.5 -29.5c60 0 112.167 16.5 156.5 49.5s81.5 89.5 111.5 169.5l31 -20c-7.33301 -44.667 -21.333 -88.667 -42 -132s-47.167 -82 -79.5 -116
s-70 -61.5 -113 -82.5s-89.833 -31.5 -140.5 -31.5c-54.667 0 -106.167 11.167 -154.5 33.5s-90.666 54 -126.999 95s-65.166 90.667 -86.499 149s-32 123.833 -32 196.5c0 79.333 10.833 149.833 32.5 211.5s51.5 113.834 89.5 156.501s82.833 75 134.5 97
s107.167 33 166.5 33c50.667 0 97.5 -8.83301 140.5 -26.5s80.167 -42.834 111.5 -75.501s55.833 -71.834 73.5 -117.501s26.5 -96.834 26.5 -153.501h-633zM217.998 629.003l424 0.000976562c-2.66699 58.667 -9.66699 100 -21 124
c-16.667 37.333 -41.5 66.666 -74.5 87.999s-67.5 32 -103.5 32c-27.333 0 -53.666 -5.5 -78.999 -16.5s-48.333 -27 -69 -48s-37.834 -46.5 -51.501 -76.5s-22.167 -64.333 -25.5 -103z" />
    <glyph glyph-name="f" unicode="f" horiz-adv-x="682" 
d="M422 844l0.000976562 -602c0 -85.333 9.33301 -139.333 28 -162c25.333 -29.333 58.333 -44 99 -44h83v-36h-547v36h41c26.667 0 50.834 6.5 72.501 19.5s36.834 31.167 45.501 54.5c8.66699 22 13 66 13 132v602h-178v72h178v60c0 90.667 14.667 168 44 232
c14.667 31.333 33.5 60 56.5 86s49.167 48.333 78.5 67s61.166 33.167 95.499 43.5s70.166 15.5 107.499 15.5c26 0 53.667 -4.33301 83 -13s56.5 -20.5 81.5 -35.5s45.667 -32.833 62 -53.5s24.5 -43 24.5 -67c0 -10 -2.33301 -19.833 -7 -29.5
s-10.834 -18.5 -18.501 -26.5s-16.5 -14.5 -26.5 -19.5s-20 -7.5 -30 -7.5c-8 0 -15.833 1 -23.5 3s-15.834 6.16699 -24.501 12.5s-18.167 15.166 -28.5 26.499s-21.833 26.333 -34.5 45s-24.5 34 -35.5 46s-22 21.5 -33 28.5s-22 11.833 -33 14.5s-22.833 4 -35.5 4
c-30.667 0 -56.667 -8.16699 -78 -24.5s-36.666 -41.833 -45.999 -76.5c-9.33301 -35.333 -14 -123.666 -14 -264.999v-66h236v-72h-236z" />
    <glyph glyph-name="g" unicode="g" horiz-adv-x="1024" 
d="M309 334c-56.667 28 -99.8311 66.167 -129.498 114.5s-44.5 102.5 -44.5 162.5c0 45.333 9 88.166 27 128.499s43.333 75.5 76 105.5s71.167 53.833 115.5 71.5s93.166 26.5 146.499 26.5c88 0 163.667 -21.333 227 -64h194c14.667 0 25.834 -0.166992 33.501 -0.5
s13.334 -1 17.001 -2s5.83398 -2.16699 6.50098 -3.5s1.66699 -3 3 -5c4 -6 6 -16.667 6 -32c0 -10 -0.166992 -18.167 -0.5 -24.5s-2.33301 -11.166 -6 -14.499s-10 -5.5 -19 -6.5s-22.5 -1.5 -40.5 -1.5h-119c37.333 -48.667 56 -110 56 -184
c0 -42 -8.5 -81.833 -25.5 -119.5s-41.167 -70.5 -72.5 -98.5s-69.333 -50.333 -114 -67s-94.334 -25 -149.001 -25c-44.667 0 -91 6.66699 -139 20c-30 -25.333 -50 -47.5 -60 -66.5s-15 -35.167 -15 -48.5c0 -10 2 -18.667 6 -26s13.5 -13.5 28.5 -18.5
s37.167 -9 66.5 -12s69.333 -5.16699 120 -6.5c68.667 -2 125.167 -4 169.5 -6s76.833 -4.66699 97.5 -8c30.667 -4 58.667 -12 84 -24s46.833 -27 64.5 -45s31.334 -38.667 41.001 -62s14.5 -48.666 14.5 -75.999c0 -75.333 -35.333 -146 -106 -212
c-104.667 -97.333 -240.334 -146 -407.001 -146c-46 0 -92.667 5 -140 15s-90.333 23.5 -129 40.5s-70.334 37.167 -95.001 60.5s-37 48.333 -37 75c0 10 1.5 20.167 4.5 30.5s7.66699 21.333 14 33s14.666 24.5 24.999 38.5l37.5 49c4.66699 6 38.667 42 102 108
c-34.667 20.667 -59.167 39.167 -73.5 55.5s-21.5 34.833 -21.5 55.5c0 12 1.66699 24.5 5 37.5s10.666 27.833 21.999 44.5s27.5 35.667 48.5 57s49.167 46.666 84.5 75.999zM483.003 895c-24 0 -46.665 -4.83105 -67.998 -14.498s-39.833 -24.334 -55.5 -44.001
s-28 -44.667 -37 -75s-13.5 -65.833 -13.5 -106.5c0 -45.333 4.5 -87 13.5 -125s22.167 -70.833 39.5 -98.5s38.333 -49.167 63 -64.5s52.667 -23 84 -23c25.333 0 48.666 4.66699 69.999 14s39.666 23.666 54.999 42.999s27.333 43.833 36 73.5s13 64.834 13 105.501
c0 44.667 -4.5 86.167 -13.5 124.5s-22 71.666 -39 99.999s-37.833 50.5 -62.5 66.5s-53 24 -85 24zM299.005 0.00195312c-63.333 -68.667 -94.998 -127.332 -94.998 -175.999c0 -22 9.16699 -42 27.5 -60s43.166 -33.333 74.499 -46s68.166 -22.5 110.499 -29.5
s87.166 -10.5 134.499 -10.5c60 0 112.167 6 156.5 18s80.833 27.5 109.5 46.5s50 40.333 64 64s21 47.167 21 70.5c0 17.333 -3.66699 32 -11 44s-20.5 21.833 -39.5 29.5s-45.167 13.667 -78.5 18s-76 7.16602 -128 8.49902c-75.333 2 -141.666 5 -198.999 9
s-106.333 8.66699 -147 14z" />
    <glyph glyph-name="h" unicode="h" horiz-adv-x="1024" 
d="M333 1422l0.00195312 -670.002c21.333 20.667 42.5 42.334 63.5 65.001s43.5 43.334 67.5 62.001s50.167 34 78.5 46s60.5 18 96.5 18c48.667 0 88.334 -10.5 119.001 -31.5s54.667 -49 72 -84s29.166 -74.833 35.499 -119.5s9.5 -90.667 9.5 -138v-363
c0 -30.667 0.5 -56.5 1.5 -77.5s5.66699 -38 14 -51s21.666 -22.833 39.999 -29.5s45.166 -11 80.499 -13v-36h-450v36h21c30 0 53.333 2.66699 70 8s29.334 14.5 38.001 27.5s14 30.5 16 52.5s3 49.667 3 83v363c0 28.667 -0.5 57.834 -1.5 87.501
s-5.83301 56.667 -14.5 81s-23.167 44.333 -43.5 60s-49.5 23.5 -87.5 23.5c-16.667 0 -33.334 -1.83301 -50.001 -5.5s-34.167 -10.334 -52.5 -20.001s-37.833 -23 -58.5 -40s-43.334 -38.833 -68.001 -65.5v-484c0 -32.667 0.666992 -58.167 2 -76.5
s3.83301 -32.5 7.5 -42.5s8.66699 -17.333 15 -22s14.5 -9.66699 24.5 -15c9.33301 -5.33301 22.333 -9.16602 39 -11.499s36.667 -3.5 60 -3.5v-36h-454v36c25.333 0 46.833 1.5 64.5 4.5s32.167 10.167 43.5 21.5s19.5 28.5 24.5 51.5s7.5 54.167 7.5 93.5v829
c0 103.333 -2.66699 167.666 -8 192.999c-4.66699 24 -12.167 40.333 -22.5 49s-24.166 13 -41.499 13c-15.333 0 -38 -5.33301 -68 -16l-14 35l274 112h46z" />
    <glyph glyph-name="i" unicode="i" horiz-adv-x="569" 
d="M297 1422c14 0 27.165 -2.66699 39.498 -8s23 -12.5 32 -21.5s16.167 -19.667 21.5 -32s8 -25.5 8 -39.5s-2.66699 -27.167 -8 -39.5s-12.5 -23.166 -21.5 -32.499s-19.667 -16.666 -32 -21.999s-25.5 -8 -39.5 -8s-27.167 2.66699 -39.5 8
s-23.166 12.666 -32.499 21.999s-16.666 20.166 -21.999 32.499s-8 25.5 -8 39.5s2.66699 27.167 8 39.5s12.5 23 21.5 32s19.833 16.167 32.5 21.5s26 8 40 8zM379.998 943l0.00195312 -736.001c0 -29.333 1 -53.166 3 -71.499s5 -33.166 9 -44.499
s9.16699 -19.833 15.5 -25.5s13.5 -10.834 21.5 -15.501c17.333 -9.33301 47.333 -14 90 -14v-36h-445v36c22.667 0 41.167 1 55.5 3s26 5.33301 35 10s16 10.5 21 17.5s9.83301 15.5 14.5 25.5c9.33301 20.667 14 59 14 115v353c0 58 -1 103.667 -3 137
s-5.5 58.333 -10.5 75s-12.333 27.167 -22 31.5s-21.834 6.5 -36.501 6.5c-18.667 0 -41.334 -5 -68.001 -15l-14 36l276 112h44z" />
    <glyph glyph-name="j" unicode="j" horiz-adv-x="569" 
d="M296 1423c14 0 27.333 -2.66699 40 -8s23.667 -12.666 33 -21.999s16.666 -20.333 21.999 -33s8 -26 8 -40s-2.66699 -27.167 -8 -39.5s-12.666 -23.166 -21.999 -32.499s-20.333 -16.666 -33 -21.999s-26 -8 -40 -8s-27.167 2.66699 -39.5 8
s-23.166 12.666 -32.499 21.999s-16.666 20.166 -21.999 32.499s-8 25.5 -8 39.5s2.66699 27.333 8 40s12.666 23.667 21.999 33s20.166 16.666 32.499 21.999s25.5 8 39.5 8zM382 943l-0.00292969 -921.999c0 -79.333 -8.83301 -148 -26.5 -206s-42.5 -106 -74.5 -144
s-70 -66.333 -114 -85s-92.333 -28 -145 -28c-31.333 0 -58.166 3.16699 -80.499 9.5s-40.833 14.333 -55.5 24s-25.5 20.5 -32.5 32.5s-10.5 23.667 -10.5 35c0 12 2.16699 23.167 6.5 33.5s10.333 19.333 18 27s16.334 13.667 26.001 18s20.167 6.5 31.5 6.5
c8 0 15.167 -0.166992 21.5 -0.5s13.5 -2.33301 21.5 -6s17.833 -9.83398 29.5 -18.501s26.834 -21.334 45.501 -38.001c32.667 -29.333 60 -44 82 -44c15.333 0 30.833 6 46.5 18s27.167 33 34.5 63c3.33301 14.667 6 37.5 8 68.5s3 70.833 3 119.5v652
c0 59.333 -1 105.833 -3 139.5s-5.66699 58.834 -11 75.501s-12.666 27 -21.999 31s-21.333 6 -36 6c-18.667 0 -41.334 -5 -68.001 -15l-14 36l276 112h43z" />
    <glyph glyph-name="k" unicode="k" horiz-adv-x="1024" 
d="M335 1422l-0.000976562 -908.999l233 210l51 47c12.667 12 22.167 21.833 28.5 29.5s10.333 13.834 12 18.501s2.5 9.66699 2.5 15c0 13.333 -5.5 24.833 -16.5 34.5s-29.167 15.167 -54.5 16.5v32h398v-32c-28 -0.666992 -52.833 -2.83398 -74.5 -6.50098
s-42.334 -9.5 -62.001 -17.5s-39 -18.833 -58 -32.5s-39.5 -30.5 -61.5 -50.5l-235 -217l235 -297c64.667 -82 108.667 -134 132 -156c14.667 -14.667 27.5 -26.5 38.5 -35.5s22.333 -16.167 34 -21.5s25 -9 40 -11s34.5 -3 58.5 -3v-36h-445v36
c25.333 0.666992 42.5 4.5 51.5 11.5s13.5 16.833 13.5 29.5c0 16 -13.333 40.667 -40 74l-281 356v-301c0 -30.667 1 -55.334 3 -74.001s5 -33.5 9 -44.5s9 -19.167 15 -24.5s13 -10 21 -14c14 -7.33301 47.333 -11.666 100 -12.999v-36h-466v36c31.333 0 56.833 2 76.5 6
s35.167 11.833 46.5 23.5s19 28.334 23 50.001s6 50.167 6 85.5v834c0 53.333 -0.5 96.166 -1.5 128.499s-2.83301 54.166 -5.5 65.499c-5.33301 24 -13.166 40.5 -23.499 49.5s-24.166 13.5 -41.499 13.5c-13.333 0 -34.333 -5.66699 -63 -17l-17 35l272 112h46z" />
    <glyph glyph-name="l" unicode="l" horiz-adv-x="569" 
d="M379 1422l-0.000976562 -1215c0 -29.333 1 -53.166 3 -71.499s5 -33 9 -44s9.16699 -19.5 15.5 -25.5s14.166 -11.333 23.499 -16c16 -9.33301 48.333 -14 97 -14v-36h-449v36c30 0 53.833 2.33301 71.5 7s31.334 13.334 41.001 26.001s15.834 30 18.501 52
s4 50.667 4 86v832c0 52 -0.5 93.833 -1.5 125.5s-2.83301 53.167 -5.5 64.5c-5.33301 24 -13 40.333 -23 49s-23 13 -39 13c-18 0 -40 -5.33301 -66 -16l-17 35l273 112h45z" />
    <glyph glyph-name="m" unicode="m" horiz-adv-x="1593" 
d="M336 748c66.667 66.667 105.997 104.999 117.997 114.999c30 25.333 62.333 45 97 59s69 21 103 21c58 0 107.5 -16.5 148.5 -49.5s68.5 -81.5 82.5 -145.5c68.667 79.333 126.667 131.666 174 156.999s96 38 146 38c33.333 0 64.666 -5.66699 93.999 -17
s54.833 -30.166 76.5 -56.499s38.834 -61.5 51.501 -105.5s19 -98.333 19 -163v-394c0 -30 0.833008 -55.833 2.5 -77.5s6.83398 -39.5 15.501 -53.5s22.334 -24.167 41.001 -30.5s45 -9.5 79 -9.5v-36h-452v36h19c33.333 0 60.333 5.33301 81 16s35.334 30 44.001 58
c2.66699 10 4 42.333 4 97v394c0 44 -3.33301 80.167 -10 108.5s-16.5 51 -29.5 68s-28.833 28.833 -47.5 35.5s-40.334 10 -65.001 10c-18 0 -35.5 -2 -52.5 -6s-34.833 -11 -53.5 -21s-38.834 -23.167 -60.501 -39.5s-45.5 -36.833 -71.5 -61.5l2 -488
c0 -32.667 0.666992 -58.167 2 -76.5s3.83301 -32.333 7.5 -42s8.83398 -16.834 15.501 -21.501s15 -10 25 -16c9.33301 -5.33301 22.333 -9.16602 39 -11.499s36.667 -3.5 60 -3.5v-36h-463v36c36 0 64.167 2.5 84.5 7.5s35.166 14 44.499 27s15 30.5 17 52.5s3 50 3 84
v394c0 42.667 -3.83301 78.334 -11.5 107.001s-18.5 51.667 -32.5 69s-30.5 29.833 -49.5 37.5s-39.833 11.5 -62.5 11.5c-22 0 -44.667 -4.16699 -68 -12.5s-45.5 -18.666 -66.5 -30.999s-40.167 -26 -57.5 -41s-31.666 -29.5 -42.999 -43.5v-491
c0 -31.333 1 -56.166 3 -74.499s5 -33 9 -44s9.16699 -19.167 15.5 -24.5s13.5 -10.333 21.5 -15c16.667 -8.66699 50 -13 100 -13v-36h-453v36c30.667 0 55.167 2.33301 73.5 7s32.333 13.167 42 25.5s16 29.666 19 51.999s4.5 51.166 4.5 86.499v350
c0 59.333 -1 105.833 -3 139.5s-5.66699 59 -11 76s-12.666 27.5 -21.999 31.5s-21.333 6 -36 6c-18.667 0 -41 -5 -67 -15l-15 36l276 112h43v-195z" />
    <glyph glyph-name="n" unicode="n" horiz-adv-x="1024" 
d="M331 749c107.333 129.333 209.663 194.001 306.996 194.001c34 0 65.333 -5.66699 94 -17s53.667 -30.333 75 -57s38 -62 50 -106s18 -99 18 -165v-391c0 -39.333 2.16699 -70.333 6.5 -93s11.833 -39.834 22.5 -51.501s25 -19 43 -22s40.667 -4.5 68 -4.5v-36h-453v36
h19c30 0 53.5 2.66699 70.5 8s29.833 14.5 38.5 27.5s14.167 30.5 16.5 52.5s3.5 49.667 3.5 83v375c0 83.333 -10.833 143.833 -32.5 181.5s-58.167 56.5 -109.5 56.5c-79.333 0 -158.333 -43.333 -237 -130v-483c0 -60.667 3.66699 -99 11 -115
c4.66699 -10 9.83398 -18.667 15.501 -26s13.334 -13.166 23.001 -17.499s22.334 -7.5 38.001 -9.5s36.167 -3 61.5 -3v-36h-453v36h20c24 0 43.667 2.66699 59 8s27.5 14.666 36.5 27.999s15.167 30.833 18.5 52.5s5 49.167 5 82.5v340c0 108.667 -2.66699 175.667 -8 201
c-4.66699 24 -12.167 40.333 -22.5 49s-24.166 13 -41.499 13c-18.667 0 -41 -5 -67 -15l-15 36l276 112h43v-194z" />
    <glyph glyph-name="o" unicode="o" horiz-adv-x="1024" 
d="M512 943c64.667 0 124 -12.6611 178 -37.9941s100.5 -59.333 139.5 -102s69.333 -92.334 91 -149.001s32.5 -116.334 32.5 -179.001c0 -66 -11.167 -129.167 -33.5 -189.5s-53.5 -113.833 -93.5 -160.5s-87.667 -83.834 -143 -111.501s-116 -41.5 -182 -41.5
c-64.667 0 -123.5 13.333 -176.5 40s-98.5 62.167 -136.5 106.5s-67.333 95.166 -88 152.499s-31 116.666 -31 177.999c0 62 10.667 122.667 32 182s51.5 112.166 90.5 158.499s85.667 83.5 140 111.5s114.5 42 180.5 42zM481 878.006
c-29.333 0 -57.5 -6.16504 -84.5 -18.498s-51 -32.333 -72 -60s-37.833 -63.334 -50.5 -107.001s-19 -96.834 -19 -159.501c0 -64.667 6.83301 -126.667 20.5 -186s33 -111.5 58 -156.5s55.333 -80.833 91 -107.5s75.5 -40 119.5 -40c32 0 61.5 6.16699 88.5 18.5
s50.5 32.333 70.5 60s35.667 64.167 47 109.5s17 101 17 167s-6.33301 128 -19 186s-31.167 108.833 -55.5 152.5s-54.333 78.167 -90 103.5s-76.167 38 -121.5 38z" />
    <glyph glyph-name="p" unicode="p" horiz-adv-x="1024" 
d="M-2 825l281.998 114.001h38v-214c24 40 47.833 74 71.5 102s47.5 50.5 71.5 67.5s48.5 29.333 73.5 37s50.5 11.5 76.5 11.5c52 0 99.167 -12 141.5 -36s78.333 -56.5 108 -97.5s52.667 -88.833 69 -143.5s24.5 -113 24.5 -175c0 -69.333 -9.83301 -135.5 -29.5 -198.5
s-47.667 -118.167 -84 -165.5s-80.166 -85 -131.499 -113s-109 -42 -173 -42c-22 0 -42.333 1 -61 3s-36.5 6 -53.5 12s-33.833 14.167 -50.5 24.5s-34.334 24.166 -53.001 41.499v-279c0 -32.667 0.833008 -58.5 2.5 -77.5s4.5 -33.667 8.5 -44s9.33301 -18.166 16 -23.499
s14.667 -10.333 24 -15c18.667 -10 53.334 -15 104.001 -15v-37h-480v37h25c26.667 0 51.334 3.66699 74.001 11s39 22.666 49 45.999c7.33301 16.667 11 58 11 124v866c0 35.333 -1.16699 63.5 -3.5 84.5s-6.5 37.167 -12.5 48.5s-14.333 18.833 -25 22.5s-24 5.5 -40 5.5
c-14.667 0 -35 -4.66699 -61 -14zM317.998 666.001l-0.00195312 -341.999c0 -74.667 3 -123.334 9 -146.001c4.66699 -19.333 12.834 -37.833 24.501 -55.5s26.5 -33.167 44.5 -46.5s38.5 -24 61.5 -32s48.167 -12 75.5 -12c38.667 0 73.167 9.16699 103.5 27.5
s55.833 43.666 76.5 75.999s36.334 70.833 47.001 115.5s16 93.334 16 146.001c0 57.333 -5.83301 110.5 -17.5 159.5s-28.167 91.333 -49.5 127s-47 63.667 -77 84s-63.333 30.5 -100 30.5c-16.667 0 -32.667 -2.66699 -48 -8s-31.333 -13.5 -48 -24.5
s-34.5 -24.833 -53.5 -41.5z" />
    <glyph glyph-name="q" unicode="q" horiz-adv-x="1024" 
d="M875 943l-0.000976562 -1178c0 -30 1 -54 3 -72s5 -32.167 9 -42.5s9 -18 15 -23s13.333 -9.83301 22 -14.5c17.333 -9.33301 50.666 -14 99.999 -14v-37h-462v37h19c22.667 0 42.167 1.5 58.5 4.5s29.833 10 40.5 21s18.334 27.667 23.001 50s7 52.5 7 90.5v394
c-60.667 -71.333 -113.667 -120.666 -159 -147.999c-45.333 -26 -92.333 -39 -141 -39c-44 0 -86.5 10.5 -127.5 31.5s-77.333 50.833 -109 89.5s-57.167 85.334 -76.5 140.001s-29 116 -29 184c0 77.333 12.5 148.333 37.5 213s58.833 120.167 101.5 166.5
s92.667 82.333 150 108s118 38.5 182 38.5c76.667 0 140.334 -21.333 191.001 -64c19.333 9.33301 38.333 19.333 57 30s36.667 22 54 34h34zM709.999 221.998l0.000976562 430c0 32 -3.83301 61.5 -11.5 88.5s-19.667 50.333 -36 70s-37.333 35 -63 46
s-56.167 16.5 -91.5 16.5c-36.667 0 -71.5 -7.83301 -104.5 -23.5s-61.833 -39.334 -86.5 -71.001s-44.334 -71.5 -59.001 -119.5s-22 -104.333 -22 -169c0 -62 7.33301 -116.667 22 -164s34.667 -86.666 60 -117.999s54.833 -55 88.5 -71s69.5 -24 107.5 -24
c40 0 75.167 8.5 105.5 25.5s60.5 44.833 90.5 83.5z" />
    <glyph glyph-name="r" unicode="r" horiz-adv-x="682" 
d="M332 943l0.000976562 -206c77.333 137.333 156 206 236 206c18 0 34.667 -3 50 -9s28.833 -14.167 40.5 -24.5s20.667 -22.166 27 -35.499s9.5 -27.333 9.5 -42c0 -26 -8.66699 -48 -26 -66s-38 -27 -62 -27c-11.333 0 -24 3.66699 -38 11s-27.833 15.166 -41.5 23.499
l-37.5 23.5c-11.333 7.33301 -20 11 -26 11c-8.66699 0 -18.334 -3.83301 -29.001 -11.5s-21.667 -18.334 -33 -32.001s-23 -30 -35 -49s-23.667 -39.833 -35 -62.5v-439c0 -27.333 1.66699 -52 5 -74s10.5 -40.667 21.5 -56s27.167 -27.166 48.5 -35.499
s49.666 -12.5 84.999 -12.5v-36h-469v36c29.333 0 53.333 2 72 6s33.334 12 44.001 24s18 29.167 22 51.5s6 51.833 6 88.5v355c0 108 -2.33301 171.333 -7 190c-8.66699 39.333 -31 59 -67 59c-20.667 0 -44 -5 -70 -15l-10 36l277 112h42z" />
    <glyph glyph-name="s" unicode="s" horiz-adv-x="797" 
d="M656 943l-0.000976562 -311.999h-33c-12.667 49.333 -27 90.166 -43 122.499s-34.167 58.166 -54.5 77.499s-43 33 -68 41s-52.833 12 -83.5 12c-23.333 0 -44.5 -3.5 -63.5 -10.5s-35.333 -16 -49 -27s-24.334 -23.667 -32.001 -38s-11.5 -28.833 -11.5 -43.5
c0 -18.667 2.66699 -36 8 -52s16.5 -32.5 33.5 -49.5s41.333 -35.167 73 -54.5s74.167 -42 127.5 -68c49.333 -24 90.833 -47.667 124.5 -71s61 -46.666 82 -69.999s36 -47.5 45 -72.5s13.5 -50.833 13.5 -77.5c0 -42 -8.83301 -80.167 -26.5 -114.5
s-40.834 -63.5 -69.501 -87.5s-61.334 -42.667 -98.001 -56s-74 -20 -112 -20c-28 0 -58 2.33301 -90 7s-66 12.334 -102 23.001c-11.333 3.33301 -21.333 5.83301 -30 7.5s-16.667 2.5 -24 2.5c-14.667 0 -26.667 -8.66699 -36 -26h-33v327h33
c9.33301 -46.667 23.333 -87.667 42 -123s40.5 -64.666 65.5 -87.999s52.667 -41 83 -53s61.5 -18 93.5 -18c22.667 0 43.5 3.66699 62.5 11s35.5 17.166 49.5 29.499s24.833 26.833 32.5 43.5s11.5 34.667 11.5 54c0 22.667 -3.33301 43.167 -10 61.5
s-19 36.166 -37 53.499s-42.667 35.5 -74 54.5s-71.666 40.833 -120.999 65.5c-49.333 24 -89.166 46.333 -119.499 67s-54.166 41.5 -71.499 62.5s-29 43 -35 66s-9 49.167 -9 78.5c0 37.333 6.83301 72.166 20.5 104.499s32.834 60.333 57.501 84s54 42.334 88 56.001
s71.333 20.5 112 20.5c12.667 0 29 -2 49 -6s40.167 -8.33301 60.5 -13l55.5 -13c16.667 -4 28 -6 34 -6c10.667 0 19 2.33301 25 7s13 15 21 31h33z" />
    <glyph glyph-name="t" unicode="t" horiz-adv-x="569" 
d="M330 1217l0.00195312 -301.001h214v-70h-214v-594c0 -30 2.33301 -54.833 7 -74.5s11 -35.167 19 -46.5s17.5 -19.166 28.5 -23.499s23.167 -6.5 36.5 -6.5c22 0 43.333 6.83301 64 20.5s36.667 33.834 48 60.501h39c-12 -32.667 -26.5 -61.334 -43.5 -86.001
s-35.5 -45.167 -55.5 -61.5s-41.333 -28.666 -64 -36.999s-45.334 -12.5 -68.001 -12.5c-15.333 0 -30.833 2.16699 -46.5 6.5s-30.334 10.666 -44.001 18.999s-26.167 18.5 -37.5 30.5s-20.333 26 -27 42c-14 32 -21 81 -21 147v616h-145v33
c36.667 14.667 74.167 39.5 112.5 74.5s72.5 76.5 102.5 124.5c7.33301 12.667 16.5 30.5 27.5 53.5s23.167 51.5 36.5 85.5h31z" />
    <glyph glyph-name="u" unicode="u" horiz-adv-x="1024" 
d="M867 916v-555c0 -107.333 2.33301 -172.333 7 -195c5.33301 -23.333 13.5 -39.666 24.5 -48.999s23.833 -14 38.5 -14c20 0 43.333 5.66699 70 17l14 -35l-274 -113h-45v194c-79.333 -85.333 -139.333 -139 -180 -161c-41.333 -22 -85 -33 -131 -33
c-51.333 0 -95.666 14.5 -132.999 43.5s-63.666 67.5 -78.999 115.5c-14.667 46 -22 112 -22 198v409c0 30 -2.5 54.333 -7.5 73s-13.167 33 -24.5 43s-26.166 16.667 -44.499 20s-40.5 5 -66.5 5h-12v37h321v-613c0 -44 4.16699 -79.667 12.5 -107s19.5 -48.5 33.5 -63.5
s30.167 -25 48.5 -30s37.5 -7.5 57.5 -7.5c14 0 29.167 2 45.5 6s33.666 11 51.999 21s38.166 23.333 59.499 40s44.666 37.667 69.999 63v519c0 26 -2 47.5 -6 64.5s-11.5 30.667 -22.5 41s-26 17.666 -45 21.999s-43.5 6.83301 -73.5 7.5v37h312z" />
    <glyph glyph-name="v" unicode="v" horiz-adv-x="1024" 
d="M17 916h430.999v-37h-28c-26 0 -45.833 -6.33301 -59.5 -19s-20.5 -29.667 -20.5 -51c0 -23.333 7 -51 21 -83l213 -506l214 525c15.333 38 23 66.333 23 85c0 19.333 -8.16699 32.333 -24.5 39s-43.166 10 -80.499 10v37h299v-37c-21.333 -2 -38.833 -5.66699 -52.5 -11
s-25.167 -13 -34.5 -23s-17.666 -22.167 -24.999 -36.5s-15 -31.166 -23 -50.499l-325 -786h-41l-327 773c-10 24 -19.5 43.833 -28.5 59.5s-19.333 28.5 -31 38.5s-25.334 17.667 -41.001 23s-35.5 9.66602 -59.5 12.999v37z" />
    <glyph glyph-name="w" unicode="w" horiz-adv-x="1479" 
d="M13 916l384.002 -0.00390625v-37c-35.333 -2.66699 -58.5 -9 -69.5 -19s-16.5 -24.333 -16.5 -43c0 -20 5.66699 -45 17 -75l196 -527l197 429l-52 135c-6.66699 16.667 -13.5 31.167 -20.5 43.5s-15.833 22.5 -26.5 30.5s-23.834 14 -39.501 18s-35.167 6.66699 -58.5 8
v37h436v-37c-40.667 -2 -71.167 -8.33301 -91.5 -19s-30.5 -30 -30.5 -58c0 -14.667 2.66699 -28.334 8 -41.001l208 -526l193 507c13.333 36 20 64.667 20 86c0 12.667 -6.5 24 -19.5 34s-38.5 15.667 -76.5 17v37h289v-37
c-58.667 -9.33301 -101.334 -48.666 -128.001 -117.999l-306 -789h-41l-229 585l-267 -585h-37l-294 770c-9.33301 24.667 -18.5 44.834 -27.5 60.501s-18.833 28.334 -29.5 38.001s-23 17.334 -37 23.001s-31 10.834 -51 15.501v37z" />
    <glyph glyph-name="x" unicode="x" horiz-adv-x="1024" 
d="M27 916l430.997 -0.00195312v-37c-28 0 -47.333 -4.66699 -58 -14s-16 -21.666 -16 -36.999c0 -6.66699 1.33301 -13.5 4 -20.5s6.83398 -15.167 12.501 -24.5s12.834 -20.333 21.501 -33l30 -46l65 -104l75 104c48 66 72 107.667 72 125c0 14 -5.66699 25.833 -17 35.5
s-29.666 14.5 -54.999 14.5v37h310v-37c-19.333 -1.33301 -36.833 -4.83301 -52.5 -10.5s-31.667 -15 -48 -28s-33.833 -30.5 -52.5 -52.5s-40.667 -50 -66 -84l-125 -167l228 -328c28.667 -41.333 52.167 -73.5 70.5 -96.5s34.666 -40 48.999 -51s28.5 -17.833 42.5 -20.5
s31 -4.33398 51 -5.00098v-36h-432v36c25.333 0 46.5 5 63.5 15s25.5 24 25.5 42c0 14.667 -21.333 53.334 -64 116.001l-134 196l-147 -196c-45.333 -60 -68 -96 -68 -108c0 -16 7.5 -30.5 22.5 -43.5s37.5 -20.167 67.5 -21.5v-36h-299v36c14 2 26.833 5.33301 38.5 10
s24.334 13.167 38.001 25.5s29.334 29.333 47.001 51l67.5 86.5l192 255l-174 252c-25.333 36.667 -47 65.834 -65 87.501s-34.667 38 -50 49s-30.833 18.167 -46.5 21.5s-33.834 5 -54.501 5v37z" />
    <glyph glyph-name="y" unicode="y" horiz-adv-x="1024" 
d="M12 916l427.001 0.00292969v-37h-21c-30 0 -52.5 -6.5 -67.5 -19.5s-22.5 -29.167 -22.5 -48.5c0 -26 11 -62 33 -108l223 -462l205 506c11.333 28 17 55 17 81c0 8 -1 15 -3 21s-6.16699 11.333 -12.5 16s-15.666 8.16699 -27.999 10.5s-28.5 3.5 -48.5 3.5v37h298v-37
c-17.333 -2 -31.666 -4.5 -42.999 -7.5s-21.833 -9 -31.5 -18s-19 -22.333 -28 -40s-19.833 -41.834 -32.5 -72.501l-373 -914c-18 -44 -39.333 -82.833 -64 -116.5s-50.667 -61.667 -78 -84s-55.5 -39.333 -84.5 -51s-56.833 -17.5 -83.5 -17.5
c-20 0 -38.167 3.16699 -54.5 9.5s-30.5 14.666 -42.5 24.999s-21.333 22.166 -28 35.499s-10 27.333 -10 42c0 28 9.16699 50.5 27.5 67.5s43.5 25.5 75.5 25.5c7.33301 0 18.166 -2 32.499 -6l44 -12.5c15 -4.33301 28.5 -8.5 40.5 -12.5s19.667 -6 23 -6
c10 0 20.5 2.33301 31.5 7s22.333 12.667 34 24s23.5 26.833 35.5 46.5s24 44.167 36 73.5l65 159l-329 691c-3.33301 7.33301 -8.83301 17.166 -16.5 29.499s-15.834 24.833 -24.501 37.5s-17.334 24.334 -26.001 35.001s-16 18 -22 22c-14 10.667 -38.667 20 -74 28v37z
" />
    <glyph glyph-name="z" unicode="z" horiz-adv-x="909" 
d="M860 281l-0.00195312 -281h-819v36l608 810h-300c-33.333 0 -59.833 -1 -79.5 -3s-35.5 -5.16699 -47.5 -9.5s-21.5 -10.333 -28.5 -18s-13.833 -17.5 -20.5 -29.5c-17.333 -32 -27.666 -73.333 -30.999 -124h-40v254h774v-37l-614 -812h334c36 0 65.333 1.33301 88 4
s41.334 7.16699 56.001 13.5s26.167 14.5 34.5 24.5s16.5 22.333 24.5 37c10.667 20.667 19.667 65.667 27 135h34z" />
    <glyph glyph-name="braceleft" unicode="{" horiz-adv-x="983" 
d="M841 -97l0.00195312 -35.0029c-55.333 7.33301 -106 23 -152 47s-85.5 53.5 -118.5 88.5s-58.833 74 -77.5 117s-28 87.167 -28 132.5c0 22 2.33301 48 7 78s10 60 16 90s11.333 58.333 16 85s7 47.667 7 63c0 23.333 -5.33301 46.666 -16 69.999
s-25.834 44.666 -45.501 63.999s-43.5 35.833 -71.5 49.5s-59.667 22.834 -95 27.501v41c35.333 4.66699 67.166 13.667 95.499 27s52.333 29.666 72 48.999s34.667 40.666 45 63.999s15.5 47 15.5 71c0 16 -2.33301 37.167 -7 63.5s-10 54.333 -16 84
s-11.333 59.5 -16 89.5s-7 56.333 -7 79c0 45.333 9.33301 89.5 28 132.5s44.5 81.833 77.5 116.5s72.5 64 118.5 88s96.667 39.667 152 47v-35c-39.333 -9.33301 -73.166 -21.833 -101.499 -37.5s-51.666 -33.667 -69.999 -54s-32 -42.333 -41 -66
s-13.5 -48.167 -13.5 -73.5c0 -17.333 2.33301 -40 7 -68s9.83398 -57.167 15.501 -87.5s10.834 -60.166 15.501 -89.499s7 -54.333 7 -75c0 -33.333 -6.16699 -66.666 -18.5 -99.999s-30.833 -65.166 -55.5 -95.499s-55.5 -58.166 -92.5 -83.499
s-79.833 -46.666 -128.5 -63.999c48 -17.333 90.333 -39.166 127 -65.499s67.5 -55 92.5 -86s43.833 -63.333 56.5 -97s19 -66.834 19 -99.501c0 -20.667 -2.33301 -45.667 -7 -75s-9.83398 -59.166 -15.501 -89.499s-10.834 -59.5 -15.501 -87.5s-7 -50.667 -7 -68
c0 -25.333 4.5 -49.833 13.5 -73.5s22.667 -45.667 41 -66s41.666 -38.333 69.999 -54s62.166 -28.5 101.499 -38.5z" />
    <glyph glyph-name="bar" unicode="|" horiz-adv-x="410" 
d="M244 1742v-1864h-83v1864h83z" />
    <glyph glyph-name="braceright" unicode="}" horiz-adv-x="976" 
d="M768 814l-0.000976562 -31.9961c-144 -37.333 -218.667 -106.666 -224 -207.999c0 -42.667 8 -90.667 24 -144v-40c16 -42.667 24 -82.667 24 -120c-26.667 -208 -152 -336 -376 -384v40c138.667 26.667 216 106.667 232 240c0 32 -5.33301 72 -16 120
c-5.33301 21.333 -8 34.666 -8 39.999c-10.667 32 -16 80 -16 144c10.667 149.333 104 258.666 280 327.999v8c-176 53.333 -269.333 162.666 -280 327.999c0 32 2.66699 77.333 8 136c0 10.667 2.66699 18.667 8 24c0 5.33301 2.66699 18.666 8 39.999
c10.667 48 16 88 16 120c-21.333 133.333 -98.666 210.666 -231.999 231.999v40c224 -48 349.333 -176 376 -384c0 -32 -5.33301 -74.667 -16 -128c-5.33301 -21.333 -8 -37.333 -8 -48c-16 -48 -24 -96 -24 -144c5.33301 -106.667 80 -176 224 -208z" />
    <glyph glyph-name="asciitilde" unicode="~" horiz-adv-x="1108" 
d="M417 1287l-0.00195312 45c44 -1.33301 83.167 -8.66602 117.5 -21.999s63.333 -31 87 -53s41.667 -47.5 54 -76.5s18.5 -60.167 18.5 -93.5c0 -15.333 -1.16699 -31.333 -3.5 -48s-6.16602 -33.667 -11.499 -51s-16.833 -48.833 -34.5 -94.5l-71.5 -179.5
c-42.667 -104.667 -64 -177.667 -64 -219c0 -46.667 14.333 -86 43 -118s75.334 -54.667 140.001 -68v-44c-45.333 2 -85.333 9.66699 -120 23s-63.667 30.666 -87 51.999s-41 45.666 -53 72.999s-18 56 -18 86c0 28 4.66699 58 14 90c10 34.667 23.5 74.667 40.5 120
s37.833 96.333 62.5 153s42.834 104.834 54.501 144.501s17.5 71.167 17.5 94.5c0 50 -15.833 92 -47.5 126s-77.834 54 -138.501 60z" />
    <glyph glyph-name="uni1800" unicode="&#x1800;" horiz-adv-x="685" 
d="M645 1016c0 -39.333 -6.50488 -79.498 -19.5049 -120.498s-31 -82.333 -54 -124s-49.833 -83.5 -80.5 -125.5s-63.667 -84 -99 -126c-38 -44.667 -70.333 -88.334 -97 -131.001s-48.667 -81.834 -66 -117.501s-30.166 -66.834 -38.499 -93.501
s-12.5 -46.334 -12.5 -59.001c-0.666992 -18.667 -4.66699 -33.334 -12 -44.001s-14.666 -16 -21.999 -16c-15.333 0 -26.333 4.66699 -33 14s-10 25 -10 47s5 48 15 78s24 62.5 42 97.5s39.5 72 64.5 111s52.833 78.5 83.5 118.5c32 42 60.667 81.5 86 118.5
s46.833 74.667 64.5 113s31 78.833 40 121.5s13.5 90.667 13.5 144c0 56 -14.833 100.333 -44.5 133s-72.167 49 -127.5 49c-27.333 0 -53.166 -3.66699 -77.499 -11s-45.5 -18 -63.5 -32s-32.333 -31.333 -43 -52s-16 -44.334 -16 -71.001c0 -14.667 3 -30.167 9 -46.5
s14.167 -31.666 24.5 -45.999s22.166 -27.333 35.499 -39s27.666 -20.167 42.999 -25.5c7.33301 -3.33301 15 -9.33301 23 -18s12 -17.667 12 -27c0 -8.66699 -2.16699 -15.667 -6.5 -21s-9.66602 -9.5 -15.999 -12.5s-13.5 -5.16699 -21.5 -6.5s-15.667 -2 -23 -2
c-26.667 0 -51 8 -73 24s-40.667 36 -56 60s-27.333 50.333 -36 79s-13 56 -13 82c0 42.667 7.66699 81.834 23 117.501s36.333 66.5 63 92.5s58.334 46.167 95.001 60.5s76 21.5 118 21.5c46.667 0 88.834 -6.83301 126.501 -20.5s69.834 -33.667 96.501 -60
s47.167 -59.166 61.5 -98.499s21.5 -84.666 21.5 -135.999z" />
    <glyph glyph-name="uni1801" unicode="&#x1801;" horiz-adv-x="2048" 
d="M1976 785c0 -36 -11.502 -66.167 -34.502 -90.5s-55.167 -36.5 -96.5 -36.5s-74.166 12 -98.499 36s-37.166 54.333 -38.499 91c-1.33301 36 9.16699 65.833 31.5 89.5s54.5 35.167 96.5 34.5c44 -0.666992 78.333 -12.5 103 -35.5s37 -52.5 37 -88.5zM1419 785
c0 -36 -11.502 -66.167 -34.502 -90.5s-55.167 -36.5 -96.5 -36.5s-74.166 12 -98.499 36s-37.166 54.333 -38.499 91c-1.33301 36 9.16699 65.833 31.5 89.5s54.5 35.167 96.5 34.5c44 -0.666992 78.333 -12.5 103 -35.5s37 -52.5 37 -88.5zM864.996 785
c0 -36 -11.502 -66.167 -34.502 -90.5s-55.167 -36.5 -96.5 -36.5s-74.166 12 -98.499 36s-37.166 54.333 -38.499 91c-1.33301 36 9.16699 65.833 31.5 89.5s54.5 35.167 96.5 34.5c44 -0.666992 78.333 -12.5 103 -35.5s37 -52.5 37 -88.5zM307.994 785
c0 -36 -11.502 -66.167 -34.502 -90.5s-55.167 -36.5 -96.5 -36.5s-74.166 12 -98.499 36s-37.166 54.333 -38.499 91c-1.33301 36 9.16699 65.833 31.5 89.5s54.5 35.167 96.5 34.5c44 -0.666992 78.333 -12.5 103 -35.5s37 -52.5 37 -88.5z" />
    <glyph glyph-name="uni1802" unicode="&#x1802;" horiz-adv-x="785" 
d="M523 822v-28l-113 -232l-113 232v28l113 249z" />
    <glyph glyph-name="uni1803" unicode="&#x1803;" horiz-adv-x="1289" 
d="M1029 822v-28l-113 -232l-113 232v28l113 249zM523 822v-28l-113 -232l-113 232v28l113 249z" />
    <glyph glyph-name="uni1804" unicode="&#x1804;" horiz-adv-x="785" 
d="M515 1071c0 -33.333 -9.33301 -59.832 -28 -79.499s-46 -29.834 -82 -30.501c-37.333 -0.666992 -67 9 -89 29s-33 47 -33 81c0 34.667 10.833 62.5 32.5 83.5s51.5 31.5 89.5 31.5c36 0 63.333 -10.5 82 -31.5s28 -48.833 28 -83.5zM515 561.001
c0 -33.333 -9.33301 -59.832 -28 -79.499s-46 -29.834 -82 -30.501c-37.333 -0.666992 -67 9 -89 29s-33 47 -33 81c0 34.667 10.833 62.5 32.5 83.5s51.5 31.5 89.5 31.5c36 0 63.333 -10.5 82 -31.5s28 -48.833 28 -83.5z" />
    <glyph glyph-name="uni1805" unicode="&#x1805;" horiz-adv-x="926" 
d="M828 822v-28l-113 -232l-113 232v28l113 249zM327 822v-28l-113 -232l-113 232v28l113 249zM575 1176v-28l-113 -232l-113 232v28l113 249zM575 451v-28l-113 -232l-113 232v28l113 249z" />
    <glyph glyph-name="uni1806" unicode="&#x1806;" horiz-adv-x="553" 
d="M603 909v-182h-623v182h623z" />
    <glyph glyph-name="uni1807" unicode="&#x1807;" horiz-adv-x="571" 
d="M630 909v-182h-213c-1.33301 -16 -3.33301 -38.333 -6 -67s-5.66699 -58.5 -9 -89.5s-7.33301 -60.5 -12 -88.5s-9.33398 -50 -14.001 -66l-35 -11c-20 50 -36.167 102.333 -48.5 157s-21.166 109.667 -26.499 165h-276v182h640z" />
    <glyph glyph-name="uni1808" unicode="&#x1808;" horiz-adv-x="875" 
d="M605 822c0 -27.333 -8 -54.335 -24 -81.002s-36 -52.167 -60 -76.5s-49.833 -46.666 -77.5 -66.999s-53.167 -37.166 -76.5 -50.499c-17.333 -10 -33 -15 -47 -15c-9.33301 0 -16.5 4 -21.5 12s-7.5 17.667 -7.5 29c0 10 3.33301 20.667 10 32
c20.667 24 38.667 45.833 54 65.5s28 38 38 55s17.5 33.333 22.5 49s7.5 31.167 7.5 46.5c0 22 -8.66699 50.333 -26 85s-43 73 -77 115c-14 12 -21 24.333 -21 37c0 20 9.66699 30 29 30c11.333 0 25.333 -5.66699 42 -17c156.667 -88.667 235 -171.667 235 -249z" />
    <glyph glyph-name="uni1809" unicode="&#x1809;" horiz-adv-x="1333" 
d="M595 822c0 -27.333 -8 -54.335 -24 -81.002s-36 -52.167 -60 -76.5s-49.833 -46.666 -77.5 -66.999s-53.167 -37.166 -76.5 -50.499c-17.333 -10 -33 -15 -47 -15c-9.33301 0 -16.5 4 -21.5 12s-7.5 17.667 -7.5 29c0 10 3.33301 20.667 10 32
c20.667 24 38.667 45.833 54 65.5s28 38 38 55s17.5 33.333 22.5 49s7.5 31.167 7.5 46.5c0 22 -8.66699 50.333 -26 85s-43 73 -77 115c-14 12 -21 24.333 -21 37c0 20 9.66699 30 29 30c11.333 0 25.333 -5.66699 42 -17c156.667 -88.667 235 -171.667 235 -249z
M1051 821.998c0 -27.333 -8 -54.335 -24 -81.002s-36 -52.167 -60 -76.5s-49.833 -46.666 -77.5 -66.999s-53.167 -37.166 -76.5 -50.499c-17.333 -10 -33 -15 -47 -15c-9.33301 0 -16.5 4 -21.5 12s-7.5 17.667 -7.5 29c0 10 3.33301 20.667 10 32
c20.667 24 38.667 45.833 54 65.5s28 38 38 55s17.5 33.333 22.5 49s7.5 31.167 7.5 46.5c0 22 -8.66699 50.333 -26 85s-43 73 -77 115c-14 12 -21 24.333 -21 37c0 20 9.66699 30 29 30c11.333 0 25.333 -5.66699 42 -17c156.667 -88.667 235 -171.667 235 -249z" />
    <glyph glyph-name="uni180A" unicode="&#x180a;" horiz-adv-x="268" 
d="M297 909v-182h-307v182h307z" />
    <glyph glyph-name="FVS1" unicode="&#x180b;" horiz-adv-x="1646" 
d="M1050 60v-60h-198v60h198zM756 60v-60h-206v60h206zM463 60v-60h-208v60h208zM1353 60v-60h-208v60h208zM1621 243h-51v207h51v-207zM55 1134h-51v215h51v-215zM1621 1134h-51v215h51v-215zM55 243h-51v215h51v-215zM1621 528h-51v217h51v-217zM55 528h-51v217h51v-217z
M1621 821h-51v218h51v-218zM55 821h-51v218h51v-218zM1050 1557h-198v60h198v-60zM463 1557h-208v60h208v-60zM756 1557h-206v60h206v-60zM1353 1557h-208v60h208v-60zM178 0h-174v165h51v-105h123v-60zM1621 0h-190v60h139v105h51v-165zM4 1435v182h174v-60h-123v-122h-51z
M1431 1557v60h190v-182h-51v122h-139zM1016 901h-53.001c0 116 -26.333 174 -79 174c-9.33301 0 -16.666 -1 -21.999 -3v71h656v-80h-502v-162zM409.999 667h69v-321h320v-69h-640v433h69v-364h182v321zM158.999 1325l640 -191v-104l-640 -200v78l563 173l-563 157v87z
M1042 632c-73.333 -22 -113.666 -73.666 -120.999 -154.999c6.66699 -103.333 47 -158.333 121 -165c18 3.33301 34.167 12 48.5 26s27.166 34.333 38.499 61c3.33301 6 6.83301 15.667 10.5 29l11 42l11 42.5c3.66699 13.667 6.83398 24.167 9.50098 31.5
c21.333 53.333 45.5 92.666 72.5 117.999s57.5 38 91.5 38c122 0 183 -77.333 183 -232c0 -91.333 -37.667 -161 -113 -209c-38 -10.667 -72.333 -16 -103 -16v69c98.667 7.33301 150 62.333 154 165c0 97.333 -40.333 149 -121 155
c-52.667 -6 -86.334 -51.667 -101.001 -137l-14 -38c-6 -16 -11.667 -32.333 -17 -49c-6 -16 -11.833 -30.667 -17.5 -44s-10.5 -22.333 -14.5 -27c-22 -62.667 -65 -94 -129 -94c-116 10 -176 85 -180 225c10 138.667 70 214 180 226v-62z" />
    <glyph glyph-name="FVS2" unicode="&#x180c;" horiz-adv-x="1641" 
d="M1050 60v-60h-198v60h198zM463 60v-60h-208v60h208zM1353 60v-60h-208v60h208zM756 60v-60h-206v60h206zM1621 243h-51v207h51v-207zM55 1134h-51v215h51v-215zM1621 1134h-51v215h51v-215zM1621 528h-51v217h51v-217zM1621 821h-51v218h51v-218zM55 528h-51v217h51v-217
zM55 821h-51v218h51v-218zM55 243h-51v215h51v-215zM1050 1557h-198v60h198v-60zM756 1557h-206v60h206v-60zM463 1557h-208v60h208v-60zM1353 1557h-208v60h208v-60zM178 0h-174v165h51v-105h123v-60zM1621 0h-190v60h139v105h51v-165zM4 1435v182h174v-60h-123v-122h-51z
M1431 1557v60h190v-182h-51v122h-139zM410 667h69v-321h320v-69h-640v433h69v-364h182v321zM1234 1168l59 -88.001c16 -24.667 30 -44 42 -58c56.667 -46 94 -71.667 112 -77v335h71v-406c-44.667 0 -84.667 6 -120 18l-45 44c-13.333 7.33301 -24 13.833 -32 19.5
s-14.333 10.5 -19 14.5l-47.5 66.5c-17 23 -36.167 46.5 -57.5 70.5c-45.333 82.667 -92.666 124 -141.999 124h-13c-68 -9.33301 -105.333 -56.333 -112 -141c0 -109.333 51.333 -164 154 -164v-60c-3.33301 -0.666992 -7.33301 -1.16699 -12 -1.5
s-10.334 -0.5 -17.001 -0.5c-54.667 0 -102 24 -142 72c-29.333 42.667 -44 91 -44 145c6 138.667 63.667 211.334 173 218.001c66.667 0 130.667 -43.667 192 -131zM159 1325l640 -191v-104l-640 -200v78l563 173l-563 157v87zM1042 622.999
c-73.333 -16 -113.667 -64.667 -121 -146c6.66699 -103.333 47 -158.333 121 -165c18 3.33301 34.167 12 48.5 26s27.166 34.333 38.499 61c12 16.667 23 51 33 103l9 23.5c2.66699 7 5.33398 13.167 8.00098 18.5c37.333 100 92.666 152 165.999 156
c120.667 0 181 -77.333 181 -232c0 -91.333 -36.667 -161 -110 -209c-40 -10.667 -78 -16 -114 -16v69c103.333 7.33301 158 62.333 164 165c0 97.333 -40.333 149 -121 155c-46 -6 -83 -51.667 -111 -137c-7.33301 -11.333 -16.333 -37.333 -27 -78
c-5.33301 -18 -10.166 -33.5 -14.499 -46.5s-8.83301 -24.167 -13.5 -33.5c-31.333 -62.667 -77 -94 -137 -94c-116 5.33301 -176 80.333 -180 225c0 140.667 60 216 180 226v-71z" />
    <glyph glyph-name="FVS3" unicode="&#x180d;" horiz-adv-x="1650" 
d="M1050 60v-60h-198v60h198zM463 60v-60h-208v60h208zM1353 60v-60h-208v60h208zM756 60v-60h-206v60h206zM1621 243h-51v207h51v-207zM55 1134h-51v215h51v-215zM1621 1134h-51v215h51v-215zM1621 528h-51v217h51v-217zM1621 821h-51v218h51v-218zM55 528h-51v217h51v-217
zM55 821h-51v218h51v-218zM55 243h-51v215h51v-215zM1050 1557h-198v60h198v-60zM756 1557h-206v60h206v-60zM463 1557h-208v60h208v-60zM1353 1557h-208v60h208v-60zM178 0h-174v165h51v-105h123v-60zM1621 0h-190v60h139v105h51v-165zM4 1435v182h174v-60h-123v-122h-51z
M1431 1557v60h190v-182h-51v122h-139zM410 667h69v-321h320v-69h-640v433h69v-364h182v321zM159 1325l640 -191v-104l-640 -200v78l563 173l-563 157v87zM1129 1004c-16.667 131.333 -54.333 201 -113 209c-40 0 -65.667 -41 -77 -123
c-1.33301 -7.33301 -2.33301 -14.666 -3 -21.999s-1 -14.666 -1 -21.999c0 -56.667 18.333 -93.334 55 -110.001l-32 -78c-30 15.333 -52.333 40.166 -67 74.499s-22 78.166 -22 131.499v26c6 126 55 192.333 147 199c75.333 -6 121 -63.333 137 -172
c28 132 90.667 198 188 198h12c104.667 -4.66699 159.667 -79.667 165 -225c0 -121.333 -46 -201.666 -138 -240.999l-19 87c52 26 78 70 78 132v22c-5.33301 94 -31.333 143.333 -78 148c-84 0 -144.667 -78 -182 -234h-50zM1042 623
c-73.333 -16 -113.667 -64.6631 -121 -145.996c6.66699 -103.333 47 -158.333 121 -165c18 3.33301 34.167 12 48.5 26s27.166 34.333 38.499 61c3.33301 7.33301 6.83301 17.666 10.5 30.999l13.5 47c6.66699 27.333 12.667 49.666 18 66.999
c21.333 53.333 45.5 92.666 72.5 117.999s57.5 38 91.5 38c122 0 183 -77.333 183 -232c0 -91.333 -37.667 -161 -113 -209c-38 -10.667 -72.333 -16 -103 -16v69c98.667 7.33301 150 62.333 154 165c0 97.333 -40.333 149 -121 155
c-52.667 -6 -86.334 -51.667 -101.001 -137c-3.33301 -6 -6.5 -13.5 -9.5 -22.5s-6.16699 -19.167 -9.5 -30.5c-9.33301 -26 -17.666 -47.333 -24.999 -64s-13.666 -30.334 -18.999 -41.001c-22 -62.667 -65 -94 -129 -94c-116 5.33301 -176 80.333 -180 225
c0 140.667 60 216 180 226v-71z" />
    <glyph glyph-name="MVS" unicode="&#x180e;" horiz-adv-x="1664" 
d="M161 957v138h656v-72h-600l600 -188v-109l-625 -180h625v-73h-656v140l603 171zM1066 1281v-67c-73.333 -17.333 -112 -66.333 -116 -147c4 -98 46 -148 126 -150c30.667 0 56.334 25.333 77.001 76c15.333 38.667 25.666 66.334 30.999 83.001s11.333 36.667 18 60
c36 102 89 153.333 159 154c120 -4 181 -83.333 183 -238c0 -82 -23.5 -136.833 -70.5 -164.5s-96.5 -40.834 -148.5 -39.501v68c104 0 156 50.333 156 151c-2.66699 100.667 -40.667 151 -114 151c-48.667 0 -85.667 -44 -111 -132l-20 -58c-6 -18 -17.333 -47.667 -34 -89
c-30 -60.667 -75.333 -91 -136 -91c-111.333 6 -169 77 -173 213c6 146.667 63.667 220 173 220zM1459 492l-562 160v79l638 -189v-100l-638 -199v81zM1577 1441v127h-132v56h184v-183h-52zM1577 173h52v-181h-184v55h132v126zM69 1568v-127h-53v183h167v-56h-114zM69 47
h114v-55h-167v181h53v-126zM14 755h55v-217h-55v217zM14 1051h55v-219h-55v219zM14 466h55v-216h-55v216zM14 1356h55v-215h-55v215zM1577 1356h52v-217h-52v217zM1577 1046h52v-217h-52v217zM1577 751h52v-214h-52v214zM857 1624h205v-56h-205v56zM266 1624h206v-56h-206
v56zM266 -8v55h206v-55h-206zM857 -8v55h205v-55h-205zM1155 -8v55h205v-55h-205zM560 -8v55h204v-55h-204zM560 1624h204v-56h-204v56zM1155 1624h205v-56h-205v56zM1577 461h52v-211h-52v211z" />
    <glyph glyph-name="uni180F" unicode="&#x180f;" horiz-adv-x="2" 
 />
    <glyph glyph-name="uni1810" unicode="&#x1810;" horiz-adv-x="675" 
d="M551 1057c0 86.667 -9.33105 158.333 -27.998 215c-6.66699 20.667 -14.334 40.667 -23.001 60s-18.834 36.5 -30.501 51.5s-24.667 26.833 -39 35.5s-30.5 13 -48.5 13c-23.333 0 -44.5 -5.66699 -63.5 -17s-36.167 -26 -51.5 -44s-29 -38.333 -41 -61
s-22.333 -45.334 -31 -68.001c-12 -30 -22.333 -61.833 -31 -95.5s-16 -68.167 -22 -103.5s-10.5 -70.666 -13.5 -105.999s-4.5 -69 -4.5 -101c-1.33301 -64.667 3.5 -121.834 14.5 -171.501s26.167 -90.5 45.5 -122.5c17.333 -28.667 36.833 -50.5 58.5 -65.5
s41.834 -22.5 60.501 -22.5c24.667 0 46.5 6.16699 65.5 18.5s35.833 28 50.5 47s27.5 40.333 38.5 64s20.5 46.834 28.5 69.501c10.667 30 20.167 61.667 28.5 95s15.166 67.5 20.499 102.5s9.33301 70 12 105s4 68.833 4 101.5zM635.002 1049
c0 -36 -1.49902 -73.1689 -4.49902 -111.502s-7.83301 -76.166 -14.5 -113.499s-15.167 -74.166 -25.5 -110.499s-22.5 -70.5 -36.5 -102.5c-12.667 -28.667 -27.5 -55.5 -44.5 -80.5s-36.5 -46.667 -58.5 -65s-46.5 -32.833 -73.5 -43.5s-56.5 -16 -88.5 -16
c-78.667 0 -138 43.333 -178 130c-21.333 43.333 -38.5 94.666 -51.5 153.999s-19.5 127.333 -19.5 204c0 77.333 8 147.833 24 211.5s35.667 119.834 59 168.501c32 64.667 71 115.167 117 151.5s97 54.5 153 54.5c48 0 88.667 -15.5 122 -46.5
s59.666 -70.833 78.999 -119.5c27.333 -68.667 41 -157 41 -265z" />
    <glyph glyph-name="uni1811" unicode="&#x1811;" horiz-adv-x="583" 
d="M543 1035c-2.66699 -51.333 -5.83301 -99.832 -9.5 -145.499s-8.5 -90.167 -14.5 -133.5s-13.667 -86.166 -23 -128.499s-20.666 -85.5 -33.999 -129.5c-14 -47.333 -31.333 -94.166 -52 -140.499s-43 -87.833 -67 -124.5s-49.333 -66.334 -76 -89.001
s-53.334 -34 -80.001 -34c-22 0 -44 6.33301 -66 19s-41.667 28.334 -59 47.001s-31.5 38.834 -42.5 60.501s-16.5 41.5 -16.5 59.5c0 9.33301 2.5 17.833 7.5 25.5s10.667 14.167 17 19.5s12.666 9.33301 18.999 12s10.833 4 13.5 4c10 0 15.833 -3.33301 17.5 -10l7.5 -29
c13.333 -45.333 28.833 -78.166 46.5 -98.499s39.167 -30.5 64.5 -30.5c22.667 0 43.834 9 63.501 27s38 42.5 55 73.5s32.667 67.5 47 109.5s27.833 87 40.5 135c8 32.667 16 70.5 24 113.5s15 88.667 21 137s10.833 97.833 14.5 148.5s5.5 100 5.5 148l-2.5 59.5
c-1 23.667 -2.83301 48.5 -5.5 74.5s-6.5 52 -11.5 78s-11.833 49.167 -20.5 69.5s-19.834 37 -33.501 50s-30.167 19.5 -49.5 19.5c-18 0 -35 -5.33301 -51 -16s-30.833 -24.667 -44.5 -42s-26.5 -37 -38.5 -59s-23 -44.333 -33 -67
c-22 -50.667 -38.833 -110.834 -50.5 -180.501s-17.5 -146.834 -17.5 -231.501c0 -48.667 2.83301 -89.334 8.5 -122.001s12 -60.667 19 -84s13.5 -44 19.5 -62s9 -36.667 9 -56c0 -14 -5 -24.333 -15 -31s-22.333 -10 -37 -10c-13.333 0 -24.5 5 -33.5 15
s-16.5 26.333 -22.5 49s-10.333 52.5 -13 89.5s-4 82.5 -4 136.5c0 114.667 8.5 216.5 25.5 305.5s38.167 161.833 63.5 218.5c27.333 61.333 60.5 109.166 99.5 143.499s80.5 51.5 124.5 51.5c28.667 0 53.167 -7.66699 73.5 -23s37.5 -35.333 51.5 -60
s25.333 -52.834 34 -84.501s15.334 -64 20.001 -97s7.66699 -65.167 9 -96.5s2 -59.333 2 -84z" />
    <glyph glyph-name="uni1812" unicode="&#x1812;" horiz-adv-x="784" 
d="M744 1253c0 -29.333 -3.16504 -56.667 -9.49805 -82s-15 -50.333 -26 -75s-24 -49.5 -39 -74.5l-47.5 -79.5l-43 -72c-15.333 -26 -29.333 -51.5 -42 -76.5s-23.167 -48.667 -31.5 -71s-12.5 -40.5 -12.5 -54.5c0 -21.333 3 -35 9 -41s13 -9 21 -9
c16.667 0 29.834 -2.33301 39.501 -7s20.167 -7 31.5 -7c15.333 0 34.666 12 57.999 36s48 63.333 74 118c5.33301 11.333 10 20 14 26s10.667 9 20 9c6.66699 0 11.5 -2.33301 14.5 -7s4.5 -10 4.5 -16c0 -13.333 -6 -32.166 -18 -56.499s-26.667 -52.5 -44 -84.5
l-32 -57.5c-9.33301 -17 -19 -31.333 -29 -43s-21 -20.667 -33 -27s-26.333 -9.5 -43 -9.5c-17.333 0 -34.5 2.33301 -51.5 7s-32.167 7 -45.5 7c-12.667 0 -24 -1.66699 -34 -5s-19 -7.16602 -27 -11.499l-21 -11.5c-6 -3.33301 -11 -5 -15 -5
c-6.66699 0 -14.334 2.16699 -23.001 6.5s-13 10.833 -13 19.5c0 2 0.333008 4.33301 1 7s1.66699 6.33398 3 11.001l78 162.5l63 131l50 104.5l38 82c30.667 68.667 51.167 124.167 61.5 166.5s15.5 70.833 15.5 85.5c0 55.333 -10.167 99.666 -30.5 132.999
s-48.5 50 -84.5 50c-22.667 0 -49 -9.33301 -79 -28s-60.833 -44.5 -92.5 -77.5s-62.667 -71.833 -93 -116.5s-57.666 -93.334 -81.999 -146.001s-43.833 -107.834 -58.5 -165.501s-22 -115.834 -22 -174.501c0 -39.333 2.5 -70.833 7.5 -94.5s10.667 -42.834 17 -57.501
s12 -26.167 17 -34.5s7.5 -16.5 7.5 -24.5c0 -32.667 -16.333 -49 -49 -49c-15.333 0 -28 5 -38 15s-18 23.333 -24 40s-10.167 35.834 -12.5 57.501s-3.5 44.167 -3.5 67.5c0 76.667 8.66699 150.667 26 222s40.166 138 68.499 200s60.833 118.5 97.5 169.5
s74.167 94.5 112.5 130.5s76.166 64 113.499 84s71 30 101 30c32 0 59.667 -6.33301 83 -19s42.5 -29.667 57.5 -51s26.167 -45.666 33.5 -72.999s11 -55.333 11 -84z" />
    <glyph glyph-name="uni1813" unicode="&#x1813;" horiz-adv-x="731" 
d="M692 1333c0 -31.333 -5.32715 -63.5049 -15.9941 -96.5049s-23.5 -65.167 -38.5 -96.5s-30.5 -60.666 -46.5 -87.999l-41 -69l-35 -59.5l-34.5 -61.5l-26 -50c-7 -14 -10.5 -23 -10.5 -27c0 -12.667 5.16699 -22.334 15.5 -29.001s21.5 -10 33.5 -10
c12.667 0 23.5 1.66699 32.5 5s17.5 8.16602 25.5 14.499s15.833 14.166 23.5 23.499l26.5 33c2.66699 3.33301 6.16699 7.33301 10.5 12s7.83301 7 10.5 7c7.33301 0 12.333 -1.33301 15 -4s4 -8 4 -16c0 -12.667 -4.5 -28 -13.5 -46s-20.5 -35.333 -34.5 -52
s-29.667 -31 -47 -43s-34 -18 -50 -18c-12 0 -25.833 0.833008 -41.5 2.5s-29.834 2.5 -42.501 2.5c-9.33301 0 -17.333 -0.666992 -24 -2s-12.5 -3 -17.5 -5s-9.66699 -3.66699 -14 -5s-8.83301 -2 -13.5 -2c-13.333 0 -20 1.33301 -20 4v12c0 4 4.16699 13.5 12.5 28.5
l32 56l44 73.5l48.5 81.5l45 80.5c14 26 25.333 49 34 69c9.33301 20.667 18.333 42.5 27 65.5s16.5 45.833 23.5 68.5s12.5 44.834 16.5 66.501s6 41.5 6 59.5c0 10 -0.5 21.5 -1.5 34.5s-3.5 25.333 -7.5 37s-9.66699 21.667 -17 30s-17.333 12.5 -30 12.5
c-31.333 0 -62.333 -29.333 -93 -88s-65.334 -143.667 -104.001 -255c-2 -5.33301 -6 -18.333 -12 -39s-13.5 -42.167 -22.5 -64.5s-19.333 -42.333 -31 -60s-23.834 -26.5 -36.501 -26.5c-2.66699 0 -5.33398 2 -8.00098 6s-4 8.33301 -4 13
c0 6.66699 3.5 17.834 10.5 33.501s15.167 32.834 24.5 51.501l27.5 55.5c9 18.333 15.833 33.5 20.5 45.5c18 48.667 31.833 94.334 41.5 137.001s14.5 76.334 14.5 101.001c0 57.333 -27.667 86 -83 86c-30 -6 -55.833 -19.167 -77.5 -39.5
s-39.834 -45.166 -54.501 -74.499s-26.334 -61.666 -35.001 -96.999s-15.334 -71.333 -20.001 -108s-7.66699 -72.334 -9 -107.001s-2 -66 -2 -94c0 -38 2.5 -68 7.5 -90s10.333 -39.5 16 -52.5s11 -23.167 16 -30.5s7.5 -15.333 7.5 -24
c0 -11.333 -4.66699 -22.166 -14 -32.499s-21 -15.5 -35 -15.5c-14.667 0 -26.167 5.66699 -34.5 17s-14.5 25.5 -18.5 42.5s-6.33301 35.167 -7 54.5s-1 37 -1 53c0 30.667 1.16699 68.167 3.5 112.5s7 90.5 14 138.5s16.833 95.833 29.5 143.5s28.834 90.5 48.501 128.5
s43.667 68.667 72 92s61.833 35 100.5 35c18.667 0 34.5 -3.66699 47.5 -11s24.167 -15.166 33.5 -23.499s17.333 -16.166 24 -23.499s12.667 -11 18 -11c8 0 17.167 3.66699 27.5 11s22 15.166 35 23.499s27.333 16.166 43 23.499s32.167 11 49.5 11
c16.667 0 31.667 -5 45 -15s24.5 -22.333 33.5 -37s15.833 -30.5 20.5 -47.5s7 -32.833 7 -47.5z" />
    <glyph glyph-name="uni1814" unicode="&#x1814;" horiz-adv-x="565" 
d="M525 1158c0 -100.667 -5.50098 -195.668 -16.501 -285.001s-28.167 -178.666 -51.5 -267.999c-10 -40.667 -22.667 -81.167 -38 -121.5s-33.166 -76.5 -53.499 -108.5s-43.5 -57.833 -69.5 -77.5s-54.667 -29.5 -86 -29.5c-25.333 0 -48.5 10.5 -69.5 31.5
s-39 49.5 -54 85.5s-26.5 77.667 -34.5 125s-12 97 -12 149c0 111.333 17 211.666 51 300.999c17.333 44.667 39.166 87.834 65.499 129.501s58.5 82.167 96.5 121.5c4 5.33301 8.66699 9.16602 14 11.499s10 3.5 14 3.5c6 0 10.667 -2.33301 14 -7s5 -10 5 -16
s-5.33301 -15.667 -16 -29l-39.5 -51.5c-15.667 -21 -32.667 -46 -51 -75s-35.166 -62.167 -50.499 -99.5c-17.333 -42.667 -30.833 -90.167 -40.5 -142.5s-14.5 -105.166 -14.5 -158.499c0 -40 2.66699 -79.5 8 -118.5s13.333 -73.667 24 -104s24 -54.833 40 -73.5
s34.667 -28 56 -28c16.667 0 33.834 7 51.501 21s34.5 34.167 50.5 60.5s31.167 58.166 45.5 95.499s27.166 79.666 38.499 126.999c26 112 39 251.333 39 418c0 70.667 -4.5 133.334 -13.5 188.001s-23.833 102 -44.5 142c-11.333 22.667 -17 41.334 -17 56.001
c0 6.66699 2 13 6 19s9 11.333 15 16s12.5 8.16699 19.5 10.5s13.5 3.5 19.5 3.5c13.333 0 26 -8.33301 38 -25s22.5 -39.5 31.5 -68.5s16.167 -63.167 21.5 -102.5s8 -81.333 8 -126z" />
    <glyph glyph-name="uni1815" unicode="&#x1815;" horiz-adv-x="620" 
d="M580 728c0 -12 -4.49805 -21.167 -13.498 -27.5s-19.833 -9.5 -32.5 -9.5c-8 0 -15.333 9 -22 27s-13.167 41.5 -19.5 70.5s-12.333 61.833 -18 98.5l-16.5 111l-13.5 98.5c-4.33301 31.667 -8.83301 59.667 -13.5 84s-9.5 44 -14.5 59s-10.5 22.5 -16.5 22.5
c-5.33301 0 -9.5 -4.33301 -12.5 -13s-5.83301 -22.667 -8.5 -42s-5.33398 -44.5 -8.00098 -75.5l-10 -113.5l-14.5 -157.5c-4.33301 -45 -11.5 -82.5 -21.5 -112.5s-24.333 -52.5 -43 -67.5s-45 -22.5 -79 -22.5c-27.333 0 -50.666 8 -69.999 24s-35.5 39.833 -48.5 71.5
s-23 71.334 -30 119.001s-11.833 103.167 -14.5 166.5c2 18.667 5.83301 32.5 11.5 41.5s15.834 13.5 30.501 13.5c8.66699 0 17.167 -2.66699 25.5 -8s12.5 -12.333 12.5 -21c0 -13.333 -1 -25.5 -3 -36.5l-6 -33c-2 -11 -4 -22.833 -6 -35.5s-3 -27.667 -3 -45
c0 -70 9.5 -122.333 28.5 -157s43.5 -52 73.5 -52c23.333 0 42 7.16699 56 21.5s25.333 35.166 34 62.499s15 60.333 19 99s7.66699 82.667 11 132c1.33301 24 3 48.333 5 73s4.33301 48.167 7 70.5s5.83398 42.833 9.50098 61.5s8.16699 34 13.5 46c6 14 10.833 30 14.5 48
s5.5 38.667 5.5 62c0 17.333 -0.333008 29.5 -1 36.5s-1.33398 12.833 -2.00098 17.5c0 29.333 9 44 27 44c8.66699 0 15.834 -5.5 21.501 -16.5s10.167 -23.833 13.5 -38.5s5.66602 -29 6.99902 -43s2 -24.333 2 -31c0 -21.333 1.83301 -45 5.5 -71
s8.16699 -53.5 13.5 -82.5s11.833 -59.333 19.5 -91l23.5 -95.5c9.33301 -37.333 20.666 -76.5 33.999 -117.5s24.666 -84.833 33.999 -131.5c1.33301 -8 2.16602 -14.5 2.49902 -19.5s0.5 -9.83301 0.5 -14.5z" />
    <glyph glyph-name="uni1816" unicode="&#x1816;" horiz-adv-x="705" 
d="M665 728c0 -65.333 -7.50488 -124.998 -22.5049 -178.998s-35.5 -100.5 -61.5 -139.5s-56.667 -69.333 -92 -91s-73 -32.5 -113 -32.5c-52.667 0 -99.667 13.833 -141 41.5s-76.5 66.5 -105.5 116.5s-51.167 110.167 -66.5 180.5s-23 148.166 -23 233.499
c0 96 13 182.333 39 259s59 142 99 196s84 95.333 132 124s93.667 43 137 43c16.667 0 30.334 -1.5 41.001 -4.5s19.167 -6.66699 25.5 -11s10.833 -9.16602 13.5 -14.499s4 -10.333 4 -15c0 -10.667 -1 -19.334 -3 -26.001s-5.66699 -12.334 -11 -17.001
s-13.166 -8.16699 -23.499 -10.5s-23.833 -4.5 -40.5 -6.5c-52.667 -5.33301 -101.334 -21.833 -146.001 -49.5s-83.167 -64 -115.5 -109s-57.666 -98 -75.999 -159s-27.5 -127.5 -27.5 -199.5s6.5 -139.833 19.5 -203.5s31.667 -119.167 56 -166.5
s54.166 -84.833 89.499 -112.5s75.333 -41.5 120 -41.5c68.667 0 120.5 29.667 155.5 89s52.5 146.666 52.5 261.999c0 75.333 -11.167 131.5 -33.5 168.5s-53.166 55.5 -92.499 55.5c-18 0 -33.333 -6.83301 -46 -20.5s-23.334 -29 -32.001 -46s-15.5 -33.167 -20.5 -48.5
s-8.16699 -24.666 -9.5 -27.999c-3.33301 -7.33301 -7.16602 -13 -11.499 -17s-8.16602 -6 -11.499 -6c-11.333 0 -17 9.66699 -17 29c6.66699 36 11.834 73.333 15.501 112s5.5 77 5.5 115c0 32.667 -2.16699 62.667 -6.5 90s-6.5 57 -6.5 89c0 14.667 2.5 25.5 7.5 32.5
s15.167 10.5 30.5 10.5c21.333 0 32 -11.667 32 -35c0 -24 -2.83301 -50.667 -8.5 -80s-8.5 -64.666 -8.5 -105.999c0 -14.667 2.33301 -28.834 7 -42.501s12.334 -20.5 23.001 -20.5c4.66699 0 12.667 2.5 24 7.5s26 7.5 44 7.5c28.667 0 55.167 -5 79.5 -15
s45.333 -24.5 63 -43.5s31.5 -42.333 41.5 -70s15 -59.5 15 -95.5z" />
    <glyph glyph-name="uni1817" unicode="&#x1817;" horiz-adv-x="645" 
d="M605 877c0 -94.667 -3.66406 -175.664 -10.9971 -242.997s-18 -122.333 -32 -165s-31.5 -74 -52.5 -94s-44.833 -30 -71.5 -30c-48 0 -82 22.667 -102 68s-30 112.666 -30 201.999c0 22.667 1 48 3 76s4.16699 56.5 6.5 85.5s4.5 57.5 6.5 85.5s3 53.667 3 77
c0 79.333 -9.5 138 -28.5 176s-47.833 57 -86.5 57c-40.667 0 -71.167 -27.667 -91.5 -83s-30.5 -135.666 -30.5 -240.999c0 -56.667 8.33301 -117.834 25 -183.501s41 -137.167 73 -214.5c4 -7.33301 6.83301 -14.333 8.5 -21s2.5 -12.667 2.5 -18c0 -4 -1 -9 -3 -15
s-5.16699 -11.833 -9.5 -17.5s-9.83301 -10.5 -16.5 -14.5s-15 -6 -25 -6c-12.667 0 -24 9.16699 -34 27.5s-18.833 42.166 -26.5 71.499s-14.167 62.333 -19.5 99s-9.66602 73 -12.999 109s-5.83301 70.333 -7.5 103s-2.5 59.334 -2.5 80.001
c0 123.333 13.667 216.166 41 278.499s72 93.5 134 93.5c28 0 52 -6 72 -18s36.333 -29 49 -51s22 -48.833 28 -80.5s9 -67.167 9 -106.5c0 -20.667 -1 -43.667 -3 -69s-4.16699 -51.166 -6.5 -77.499s-4.5 -52.5 -6.5 -78.5s-3 -50 -3 -72
c0 -74.667 6.16699 -133 18.5 -175s31.5 -63 57.5 -63c20 0 37.5 11.167 52.5 33.5s27.333 53.5 37 93.5s17 87.5 22 142.5s7.5 115.167 7.5 180.5c0 70.667 -5.66699 137.167 -17 199.5s-28.5 116.833 -51.5 163.5s-51.667 83.5 -86 110.5s-74.5 40.5 -120.5 40.5
c-16.667 0 -31.5 -2.33301 -44.5 -7s-25.333 -9.83398 -37 -15.501s-22.834 -10.834 -33.501 -15.501s-22 -7 -34 -7c-14.667 0 -26 3.33301 -34 10s-12 20 -12 40c0 12.667 5.16699 24 15.5 34s24.166 18.5 41.499 25.5s37.166 12.5 59.499 16.5s45.5 6 69.5 6
c40 0 76.167 -8.33301 108.5 -25s61.166 -39.334 86.499 -68.001s47.166 -62.5 65.499 -101.5s33.333 -80.833 45 -125.5s20.334 -91.167 26.001 -139.5s8.5 -96.166 8.5 -143.499z" />
    <glyph glyph-name="uni1818" unicode="&#x1818;" horiz-adv-x="651" 
d="M615 905c0 -5.33301 -3.66797 -14.3281 -11.001 -26.9951l-26.5 -46l-34 -59.5c-12.333 -21.667 -23.5 -44.5 -33.5 -68.5c-11.333 -26 -20.5 -49 -27.5 -69s-12.833 -38.833 -17.5 -56.5s-8.66699 -35.334 -12 -53.001s-6.66602 -36.834 -9.99902 -57.501
c-4 -19.333 -10 -34.5 -18 -45.5s-15.333 -16.5 -22 -16.5c-13.333 0 -27 1.33301 -41 4l-43 8.5c-14.667 3 -29.5 5.66699 -44.5 8s-29.833 3.5 -44.5 3.5c-15.333 0 -30 -1.33301 -44 -4s-27.5 -5.5 -40.5 -8.5s-25.667 -5.66699 -38 -8s-24.5 -3.5 -36.5 -3.5
c-8.66699 0 -16 3.16699 -22 9.5s-9 15.166 -9 26.499c0 9.33301 2.83301 24.5 8.5 45.5s13 45.833 22 74.5s19.5 60.167 31.5 94.5l37 104.5l37.5 106l33.5 98l30.5 93.5l30.5 96.5l29.5 93l26.5 83.5l21.5 67.5c6.33301 19.333 11.5 34.333 15.5 45
c5.33301 13.333 14.166 22.666 26.499 27.999s24.166 8 35.499 8c4.66699 0 10 -0.333008 16 -1s11.667 -2.16699 17 -4.5s10 -6.16602 14 -11.499s6 -12.666 6 -21.999c0 -4 -6.66699 -17.667 -20 -41s-30.5 -55.833 -51.5 -97.5s-45 -92 -72 -151
s-53.833 -125.5 -80.5 -199.5l-20 -54.5l-27.5 -75.5l-30 -84c-10.333 -28.667 -19.5 -55.334 -27.5 -80.001l-20 -63.5c-5.33301 -17.667 -8 -28.834 -8 -33.501c0 -14.667 1.5 -26.834 4.5 -36.501s10.5 -14.834 22.5 -15.501c4 0 9.33301 0.166992 16 0.5
s13.667 0.833008 21 1.5l21.5 2c7 0.666992 13.167 1 18.5 1c17.333 0 34.333 -2.16699 51 -6.5s33.667 -6.5 51 -6.5c12.667 0 25 7 37 21s23.667 31.833 35 53.5s22.5 45.834 33.5 72.501l33.5 79l33.5 78.5c10.333 25 19.833 47 28.5 66s16.834 34 24.501 45
s14.834 16.5 21.501 16.5c7.33301 0 15.833 -2.83301 25.5 -8.5s14.5 -12.167 14.5 -19.5z" />
    <glyph glyph-name="uni1819" unicode="&#x1819;" horiz-adv-x="525" 
d="M485 1195c0 -28 -2.50098 -56.166 -7.50098 -84.499s-11.5 -56.333 -19.5 -84s-16.667 -54.5 -26 -80.5l-27 -73c-16 -42.667 -29.167 -76.167 -39.5 -100.5s-15.5 -42.5 -15.5 -54.5c0 -10 -0.166992 -17.833 -0.5 -23.5s4.16699 -10.167 13.5 -13.5
s19.5 -6.66602 30.5 -9.99902s21.167 -6.66602 30.5 -9.99902c5.33301 -2 10.666 -5.33301 15.999 -10s8 -11.334 8 -20.001c0 -8 -4.33301 -15.5 -13 -22.5s-19.334 -10.5 -32.001 -10.5c-6 0 -11.333 1.16699 -16 3.5s-10.5 4.66602 -17.5 6.99902
s-16.333 4.66602 -28 6.99902s-27.167 3.5 -46.5 3.5c-16 0 -24 7.66699 -24 23c0 7.33301 2.33301 17.666 7 30.999s11 30.166 19 50.499l28 73.5c10.667 28.667 21.667 62 33 100c12.667 40.667 24.334 84.5 35.001 131.5s16 102.5 16 166.5
c0 74.667 -7.33301 132.834 -22 174.501s-38 62.5 -70 62.5s-59.833 -9.66699 -83.5 -29s-44 -45 -61 -77s-31 -68.5 -42 -109.5s-19.833 -83 -26.5 -126s-11.5 -85.667 -14.5 -128s-4.83301 -80.5 -5.5 -114.5c0 -79.333 4.66699 -152.333 14 -219s22.5 -124.5 39.5 -173.5
s37.667 -87.167 62 -114.5s51.5 -41 81.5 -41c12 0 22.667 3 32 9s17.5 13.5 24.5 22.5s13.167 18.833 18.5 29.5l15 30c3.33301 6.66699 6.83301 15 10.5 25s7.83398 19.5 12.501 28.5s10.167 16.667 16.5 23s13.833 9.5 22.5 9.5c5.33301 0 10.333 -1.83301 15 -5.5
s8.66699 -8.16699 12 -13.5s5.83301 -11.166 7.5 -17.499s2.5 -12.166 2.5 -17.499c0 -18 -5.83301 -37 -17.5 -57s-26.667 -38.5 -45 -55.5s-38.666 -31 -60.999 -42s-44.166 -16.5 -65.499 -16.5c-38 0 -71.833 13.333 -101.5 40s-54.834 65.5 -75.501 116.5
s-36.5 113.5 -47.5 187.5s-16.5 158 -16.5 252c2.66699 206.667 27.667 363.667 75 471s117.333 161 210 161c26.667 0 50.167 -7.33301 70.5 -22s37 -34.667 50 -60s22.833 -55.333 29.5 -90s10 -72.334 10 -113.001z" />
    <glyph glyph-name="uni1820" unicode="&#x1820;" horiz-adv-x="1206" 
d="M1171 1358l-133.002 -211.499c-42.667 -70.333 -79 -142.5 -109 -216.5c-39.333 -95.333 -71.5 -194 -96.5 -296s-41.833 -209.333 -50.5 -322c-37.333 19.333 -72.166 45.833 -104.499 79.5s-60.666 70 -84.999 109s-44.166 78.5 -59.499 118.5s-24.333 76 -27 108h-124
c-2 -50 -6.5 -101 -13.5 -153s-14.833 -104.333 -23.5 -157l-36 -10c-13.333 28.667 -24.666 60.334 -33.999 95.001s-17.333 68.667 -24 102s-11.5 63.833 -14.5 91.5s-4.5 48.834 -4.5 63.501v150c0 26.667 -3.16699 48.167 -9.5 64.5s-17.166 24.5 -32.499 24.5
c-10.667 0 -20.167 -0.833008 -28.5 -2.5s-16.333 -4.16699 -24 -7.5s-15.5 -7.33301 -23.5 -12s-17 -10.334 -27 -17.001c-16.667 -11.333 -29.5 -21.166 -38.5 -29.499s-15.833 -12.5 -20.5 -12.5c-7.33301 6.66699 -13.833 14.167 -19.5 22.5s-8.5 15.5 -8.5 21.5
c7.33301 7.33301 15.666 16.666 24.999 27.999l28 33c44.667 51.333 82.667 88.333 114 111s59 34 83 34c30 0 53.333 -14.833 70 -44.5s25 -68.5 25 -116.5v-97h229v-110c0 -25.333 4.5 -53.833 13.5 -85.5s20.167 -62.5 33.5 -92.5s27.333 -57.333 42 -82
s27.667 -42.334 39 -53.001c-4 14.667 -4.5 40 -1.5 76s9 77.333 18 124s20.333 96 34 148s29.5 101.333 47.5 148l63 162c20 51.333 37.667 98.666 53 141.999s27.666 82.5 36.999 117.5s14 64.833 14 89.5c0 10.667 -1.5 25 -4.5 43s-6.16699 36 -9.5 54l-9.5 49.5
c-3 15 -4.5 25.167 -4.5 30.5c0 17.333 2.16699 30 6.5 38s13.166 12 26.499 12c4 0 9.66699 -4.16699 17 -12.5s14.333 -18.833 21 -31.5l42.5 -84l36.5 -74l37.5 -74.5z" />
    <glyph glyph-name="uni1821" unicode="&#x1821;" horiz-adv-x="895" 
d="M885 544l-0.00195312 -329.998c0 -46 -4.16699 -85.833 -12.5 -119.5s-20.5 -63 -36.5 -88s-36 -46.5 -60 -64.5s-51.667 -34 -83 -48c-18 -8 -32.333 -15.167 -43 -21.5s-19.667 -13 -27 -20s-13.666 -15.333 -18.999 -25l-20 -36.5h-18l53 227l21.5 6
c7 2 14.667 4.5 23 7.5s17.333 6.83301 27 11.5s21.167 11 34.5 19c8 4.66699 17 10.667 27 18s19.5 16.666 28.5 27.999s16.667 25.666 23 42.999s9.5 38.333 9.5 63v330c0 59.333 -11.333 104.666 -34 135.999s-54 47 -94 47h-303c-2 -50 -6.5 -101 -13.5 -153
s-14.833 -104.333 -23.5 -157l-36 -10c-13.333 28.667 -24.666 60.334 -33.999 95.001s-17.333 68.667 -24 102s-11.5 63.833 -14.5 91.5s-4.5 48.834 -4.5 63.501v150c0 26.667 -3.16699 48.167 -9.5 64.5s-17.166 24.5 -32.499 24.5
c-10.667 0 -20.167 -0.833008 -28.5 -2.5s-16.333 -4.16699 -24 -7.5s-15.5 -7.33301 -23.5 -12s-17 -10.334 -27 -17.001c-16.667 -11.333 -29.5 -21.166 -38.5 -29.499s-15.833 -12.5 -20.5 -12.5c-7.33301 6.66699 -13.833 14.167 -19.5 22.5s-8.5 15.5 -8.5 21.5
c7.33301 7.33301 15.666 16.666 24.999 27.999l28 33c44.667 51.333 82.667 88.333 114 111s59 34 83 34c30 0 53.333 -14.833 70 -44.5s25 -68.5 25 -116.5v-97h340c66 0 115.833 -30.167 149.5 -90.5s50.5 -151.833 50.5 -274.5z" />
    <glyph glyph-name="uni1822" unicode="&#x1822;" horiz-adv-x="943" 
d="M930 864c0 -20 -1.16504 -34.5 -3.49805 -43.5s-7.83301 -13.5 -16.5 -13.5c-7.33301 0 -13 4.16699 -17 12.5s-7.33301 17.833 -10 28.5l-19.5 88.5c-7 31.667 -15.833 61.167 -26.5 88.5s-24.334 50 -41.001 68s-37.667 27 -63 27c-29.333 0 -55 -7.83301 -77 -23.5
s-40.5 -37 -55.5 -64s-26.333 -58.667 -34 -95s-11.5 -74.833 -11.5 -115.5c0 -20 4.16699 -41.167 12.5 -63.5s19 -44.666 32 -66.999s27.5 -44.333 43.5 -66s31.833 -41.334 47.5 -59.001l44 -48l31.5 -33.5l-47 -158h-18c-22.667 26 -45.334 56.5 -68.001 91.5
s-43 70.667 -61 107s-32.667 72.166 -44 107.499s-17 66.666 -17 93.999h-129c-2 -50 -6.5 -100.667 -13.5 -152s-14.833 -103.333 -23.5 -156l-36 -10c-13.333 28.667 -24.666 60.334 -33.999 95.001s-17.333 68.334 -24 101.001s-11.5 62.834 -14.5 90.501
s-4.5 48.834 -4.5 63.501v150c0 26.667 -3.16699 48.167 -9.5 64.5s-17.166 24.5 -32.499 24.5c-10.667 0 -20.167 -0.833008 -28.5 -2.5s-16.333 -4.16699 -24 -7.5s-15.5 -7.33301 -23.5 -12s-17 -10.334 -27 -17.001c-16.667 -11.333 -29.5 -21.166 -38.5 -29.499
s-15.833 -12.5 -20.5 -12.5c-7.33301 6.66699 -13.833 14.167 -19.5 22.5s-8.5 15.5 -8.5 21.5c7.33301 7.33301 15.666 16.666 24.999 27.999l28 33c44.667 51.333 82.667 88.333 114 111s59 34 83 34c30 0 53.333 -14.833 70 -44.5s25 -68.5 25 -116.5v-97h166
c9.33301 118 32.666 209.333 69.999 274s88.333 97 153 97c38.667 0 70.667 -12.333 96 -37s45.333 -56.834 60 -96.501s25 -84.167 31 -133.5s9 -99 9 -149z" />
    <glyph glyph-name="uni1823" unicode="&#x1823;" horiz-adv-x="859" 
d="M869 909v-319.001c0 -80.667 -14 -143.167 -42 -187.5s-72.333 -66.5 -133 -66.5s-106.334 22.167 -137.001 66.5s-46 106.833 -46 187.5v137h-129c-2 -50 -6.5 -101 -13.5 -153s-14.833 -104.333 -23.5 -157l-36 -10c-13.333 28.667 -24.666 60.334 -33.999 95.001
s-17.333 68.667 -24 102s-11.5 63.833 -14.5 91.5s-4.5 48.834 -4.5 63.501v150c0 26.667 -3.16699 48.167 -9.5 64.5s-17.166 24.5 -32.499 24.5c-10.667 0 -20.167 -0.833008 -28.5 -2.5s-16.333 -4.16699 -24 -7.5s-15.5 -7.33301 -23.5 -12s-17 -10.334 -27 -17.001
c-16.667 -11.333 -29.5 -21.166 -38.5 -29.499s-15.833 -12.5 -20.5 -12.5c-7.33301 6.66699 -13.833 14.167 -19.5 22.5s-8.5 15.5 -8.5 21.5c7.33301 7.33301 15.666 16.666 24.999 27.999l28 33c44.667 51.333 82.667 88.333 114 111s59 34 83 34
c30 0 53.333 -14.833 70 -44.5s25 -68.5 25 -116.5v-97h524zM815 726.999h-250v-137c0 -38 11.667 -66.5 35 -85.5s55.333 -28.5 96 -28.5c36.667 0 65.667 9.5 87 28.5s32 47.5 32 85.5v137z" />
    <glyph glyph-name="uni1824" unicode="&#x1824;" horiz-adv-x="998" 
d="M1008 909v-182.001h-139v-137c0 -80.667 -14 -143.167 -42 -187.5s-72.333 -66.5 -133 -66.5s-106.334 22.167 -137.001 66.5s-46 106.833 -46 187.5v137h-129c-2 -50 -6.5 -101 -13.5 -153s-14.833 -104.333 -23.5 -157l-36 -10
c-13.333 28.667 -24.666 60.334 -33.999 95.001s-17.333 68.667 -24 102s-11.5 63.833 -14.5 91.5s-4.5 48.834 -4.5 63.501v150c0 26.667 -3.16699 48.167 -9.5 64.5s-17.166 24.5 -32.499 24.5c-10.667 0 -20.167 -0.833008 -28.5 -2.5s-16.333 -4.16699 -24 -7.5
s-15.5 -7.33301 -23.5 -12s-17 -10.334 -27 -17.001c-16.667 -11.333 -29.5 -21.166 -38.5 -29.499s-15.833 -12.5 -20.5 -12.5c-7.33301 6.66699 -13.833 14.167 -19.5 22.5s-8.5 15.5 -8.5 21.5c7.33301 7.33301 15.666 16.666 24.999 27.999l28 33
c44.667 51.333 82.667 88.333 114 111s59 34 83 34c30 0 53.333 -14.833 70 -44.5s25 -68.5 25 -116.5v-97h663zM815 726.999h-250v-137c0 -38 11.667 -66.5 35 -85.5s55.333 -28.5 96 -28.5c36.667 0 65.667 9.5 87 28.5s32 47.5 32 85.5v137z" />
    <glyph glyph-name="uni1825" unicode="&#x1825;" horiz-adv-x="1234" 
d="M1224 697v-93.999c0 -38 -6.5 -68.667 -19.5 -92s-29.167 -35 -48.5 -35v19c0 72 -13.167 128.167 -39.5 168.5s-65.833 61.5 -118.5 63.5h-129v-137c0 -80.667 -14 -143.167 -42 -187.5s-72.333 -66.5 -133 -66.5s-106.334 22.167 -137.001 66.5s-46 106.833 -46 187.5
v137h-129c-2 -50 -6.5 -101.333 -13.5 -154s-14.833 -105.334 -23.5 -158.001l-36 -10c-13.333 28.667 -24.666 60.334 -33.999 95.001s-17.333 69 -24 103s-11.5 64.833 -14.5 92.5s-4.5 48.834 -4.5 63.501v150c0 26.667 -3.16699 48.167 -9.5 64.5
s-17.166 24.5 -32.499 24.5c-10.667 0 -20.167 -0.833008 -28.5 -2.5s-16.333 -4.16699 -24 -7.5s-15.5 -7.33301 -23.5 -12s-17 -10.334 -27 -17.001c-16.667 -11.333 -29.5 -21.166 -38.5 -29.499s-15.833 -12.5 -20.5 -12.5c-7.33301 6.66699 -13.833 14.167 -19.5 22.5
s-8.5 15.5 -8.5 21.5c7.33301 7.33301 15.666 16.666 24.999 27.999l28 33c44.667 51.333 82.667 88.333 114 111s59 34 83 34c30 0 53.333 -14.833 70 -44.5s25 -68.5 25 -116.5v-97h722c50 -4.66699 88.667 -25.334 116 -62.001s41 -86.667 41 -150zM815 727.001h-250
v-137c0 -38 11.667 -66.5 35 -85.5s55.333 -28.5 96 -28.5c36.667 0 65.667 9.5 87 28.5s32 47.5 32 85.5v137z" />
    <glyph glyph-name="uni1826" unicode="&#x1826;" horiz-adv-x="1403" 
d="M1413 909v-182.001h-347l208 -296v-24l-44 -188h-23l-209 508h-129v-137c0 -80.667 -14 -143.167 -42 -187.5s-72.333 -66.5 -133 -66.5s-106.334 22.167 -137.001 66.5s-46 106.833 -46 187.5v137h-129c-2 -44.667 -6.5 -94.667 -13.5 -150s-14.833 -109.333 -23.5 -162
l-36 -10c-13.333 28.667 -24.666 60.334 -33.999 95.001s-17.333 70.334 -24 107.001s-11.5 67.5 -14.5 92.5s-4.5 44.833 -4.5 59.5v150c0 26.667 -3.16699 48.167 -9.5 64.5s-17.166 24.5 -32.499 24.5c-10.667 0 -20.167 -0.833008 -28.5 -2.5s-16.333 -4.16699 -24 -7.5
s-15.5 -7.33301 -23.5 -12s-17 -10.334 -27 -17.001c-16.667 -11.333 -29.5 -21.166 -38.5 -29.499s-15.833 -12.5 -20.5 -12.5c-7.33301 6.66699 -13.833 14.167 -19.5 22.5s-8.5 15.5 -8.5 21.5c7.33301 7.33301 15.666 16.666 24.999 27.999l28 33
c44.667 51.333 82.667 88.333 114 111s59 34 83 34c30 0 53.333 -14.833 70 -44.5s25 -68.5 25 -116.5v-97h1068zM815 726.999h-250v-137c0 -38 11.667 -66.5 35 -85.5s55.333 -28.5 96 -28.5c36.667 0 65.667 9.5 87 28.5s32 47.5 32 85.5v137z" />
    <glyph glyph-name="uni1827" unicode="&#x1827;" horiz-adv-x="1321" 
d="M1311 697v-93.998c0 -38 -6.5 -68.667 -19.5 -92s-29.167 -35 -48.5 -35v19c0 72 -13.167 128.167 -39.5 168.5s-65.833 61.5 -118.5 63.5h-494l54 -239c9.33301 -34 19.166 -63.667 29.499 -89s22 -46.333 35 -63s28 -29.167 45 -37.5s36.5 -12.5 58.5 -12.5
c19.333 0 35 3.66699 47 11s21.833 15.5 29.5 24.5s14 17.333 19 25s10.5 11.5 16.5 11.5c11.333 0 19.333 -5.5 24 -16.5s7 -26.5 7 -46.5c0 -20.667 -3.66699 -40 -11 -58s-17.5 -33.833 -30.5 -47.5s-28.167 -24.334 -45.5 -32.001s-36 -11.5 -56 -11.5
c-32.667 0 -61.167 7.16699 -85.5 21.5s-46 35 -65 62s-35.833 60.333 -50.5 100s-28 84.5 -40 134.5l-61 263h-129c-2 -50 -6.5 -101.333 -13.5 -154s-14.833 -105.334 -23.5 -158.001l-36 -10c-13.333 28.667 -24.666 60.334 -33.999 95.001s-17.333 69 -24 103
s-11.5 64.833 -14.5 92.5s-4.5 48.834 -4.5 63.501v150c0 26.667 -3.16699 48.167 -9.5 64.5s-17.166 24.5 -32.499 24.5c-10.667 0 -20.167 -0.833008 -28.5 -2.5s-16.333 -4.16699 -24 -7.5s-15.5 -7.33301 -23.5 -12s-17 -10.334 -27 -17.001
c-16.667 -11.333 -29.5 -21.166 -38.5 -29.499s-15.833 -12.5 -20.5 -12.5c-7.33301 6.66699 -13.833 14.167 -19.5 22.5s-8.5 15.5 -8.5 21.5c7.33301 7.33301 15.666 16.666 24.999 27.999l28 33c44.667 51.333 82.667 88.333 114 111s59 34 83 34
c30 0 53.333 -14.833 70 -44.5s25 -68.5 25 -116.5v-97h809c50 -4.66699 88.667 -25.334 116 -62.001s41 -86.667 41 -150z" />
    <glyph glyph-name="uni1828" unicode="&#x1828;" horiz-adv-x="511" 
d="M370 176c0 -6.66699 -1.99902 -12.665 -5.99902 -17.998s-9.16699 -10.833 -15.5 -16.5s-13.5 -11.667 -21.5 -18s-16 -13.833 -24 -22.5c-7.33301 -8 -13.666 -15.667 -18.999 -23l-14.5 -19.5c-4.33301 -5.66699 -8.5 -10.167 -12.5 -13.5s-8.33301 -5 -13 -5
c-11.333 0 -20.833 2.83301 -28.5 8.5s-11.5 14.5 -11.5 26.5c0 15.333 1.16699 29.166 3.5 41.499s6.16602 26.166 11.499 41.499c3.33301 9.33301 7.66602 19.333 12.999 30s11.5 20.5 18.5 29.5s14.667 16.333 23 22s17.5 8.5 27.5 8.5c10.667 0 22.667 -6 36 -18
c22 -20 33 -38 33 -54zM521.001 909.002l-0.000976562 -181.998h-139c-2 -50 -6.5 -101.333 -13.5 -154s-14.833 -105.334 -23.5 -158.001l-36 -10c-13.333 28.667 -24.666 60.667 -33.999 96s-17.333 69.666 -24 102.999s-11.5 63.833 -14.5 91.5s-4.5 48.834 -4.5 63.501
v150c0 26.667 -3.16699 48.167 -9.5 64.5s-17.166 24.5 -32.499 24.5c-10.667 0 -20.167 -0.833008 -28.5 -2.5s-16.333 -4.16699 -24 -7.5s-15.5 -7.33301 -23.5 -12s-17 -10.334 -27 -17.001c-16.667 -11.333 -29.5 -21.166 -38.5 -29.499s-15.833 -12.5 -20.5 -12.5
c-7.33301 6.66699 -13.833 14.167 -19.5 22.5s-8.5 15.5 -8.5 21.5c7.33301 7.33301 15.666 16.666 24.999 27.999l28 33c44.667 51.333 82.667 88.333 114 111s59 34 83 34c30 0 53.333 -14.833 70 -44.5s25 -68.5 25 -116.5v-97h176z" />
    <glyph glyph-name="uni1829" unicode="&#x1829;" horiz-adv-x="702" 
d="M692 784c0 -20 -1.16309 -34.5049 -3.49609 -43.5049s-7.83301 -13.5 -16.5 -13.5c-7.33301 0 -13 4.16699 -17 12.5s-7.33301 17.833 -10 28.5l-18.5 85.5c-6.33301 29.667 -15.166 57 -26.499 82s-27.166 45.667 -47.499 62s-47.5 24.5 -81.5 24.5
c-16 0 -32.667 -2.66699 -50 -8s-33.333 -15.5 -48 -30.5s-26.667 -35.5 -36 -61.5s-14 -59.333 -14 -100c0 -24 4.83301 -46.667 14.5 -68s21.5 -41.666 35.5 -60.999s29 -37.666 45 -54.999l43 -48l-27 -166h-13c-4 8 -9.5 17.167 -16.5 27.5l-22.5 33l-24.5 35.5
c-8.33301 12 -15.5 23 -21.5 33c-6.66699 10.667 -13.334 22.834 -20.001 36.501s-12.834 28 -18.501 43s-10.167 30.5 -13.5 46.5s-5 32 -5 48h-129c-1.33301 -16 -3.33301 -38.333 -6 -67s-6.33398 -58.5 -11.001 -89.5s-9.33398 -60.5 -14.001 -88.5
s-9.33398 -50 -14.001 -66l-35 -11c-20 50 -35.5 102.333 -46.5 157s-19.167 109.667 -24.5 165v182h280c4.66699 58.667 14.667 105.834 30 141.501s32.666 63.334 51.999 83.001s39.166 32.667 59.499 39s37.5 9.5 51.5 9.5c38.667 0 71.834 -11.333 99.501 -34
s50.5 -52.667 68.5 -90s31.167 -79.833 39.5 -127.5s12.5 -96.5 12.5 -146.5z" />
    <glyph glyph-name="uni182A" unicode="&#x182a;" horiz-adv-x="541" 
d="M324 727h-261.001c0 -36 0.666992 -69.333 2 -100s6 -57.167 14 -79.5s20.833 -39.833 38.5 -52.5s42.834 -19 75.501 -19s57.834 6.16699 75.501 18.5s30.667 29.5 39 51.5s13.166 48.333 14.499 79s2 64.667 2 102zM530.999 881c0 -24 -2.6709 -42.333 -8.00391 -55
s-10 -19 -14 -19c-9.33301 0 -16.166 5.16699 -20.499 15.5s-9.16602 30.833 -14.499 61.5c-7.33301 47.333 -17.666 88.333 -30.999 123s-28.666 63.334 -45.999 86.001s-36.333 39.5 -57 50.5s-42.334 16.5 -65.001 16.5c-108.667 0 -178 -83.667 -208 -251h236
c56.667 0 85 -29 85 -87v-186c0 -38 -3.16699 -75 -9.5 -111s-17 -68 -32 -96s-35 -50.5 -60 -67.5s-56.167 -25.5 -93.5 -25.5c-28.667 0 -53.167 6.33301 -73.5 19s-37.666 29.667 -51.999 51s-26 45.666 -35 72.999s-16 55.333 -21 84s-8.33301 57.334 -10 86.001
s-2.5 54.667 -2.5 78v182c9.33301 133.333 36.833 235.166 82.5 305.499s110.167 105.5 193.5 105.5c41.333 0 78 -11 110 -33s58.833 -52.5 80.5 -91.5s38 -85.333 49 -139s16.5 -112.167 16.5 -175.5z" />
    <glyph glyph-name="uni182B" unicode="&#x182b;" horiz-adv-x="544" 
d="M534 909c0 -14 -0.170898 -27.167 -0.503906 -39.5s-1.5 -23.166 -3.5 -32.499s-4.83301 -16.666 -8.5 -21.999s-8.5 -8 -14.5 -8c-4 0 -7.66699 2.33301 -11 7s-6.5 10.667 -9.5 18s-5.5 15.5 -7.5 24.5s-3.66699 18.167 -5 27.5c-6.66699 48 -16.5 89.333 -29.5 124
s-28.167 63.334 -45.5 86.001s-36.666 39.334 -57.999 50.001s-43.333 16 -66 16c-108.667 0 -178 -83.667 -208 -251h236c56.667 0 85 -29 85 -87v-164c0 -44.667 -4 -83 -12 -115s-19.833 -58.833 -35.5 -80.5s-35.334 -38.334 -59.001 -50.001s-51.5 -19.5 -83.5 -23.5
c-48 -5.33301 -85.167 -13.666 -111.5 -24.999s-46.166 -20.333 -59.499 -27c-1.33301 8.66699 -2.33301 18.667 -3 30s-1 19.666 -1 24.999c0 23.333 2.33301 43.666 7 60.999s13.834 32.333 27.501 45s32.834 23 57.501 31s56.667 14.333 96 19
c16.667 2 31.667 5.16699 45 9.5s24.333 11.166 33 20.499s15.334 22.166 20.001 38.499s7 37.5 7 63.5v47h-317v182c4.66699 66 14.667 124.667 30 176s35.166 94.333 59.499 129s52.333 61 84 79s65.834 27 102.501 27c40 0 76 -11.333 108 -34s59.167 -53 81.5 -91
s39.5 -81.833 51.5 -131.5s18 -101.167 18 -154.5z" />
    <glyph glyph-name="uni182C" unicode="&#x182c;" horiz-adv-x="740" 
d="M750 909l0.00195312 -181.999h-139c-8.66699 -55.333 -16 -109.666 -22 -162.999s-16.667 -106.333 -32 -159h-27c-8 26 -16.167 54.167 -24.5 84.5s-15.666 59.833 -21.999 88.5s-11.666 55.834 -15.999 81.501s-6.5 48.167 -6.5 67.5c0 12 1.33301 24.667 4 38
l8.5 44.5c3 16.333 5.83301 34.666 8.5 54.999s4 43.5 4 69.5c0 60.667 -9.83301 106.834 -29.5 138.501s-44.834 47.5 -75.501 47.5c-22.667 0 -43 -7.16699 -61 -21.5s-33.333 -34.333 -46 -60s-22.334 -56 -29.001 -91s-10 -73.167 -10 -114.5
c0 -42.667 5.66699 -79.167 17 -109.5s24 -58.333 38 -84l38 -72.5c11.333 -22.667 17 -47.334 17 -74.001c0 -58.667 -37.667 -88 -113 -88c-18 0 -34.5 1.33301 -49.5 4s-27.833 6.16699 -38.5 10.5s-18.834 9 -24.501 14s-8.16699 9.83301 -7.5 14.5
c2 14.667 9 25.667 21 33s24.667 15.666 38 24.999s25.5 22.166 36.5 38.499s16.5 40.5 16.5 72.5c0 14 -2.33301 29 -7 45s-11.167 30.5 -19.5 43.5s-18.833 23.667 -31.5 32s-27 12.5 -43 12.5c-6.66699 0 -13.334 -1.16699 -20.001 -3.5s-13.5 -5 -20.5 -8
s-14 -5.66699 -21 -8s-13.5 -3.5 -19.5 -3.5c-9.33301 11.333 -15.333 25 -18 41s-4 34 -4 54c0 19.333 2.83301 35 8.5 47s13.167 21.667 22.5 29s19.5 13.5 30.5 18.5l33 15.5c11 5.33301 21 11.833 30 19.5s15.833 18.167 20.5 31.5c34.667 96 71.5 169.5 110.5 220.5
s81.5 76.5 127.5 76.5c22.667 0 44.667 -6 66 -18s40.333 -30.333 57 -55s30 -56.167 40 -94.5s15 -83.833 15 -136.5v-67h169z" />
    <glyph glyph-name="uni182D" unicode="&#x182d;" horiz-adv-x="740" 
d="M750 909l0.00195312 -181.997h-139c-8.66699 -55.333 -16 -109.666 -22 -162.999s-16.667 -106.333 -32 -159h-27l-24.5 83.5c-8.33301 29.667 -15.666 58.834 -21.999 87.501s-11.666 56.167 -15.999 82.5s-6.5 49.166 -6.5 68.499c0 12 1.33301 24.667 4 38l8.5 44.5
c3 16.333 5.83301 34.666 8.5 54.999s4 43.5 4 69.5c0 60.667 -9.83301 106.834 -29.5 138.501s-44.834 47.5 -75.501 47.5c-22.667 0 -43 -7.16699 -61 -21.5s-33.333 -34.333 -46 -60s-22.334 -56 -29.001 -91s-10 -73.167 -10 -114.5
c0 -42.667 5.66699 -79.167 17 -109.5s24 -58.333 38 -84l38 -72.5c11.333 -22.667 17 -47.334 17 -74.001c0 -58.667 -37.667 -88 -113 -88c-18 0 -34.5 1.33301 -49.5 4s-27.833 6.16699 -38.5 10.5s-18.834 9 -24.501 14s-8.16699 9.83301 -7.5 14.5
c2 14.667 9 25.667 21 33s24.667 15.666 38 24.999s25.5 22.166 36.5 38.499s16.5 40.5 16.5 72.5c0 15.333 -2.33301 30.666 -7 45.999s-11.167 29.5 -19.5 42.5s-18.833 23.667 -31.5 32s-27 12.5 -43 12.5c-6.66699 0 -13.334 -1.16699 -20.001 -3.5s-13.5 -5 -20.5 -8
s-14 -5.66699 -21 -8s-13.5 -3.5 -19.5 -3.5c-9.33301 11.333 -15.333 25 -18 41s-4 34 -4 54c0 19.333 2.83301 35 8.5 47s13.167 21.667 22.5 29s19.5 13.5 30.5 18.5l33 15.5c11 5.33301 21 11.833 30 19.5s15.833 18.167 20.5 31.5c34.667 96 71.5 169.5 110.5 220.5
s81.5 76.5 127.5 76.5c22.667 0 44.667 -6 66 -18s40.333 -30.333 57 -55s30 -56.167 40 -94.5s15 -83.833 15 -136.5v-67h169zM503.002 -51.9971c0 -6.66699 -1.99902 -12.665 -5.99902 -17.998s-9.16699 -10.833 -15.5 -16.5s-13.5 -11.667 -21.5 -18
s-16 -13.833 -24 -22.5c-7.33301 -8 -13.666 -15.667 -18.999 -23l-14.5 -19.5c-4.33301 -5.66699 -8.5 -10.167 -12.5 -13.5s-8.33301 -5 -13 -5c-11.333 0 -20.833 2.83301 -28.5 8.5s-11.5 14.5 -11.5 26.5c0 15.333 1.16699 29.166 3.5 41.499
s6.16602 26.166 11.499 41.499c3.33301 9.33301 7.66602 19.333 12.999 30s11.5 20.5 18.5 29.5s14.667 16.333 23 22s17.5 8.5 27.5 8.5c10.667 0 22.667 -6 36 -18c22 -20 33 -38 33 -54zM403.003 198.005c0 -6.66699 -1.99902 -12.665 -5.99902 -17.998
s-9.16699 -10.833 -15.5 -16.5s-13.5 -11.667 -21.5 -18s-16 -13.833 -24 -22.5c-7.33301 -8 -13.666 -15.667 -18.999 -23l-14.5 -19.5c-4.33301 -5.66699 -8.5 -10.167 -12.5 -13.5s-8.33301 -5 -13 -5c-11.333 0 -20.833 2.83301 -28.5 8.5s-11.5 14.5 -11.5 26.5
c0 15.333 1.16699 29.166 3.5 41.499s6.16602 26.166 11.499 41.499c3.33301 9.33301 7.66602 19 12.999 29s11.5 19.5 18.5 28.5s14.667 16.333 23 22s17.5 8.5 27.5 8.5c10.667 0 22.667 -6 36 -18c22 -20 33 -37.333 33 -52z" />
    <glyph glyph-name="uni182E" unicode="&#x182e;" horiz-adv-x="511" 
d="M521 909l0.00195312 -182.003h-139c-2 -50 -6.5 -101 -13.5 -153s-14.833 -104.333 -23.5 -157l-36 -10c-13.333 28.667 -24.666 60.334 -33.999 95.001s-17.333 68.667 -24 102s-11.5 63.833 -14.5 91.5s-4.5 48.834 -4.5 63.501v150
c0 26.667 -3.16699 48.167 -9.5 64.5s-17.166 24.5 -32.499 24.5c-10.667 0 -20.167 -0.833008 -28.5 -2.5s-16.333 -4.16699 -24 -7.5s-15.5 -7.33301 -23.5 -12s-17 -10.334 -27 -17.001c-16.667 -11.333 -29.5 -21.166 -38.5 -29.499s-15.833 -12.5 -20.5 -12.5
c-7.33301 6.66699 -13.833 14.167 -19.5 22.5s-8.5 15.5 -8.5 21.5c7.33301 7.33301 15.666 16.666 24.999 27.999l28 33c36.667 42 68.834 74.333 96.501 97s52.167 37.334 73.5 44.001l-41 261c6.66699 6.66699 18.667 12.334 36 17.001s36.666 7 57.999 7
c23.333 0 43.166 2 59.499 6s29.833 11 40.5 21s19.167 23.167 25.5 39.5s11.166 36.5 14.499 60.5c13.333 -17.333 22 -35 26 -53s6 -36 6 -54c0 -48.667 -12.833 -88 -38.5 -118s-65.834 -45 -120.501 -45h-39l20 -141c24 -6.66699 42.5 -24.167 55.5 -52.5
s19.5 -63.5 19.5 -105.5v-97h176z" />
    <glyph glyph-name="uni182F" unicode="&#x182f;" horiz-adv-x="511" 
d="M521 909l0.00195312 -182h-139c-2 -50 -6.5 -101 -13.5 -153s-14.833 -104.333 -23.5 -157l-36 -10c-13.333 28.667 -24.666 60.334 -33.999 95.001s-17.333 68.667 -24 102s-11.5 63.833 -14.5 91.5s-4.5 48.834 -4.5 63.501v150c0 26.667 -3.16699 48.167 -9.5 64.5
s-17.166 24.5 -32.499 24.5c-10.667 0 -20.167 -0.833008 -28.5 -2.5s-16.333 -4.16699 -24 -7.5s-15.5 -7.33301 -23.5 -12s-17 -10.334 -27 -17.001c-16.667 -11.333 -29.5 -21.166 -38.5 -29.499s-15.833 -12.5 -20.5 -12.5c-7.33301 6.66699 -13.833 14.167 -19.5 22.5
s-8.5 15.5 -8.5 21.5c7.33301 7.33301 15.666 16.666 24.999 27.999l28 33c42.667 49.333 79.334 85.333 110.001 108s57.667 35 81 37l20 139l-39 -1c-54.667 0 -94.834 15 -120.501 45s-38.5 69.333 -38.5 118c0 18 2 36 6 54s12.667 35.667 26 53
c3.33301 -24 8.16602 -44.167 14.499 -60.5s14.833 -29.5 25.5 -39.5s24.167 -17 40.5 -21s36.166 -6 59.499 -6c21.333 0 40.666 -2.33301 57.999 -7s29.333 -10.334 36 -17.001l-43 -269c18 -11.333 31.833 -30 41.5 -56s14.5 -57 14.5 -93v-97h176z" />
    <glyph glyph-name="uni1830" unicode="&#x1830;" horiz-adv-x="679" 
d="M689 909l-0.00195312 -181.995h-139l-46 -312l-28 -10c-16 43.333 -29.167 84 -39.5 122s-18.166 71.833 -23.499 101.5s-8.83301 53 -10.5 70s-2.5 26.5 -2.5 28.5v142c0 11.333 0.833008 26 2.5 44s3.5 36.833 5.5 56.5l6 59c2 19.667 3.33301 37.167 4 52.5
c0 3.33301 -0.666992 7.33301 -2 12s-2 8.66699 -2 12c-6.66699 -6 -13.167 -15.333 -19.5 -28s-12.166 -26.334 -17.499 -41.001l-15 -42.5c-4.66699 -13.667 -8.33398 -24.834 -11.001 -33.501c-23.333 -66 -49.666 -118.167 -78.999 -156.5s-61.666 -57.5 -96.999 -57.5
c-22.667 0 -43 4.66699 -61 14s-33.167 22.333 -45.5 39s-21.833 36.5 -28.5 59.5s-10 48.167 -10 75.5c0 11.333 1.5 21.333 4.5 30s9.83301 13 20.5 13c6 0 12.333 -3.83301 19 -11.5s14.5 -16.167 23.5 -25.5s19.667 -17.833 32 -25.5s27.5 -11.5 45.5 -11.5
c35.333 0 64.166 13.833 86.499 41.5s40.5 67.5 54.5 119.5c18.667 69.333 37.5 122.666 56.5 159.999s33.833 56 44.5 56c14 0 25.5 -4.16699 34.5 -12.5s16 -18.333 21 -30s8.5 -24.167 10.5 -37.5s3 -25 3 -35c0 -13.333 -0.5 -31 -1.5 -53s-2.16699 -45.333 -3.5 -70
s-2.83301 -48.834 -4.5 -72.501s-3.16699 -43.834 -4.5 -60.501h217z" />
    <glyph glyph-name="uni1831" unicode="&#x1831;" horiz-adv-x="649" 
d="M646 1458c0 -6.66699 -1.99902 -12.665 -5.99902 -17.998s-9.16699 -10.833 -15.5 -16.5s-13.5 -11.667 -21.5 -18s-16 -13.833 -24 -22.5c-7.33301 -8 -13.666 -15.667 -18.999 -23l-14.5 -19.5c-4.33301 -5.66699 -8.5 -10.167 -12.5 -13.5s-8.33301 -5 -13 -5
c-11.333 0 -20.833 2.83301 -28.5 8.5s-11.5 14.5 -11.5 26.5c0 15.333 1.16699 29.166 3.5 41.499s6.16602 26.166 11.499 41.499c3.33301 9.33301 7.66602 19.333 12.999 30s11.5 20.5 18.5 29.5s14.667 16.333 23 22s17.5 8.5 27.5 8.5c10.667 0 22.667 -6 36 -18
c22 -20 33 -38 33 -54zM386.001 1458c0 -6.66699 -1.99902 -12.665 -5.99902 -17.998s-9.16699 -10.833 -15.5 -16.5s-13.5 -11.667 -21.5 -18s-16 -13.833 -24 -22.5c-7.33301 -8 -13.666 -15.667 -18.999 -23l-14.5 -19.5c-4.33301 -5.66699 -8.5 -10.167 -12.5 -13.5
s-8.33301 -5 -13 -5c-11.333 0 -20.833 2.83301 -28.5 8.5s-11.5 14.5 -11.5 26.5c0 15.333 1.16699 29.166 3.5 41.499s6.16602 26.166 11.499 41.499c3.33301 9.33301 7.66602 19.333 12.999 30s11.5 20.5 18.5 29.5s14.667 16.333 23 22s17.5 8.5 27.5 8.5
c10.667 0 22.667 -6 36 -18c22 -20 33 -38 33 -54zM659.002 909.004l-0.00195312 -181.995h-139l-46 -312l-28 -10c-16 43.333 -29.167 84 -39.5 122s-18.166 71.833 -23.499 101.5s-8.83301 53 -10.5 70s-2.5 26.5 -2.5 28.5v142c0 11.333 0.833008 26 2.5 44
s3.5 36.833 5.5 56.5l6 59c2 19.667 3.33301 37.167 4 52.5c0 3.33301 -0.666992 7.33301 -2 12s-2 8.66699 -2 12c-6.66699 -6 -13.167 -15.333 -19.5 -28s-12.166 -26.334 -17.499 -41.001l-15 -42.5c-4.66699 -13.667 -8.33398 -24.834 -11.001 -33.501
c-23.333 -66 -49.666 -118.167 -78.999 -156.5s-61.666 -57.5 -96.999 -57.5c-22.667 0 -43 4.66699 -61 14s-33.167 22.333 -45.5 39s-21.833 36.5 -28.5 59.5s-10 48.167 -10 75.5c0 11.333 1.5 21.333 4.5 30s9.83301 13 20.5 13c6 0 12.333 -3.83301 19 -11.5
s14.5 -16.167 23.5 -25.5s19.667 -17.833 32 -25.5s27.5 -11.5 45.5 -11.5c35.333 0 64.166 13.833 86.499 41.5s40.5 67.5 54.5 119.5c18.667 69.333 37.5 122.666 56.5 159.999s33.833 56 44.5 56c14 0 25.5 -4.16699 34.5 -12.5s16 -18.333 21 -30
s8.5 -24.167 10.5 -37.5s3 -25 3 -35c0 -13.333 -0.5 -31 -1.5 -53s-2.16699 -45.333 -3.5 -70s-2.83301 -48.834 -4.5 -72.501s-3.16699 -43.834 -4.5 -60.501h217z" />
    <glyph glyph-name="uni1832" unicode="&#x1832;" horiz-adv-x="737" 
d="M747 909v-182.001h-139c-8.66699 -55.333 -16 -109.666 -22 -162.999s-16.667 -106.333 -32 -159h-27c-16 52 -30 104.333 -42 157s-21 106 -27 160c-12 -16 -25.167 -29.5 -39.5 -40.5s-28.5 -20 -42.5 -27s-27.333 -12 -40 -15s-23.667 -4.5 -33 -4.5
c-14 0 -27.833 1.16699 -41.5 3.5s-27.167 6.83301 -40.5 13.5s-26.333 16 -39 28s-25 27.667 -37 47l-41 62.5c-12 17.667 -23.5 32.667 -34.5 45s-22 22.833 -33 31.5s-23.5 16.667 -37.5 24v24c10 8 19.333 16.167 28 24.5s17.167 17.5 25.5 27.5
s16.833 21.167 25.5 33.5s17.667 26.166 27 41.499c18 29.333 35.333 53.333 52 72s33 33.5 49 44.5s32 18.5 48 22.5s32.333 6 49 6c26.667 0 52.5 -5.83301 77.5 -17.5s47.167 -29.167 66.5 -52.5s35 -52.166 47 -86.499s18.333 -74.5 19 -120.5h234zM437 904.999
c0 48.667 -11.6689 88.5 -35.002 119.5s-56.333 46.5 -99 46.5c-25.333 0 -47.666 -6.33301 -66.999 -19s-37.166 -27.834 -53.499 -45.501s-32.333 -36.167 -48 -55.5s-32.5 -35.666 -50.5 -48.999c16.667 -8 33.334 -20.5 50.001 -37.5l51 -51
c17.333 -17 35.666 -31.833 54.999 -44.5s40.333 -19 63 -19c38.667 0 70.667 12.833 96 38.5s38 64.5 38 116.5z" />
    <glyph glyph-name="uni1833" unicode="&#x1833;" horiz-adv-x="587" 
d="M169 391c6 -16 13.833 -31.334 23.5 -46.001s20.167 -27.334 31.5 -38.001s23.5 -19.167 36.5 -25.5s26.167 -9.5 39.5 -9.5s26 2 38 6s22.5 10.333 31.5 19s16 19.834 21 33.501s7.5 29.834 7.5 48.501c0 17.333 -2.33301 34.333 -7 51s-11.167 31.5 -19.5 44.5
s-18.333 23.5 -30 31.5s-24.5 12 -38.5 12c-17.333 0 -33.5 -4.33301 -48.5 -13s-28.333 -19.5 -40 -32.5s-21.5 -26.833 -29.5 -41.5s-13.333 -28 -16 -40zM597 908.999l0.00292969 -181.998h-524c2 -14.667 5.5 -33.334 10.5 -56.001s10.5 -46.334 16.5 -71.001
s12.167 -48.167 18.5 -70.5s12.166 -40.166 17.499 -53.499c6 14 14.333 28 25 42s23.334 26.667 38.001 38s30.834 20.5 48.501 27.5s36.167 10.5 55.5 10.5c52 0 90.833 -19.167 116.5 -57.5s38.5 -90.833 38.5 -157.5c0 -40.667 -4 -75.5 -12 -104.5s-19.333 -53 -34 -72
s-31.834 -33 -51.501 -42s-40.834 -13.5 -63.501 -13.5c-34 0 -63.5 8.66699 -88.5 26s-46.833 40.666 -65.5 69.999s-34.834 63.5 -48.501 102.5s-25.834 80 -36.501 123s-20.667 86.667 -30 131s-19 86.833 -29 127.5v182h598z" />
    <glyph glyph-name="uni1834" unicode="&#x1834;" horiz-adv-x="605" 
d="M615 909l-0.00292969 -182h-140c-4 -17.333 -7.5 -35 -10.5 -53s-4.5 -38 -4.5 -60c0 -33.333 2.16699 -65.666 6.5 -96.999s9.5 -60.5 15.5 -87.5s11.833 -50.667 17.5 -71s9.83398 -35.833 12.501 -46.5h-259c-34 0 -61.167 -8.33301 -81.5 -25s-34.5 -39 -42.5 -67
c-7.33301 0.666992 -14.166 3.5 -20.499 8.5s-11.666 11 -15.999 18s-7.83301 14.667 -10.5 23s-4 16.5 -4 24.5c0 27.333 3.5 53.166 10.5 77.499s17.833 45.5 32.5 63.5s33 32.333 55 43s47.667 16 77 16h138l-2 32c-0.666992 10.667 -1 21.334 -1 32.001
c0 53.333 6.66699 109.666 20 168.999h-409v182h616z" />
    <glyph glyph-name="uni1835" unicode="&#x1835;" horiz-adv-x="404" 
d="M414 909v-182h-347l208 -276v-24l-44 -208h-23l-209 508v182h415z" />
    <glyph glyph-name="uni1836" unicode="&#x1836;" horiz-adv-x="378" 
d="M388 909v-182h-317c1.33301 -25.333 8.5 -50.833 21.5 -76.5s29.833 -53.834 50.5 -84.501l37 -55.5c12.667 -19 24 -38.167 34 -57.5s18.333 -38.833 25 -58.5s10 -38.834 10 -57.501c0 -26 -3.5 -46.667 -10.5 -62s-16.333 -27.166 -28 -35.499
s-25 -13.666 -40 -15.999s-30.5 -3.5 -46.5 -3.5c-19.333 0 -39.333 4.33301 -60 13s-36.667 19.667 -48 33c0 11.333 5.83301 21 17.5 29l38.5 25.5c14 9 26.833 19.667 38.5 32s17.5 29.166 17.5 50.499c0 10 -1.33301 19.5 -4 28.5s-6.5 18.667 -11.5 29
s-11.333 21.833 -19 34.5l-26.5 46c-10 16.667 -18.833 33.834 -26.5 51.501s-14.167 34.667 -19.5 51s-9.83301 31.833 -13.5 46.5s-6.5 27 -8.5 37v182h389z" />
    <glyph glyph-name="uni1837" unicode="&#x1837;" horiz-adv-x="473" 
d="M483 909v-182h-416l277 -316v-24l-44 -208h-23l-122 254l-135 -117l-21 19l89 237l-89 155v182h484z" />
    <glyph glyph-name="uni1838" unicode="&#x1838;" horiz-adv-x="573" 
d="M583 909l0.000976562 -181.999h-504l54 -209c9.33301 -34 19.166 -63.667 29.499 -89s22 -46.333 35 -63s28 -29.167 45 -37.5s36.5 -12.5 58.5 -12.5c19.333 0 35 3.66699 47 11s21.833 15.5 29.5 24.5s14 17.333 19 25s10.5 11.5 16.5 11.5
c11.333 0 19.333 -5.5 24 -16.5s7 -26.5 7 -46.5c0 -20.667 -3.66699 -40 -11 -58s-17.5 -33.833 -30.5 -47.5s-28.167 -24.334 -45.5 -32.001s-36 -11.5 -56 -11.5c-32.667 0 -61.167 7.16699 -85.5 21.5s-46 35 -65 62s-35.833 60.333 -50.5 100s-28 84.5 -40 134.5
l-61 233v182h584z" />
    <glyph glyph-name="uni1839" unicode="&#x1839;" horiz-adv-x="541" 
d="M531 881c0 -24 -2.6709 -42.3359 -8.00391 -55.0029s-10 -19 -14 -19c-9.33301 0 -16.166 5.16699 -20.499 15.5s-9.16602 30.833 -14.499 61.5c-7.33301 47.333 -17.666 88.333 -30.999 123s-28.666 63.334 -45.999 86.001s-36.333 39.5 -57 50.5
s-42.334 16.5 -65.001 16.5c-108.667 0 -178 -83.667 -208 -251h236c56.667 0 85 -29 85 -87v-186c0 -38 -3.16699 -75 -9.5 -111s-17 -68 -32 -96s-35 -50.5 -60 -67.5s-56.167 -25.5 -93.5 -25.5c-14 0 -26 1.33301 -36 4c-4 -9.33301 -6.66699 -18.166 -8 -26.499
s-2 -16.166 -2 -23.499c0 -15.333 2.33301 -27.666 7 -36.999s9.66699 -18.166 15 -26.499s10.333 -17.5 15 -27.5s7 -23.667 7 -41c0 -10 -1.83301 -18.333 -5.5 -25s-8.16699 -12.167 -13.5 -16.5s-11 -7.33301 -17 -9s-11.667 -2.5 -17 -2.5c-30 0 -54 11.667 -72 35
s-27 52.666 -27 87.999c0 10.667 1.5 22.167 4.5 34.5s7 25 12 38s10.833 25.833 17.5 38.5s13.334 24.667 20.001 36c-20 18.667 -36.167 42.667 -48.5 72s-21.833 60.166 -28.5 92.499s-11.167 65 -13.5 98s-3.5 62.833 -3.5 89.5v182c4.66699 66 14.5 124.667 29.5 176
s34.5 94.333 58.5 129s51.833 61 83.5 79s66.5 27 104.5 27c41.333 0 78 -11 110 -33s58.833 -52.5 80.5 -91.5s38 -85.333 49 -139s16.5 -112.167 16.5 -175.5zM323.996 726.997h-261.001c0 -36 0.666992 -69.333 2 -100s6 -57.167 14 -79.5s20.833 -39.833 38.5 -52.5
s42.834 -19 75.501 -19s57.834 6.16699 75.501 18.5s30.667 29.5 39 51.5s13.166 48.333 14.499 79s2 64.667 2 102z" />
    <glyph glyph-name="uni183A" unicode="&#x183a;" horiz-adv-x="479" 
d="M469 864c0 -20 -1.16602 -34.5 -3.49902 -43.5s-7.83301 -13.5 -16.5 -13.5c-7.33301 0 -13 4.16699 -17 12.5s-7.33301 17.833 -10 28.5l-19.5 88.5c-7 31.667 -15.833 61.167 -26.5 88.5s-24.334 50 -41.001 68s-37.667 27 -63 27c-29.333 0 -55 -6.66699 -77 -20
s-40.667 -32.166 -56 -56.499s-26.833 -53.5 -34.5 -87.5s-11.5 -71.333 -11.5 -112c0 -28 6.16699 -53.5 18.5 -76.5s27 -43.5 44 -61.5s34.5 -33.5 52.5 -46.5s32.333 -22.833 43 -29.5l-59 -250h-29c-4 22 -9 44.667 -15 68s-12.667 45.833 -20 67.5s-15 42 -23 61
s-16.333 35.5 -25 49.5c-2.66699 -16 -6.16699 -33 -10.5 -51s-9.83301 -34.5 -16.5 -49.5s-14.5 -27.333 -23.5 -37s-19.167 -13.834 -30.5 -12.501v433h27c4.66699 58.667 14.167 111 28.5 157s32.333 84.833 54 116.5s46.5 55.834 74.5 72.501s58 25 90 25
c38.667 0 70.667 -12.333 96 -37s45.333 -56.834 60 -96.501s25 -84.167 31 -133.5s9 -99 9 -149z" />
    <glyph glyph-name="uni183B" unicode="&#x183b;" horiz-adv-x="452" 
d="M442 864c0 -20 -1.16309 -34.5 -3.49609 -43.5s-7.83301 -13.5 -16.5 -13.5c-7.33301 0 -13 4.16699 -17 12.5s-7.33301 17.833 -10 28.5l-19.5 88.5c-7 31.667 -15.833 61.167 -26.5 88.5s-24.334 50 -41.001 68s-37.667 27 -63 27c-29.333 0 -55 -6.66699 -77 -20
s-40.667 -32.166 -56 -56.499s-26.833 -53.5 -34.5 -87.5s-11.5 -49.667 -11.5 -47h120v-182h-107c41.333 -40.667 73.166 -65.334 95.499 -74.001s38.833 -16.334 49.5 -23.001l-59 -250h-29c-4 22 -8.5 44.667 -13.5 68s-9.33301 41.5 -13 54.5
s-24.834 52.333 -63.501 118s-54.334 161.834 -47.001 288.501c4.66699 58.667 14.167 111 28.5 157s32.333 84.833 54 116.5s46.5 55.834 74.5 72.501s58 25 90 25c38.667 0 70.667 -12.333 96 -37s45.333 -56.834 60 -96.501s25 -84.167 31 -133.5s9 -99 9 -149z" />
    <glyph glyph-name="uni183C" unicode="&#x183c;" horiz-adv-x="889" 
d="M899 909l-0.00292969 -181.998h-424c-4 -17.333 -7.5 -35 -10.5 -53s-4.5 -38 -4.5 -60c0 -48 4.16699 -94 12.5 -138s16.5 -81.333 24.5 -112c11.333 25.333 28.5 44.166 51.5 56.499s50.833 18.5 83.5 18.5c45.333 0 81.166 -11.667 107.499 -35s39.5 -60 39.5 -110
s-13.167 -90 -39.5 -120s-62.166 -45 -107.499 -45s-81.166 15 -107.499 45s-39.5 70 -39.5 120v18h-232c-34 0 -61.167 -8.33301 -81.5 -25s-34.5 -39 -42.5 -67c-7.33301 0.666992 -14.166 3.5 -20.499 8.5s-11.666 11 -15.999 18s-7.83301 14.667 -10.5 23
s-4 16.5 -4 24.5c0 27.333 3.5 53.166 10.5 77.499s17.833 45.5 32.5 63.5s33 32.333 55 43s47.667 16 77 16h138l-2 32c-0.666992 10.667 -1 21.334 -1 32.001c0 53.333 6.66699 109.666 20 168.999h-409v182h900zM706.997 294.002c0 7.33301 -1.16699 16.5 -3.5 27.5
s-6.16602 21.5 -11.499 31.5s-13 18.5 -23 25.5s-22.333 10.5 -37 10.5c-15.333 0 -27.833 -3.5 -37.5 -10.5s-17.167 -15.5 -22.5 -25.5s-9.16602 -20.5 -11.499 -31.5s-3.5 -20.167 -3.5 -27.5s1.16699 -16.333 3.5 -27s6.16602 -20.834 11.499 -30.501
s12.833 -18 22.5 -25s22.167 -10.5 37.5 -10.5c14.667 0 27 3.5 37 10.5s17.667 15.333 23 25s9.16602 19.834 11.499 30.501s3.5 19.667 3.5 27z" />
    <glyph glyph-name="uni183D" unicode="&#x183d;" horiz-adv-x="890" 
d="M900 909l-0.000976562 -181.998h-424c-4 -17.333 -7.5 -35 -10.5 -53s-4.5 -38 -4.5 -60c0 -78 5.66699 -144.167 17 -198.5s26.166 -98.5 44.499 -132.5s38.833 -58.833 61.5 -74.5s45 -23.5 67 -23.5c19.333 0 35 3.66699 47 11s21.833 15.5 29.5 24.5s14 17.333 19 25
s10.5 11.5 16.5 11.5c11.333 0 19.333 -5.5 24 -16.5s7 -26.5 7 -46.5c0 -20.667 -3.66699 -40 -11 -58s-17.5 -33.833 -30.5 -47.5s-28.167 -24.334 -45.5 -32.001s-36 -11.5 -56 -11.5c-30 0 -56 6 -78 18s-41.5 29.333 -58.5 52s-32 50.5 -45 83.5
s-25.167 70.833 -36.5 113.5h-179c-34 0 -61.167 -8.33301 -81.5 -25s-34.5 -39 -42.5 -67c-7.33301 0.666992 -14.166 3.5 -20.499 8.5s-11.666 11 -15.999 18s-7.83301 14.667 -10.5 23s-4 16.5 -4 24.5c0 27.333 3.5 53.166 10.5 77.499s17.833 45.5 32.5 63.5
s33 32.333 55 43s47.667 16 77 16h138l-2 32c-0.666992 10.667 -1 21.334 -1 32.001c0 53.333 6.66699 109.666 20 168.999h-410v182h901z" />
    <glyph glyph-name="uni183E" unicode="&#x183e;" horiz-adv-x="1077" 
d="M1117 909l-0.00195312 -182h-261c0 -38 13.333 -80 40 -126s62.667 -91.667 108 -137c-13.333 -14 -29.166 -34.833 -47.499 -62.5s-36.166 -57 -53.499 -88s-32.833 -61 -46.5 -90s-22.167 -51.833 -25.5 -68.5c-34 20 -69.667 47.667 -107 83s-72 77.5 -104 126.5
s-59.333 104 -82 165s-36 126.833 -40 197.5h-116c-2 -50 -6.5 -101 -13.5 -153s-14.833 -104.333 -23.5 -157l-36 -10c-13.333 28.667 -24.666 60.334 -33.999 95.001s-17.333 68.667 -24 102s-11.5 63.833 -14.5 91.5s-4.5 48.834 -4.5 63.501v150
c0 26.667 -3.16699 48.167 -9.5 64.5s-17.166 24.5 -32.499 24.5c-10.667 0 -20.167 -0.833008 -28.5 -2.5s-16.333 -4.16699 -24 -7.5s-15.5 -7.33301 -23.5 -12s-17 -10.334 -27 -17.001c-16.667 -11.333 -29.5 -21.166 -38.5 -29.499s-15.833 -12.5 -20.5 -12.5
c-7.33301 6.66699 -13.833 14.167 -19.5 22.5s-8.5 15.5 -8.5 21.5c7.33301 7.33301 15.666 16.666 24.999 27.999l28 33c44.667 51.333 82.667 88.333 114 111s59 34 83 34c30 0 53.333 -14.833 70 -44.5s25 -68.5 25 -116.5v-97h236v-142c0 -47.333 4.5 -91.5 13.5 -132.5
s22.667 -80.667 41 -119s41.5 -76 69.5 -113s60.667 -74.833 98 -113.5c6.66699 14 14 28.333 22 43l24.5 44l24.5 41.5c8 13 15.667 24.5 23 34.5c-20 22 -37.667 46.5 -53 73.5s-28.333 54.5 -39 82.5s-18.834 55.667 -24.501 83s-8.5 52.666 -8.5 75.999v142h345z" />
    <glyph glyph-name="uni183F" unicode="&#x183f;" horiz-adv-x="826" 
d="M836 909v-182.002h-139c-2 -50 -6.5 -101 -13.5 -153s-14.833 -104.333 -23.5 -157l-36 -10c-13.333 28.667 -24.666 60.334 -33.999 95.001s-17.333 68.667 -24 102s-11.5 63.833 -14.5 91.5s-4.5 48.834 -4.5 63.501v150c0 26.667 -3.16699 48.167 -9.5 64.5
s-17.166 24.5 -32.499 24.5c-10.667 0 -20.167 -0.833008 -28.5 -2.5s-16.333 -4.16699 -24 -7.5s-15.5 -7.33301 -23.5 -12s-17 -10.334 -27 -17.001c-16.667 -11.333 -29.5 -21.166 -38.5 -29.499s-15.833 -12.5 -20.5 -12.5c-7.33301 6.66699 -13.833 14.167 -19.5 22.5
s-8.5 15.5 -8.5 21.5c7.33301 7.33301 15.666 16.666 24.999 27.999l28 33c44.667 51.333 82.667 88.333 114 111s59 34 83 34c12.667 0 25 -3.33301 37 -10c0 23.333 -3.5 46.333 -10.5 69s-17 42.834 -30 60.501s-28.833 32 -47.5 43s-39.334 16.5 -62.001 16.5
c-53.333 0 -103 -14.5 -149 -43.5s-86.167 -68.833 -120.5 -119.5s-61.333 -110.167 -81 -178.5s-29.5 -141.833 -29.5 -220.5c0 -72 9.66699 -136.667 29 -194s44.5 -106.166 75.5 -146.499s65.667 -71.166 104 -92.499s76.5 -32 114.5 -32c11.333 0 21.333 3.66699 30 11
s13 18 13 32c0 10.667 -1 20 -3 28s-4.66699 15.167 -8 21.5s-6.83301 12.5 -10.5 18.5s-7.16699 12.667 -10.5 20l26 26c13.333 -6 26.833 -14.5 40.5 -25.5s26 -23.5 37 -37.5s20 -29 27 -45s10.5 -31.667 10.5 -47c0 -32 -8.16699 -57.667 -24.5 -77
s-41.166 -29 -74.499 -29c-73.333 0 -137.833 15.5 -193.5 46.5s-102.334 73.833 -140.001 128.5s-66.167 119 -85.5 193s-29 153.667 -29 239c-0 43.333 4.83301 88.666 14.5 135.999s23.5 93.666 41.5 138.999s40.167 88.5 66.5 129.5s56 76.833 89 107.5
s69.167 55.167 108.5 73.5s81.333 27.5 126 27.5c22.667 0 46.667 -5.83301 72 -17.5s48.5 -29.334 69.5 -53.001s38.333 -53.167 52 -88.5s20.5 -76.666 20.5 -123.999v-243h176z" />
    <glyph glyph-name="uni1840" unicode="&#x1840;" horiz-adv-x="1083" 
d="M1103 909l0.000976562 -181.999h-287c0 -38 13.333 -80 40 -126s62.667 -91.667 108 -137c-13.333 -14 -29.166 -34.833 -47.499 -62.5s-36.166 -57 -53.499 -88s-32.833 -61 -46.5 -90s-22.167 -51.833 -25.5 -68.5c-34 20 -69.667 47.667 -107 83s-72 77.5 -104 126.5
s-59.333 104 -82 165s-36 126.833 -40 197.5h-76c-2 -50 -6.5 -101 -13.5 -153s-14.833 -104.333 -23.5 -157l-36 -10c-13.333 28.667 -24.666 60.334 -33.999 95.001s-17.333 68.667 -24 102s-11.5 63.833 -14.5 91.5s-4.5 48.834 -4.5 63.501v150
c0 26.667 -3.16699 48.167 -9.5 64.5s-17.166 24.5 -32.499 24.5c-10.667 0 -20.167 -0.833008 -28.5 -2.5s-16.333 -4.16699 -24 -7.5s-15.5 -7.33301 -23.5 -12s-17 -10.334 -27 -17.001c-16.667 -11.333 -29.5 -21.166 -38.5 -29.499s-15.833 -12.5 -20.5 -12.5
c-7.33301 6.66699 -13.833 14.167 -19.5 22.5s-8.5 15.5 -8.5 21.5c7.33301 7.33301 15.666 16.666 24.999 27.999l28 33c42.667 49.333 79.334 85.333 110.001 108s57.667 35 81 37l20 139l-39 -1c-54.667 0 -94.834 15 -120.501 45s-38.5 69.333 -38.5 118c0 18 2 36 6 54
s12.667 35.667 26 53c3.33301 -24 8.16602 -44.167 14.499 -60.5s14.833 -29.5 25.5 -39.5s24.167 -17 40.5 -21s36.166 -6 59.499 -6c21.333 0 40.666 -2.33301 57.999 -7s29.333 -10.334 36 -17.001l-43 -269c18 -11.333 31.833 -30 41.5 -56s14.5 -57 14.5 -93v-97h196
v-142c0 -47.333 4.5 -91.5 13.5 -132.5s22.667 -80.667 41 -119s41.5 -76 69.5 -113s60.667 -74.833 98 -113.5c6.66699 14 14 28.333 22 43l24.5 44l24.5 41.5c8 13 15.667 24.5 23 34.5c-20 22 -37.667 46.5 -53 73.5s-28.333 54.5 -39 82.5s-18.834 55.667 -24.501 83
s-8.5 52.666 -8.5 75.999v142h371z" />
    <glyph glyph-name="uni1841" unicode="&#x1841;" horiz-adv-x="635" 
d="M645 909l-0.000976562 -181.998h-287c0 -38 13.333 -80 40 -126s62.667 -91.667 108 -137c-13.333 -14 -29.166 -34.833 -47.499 -62.5s-36.166 -57 -53.499 -88s-32.833 -61 -46.5 -90s-22.167 -51.833 -25.5 -68.5c-35.333 20.667 -72.5 50 -111.5 88
s-75 83.167 -108 135.5s-60.333 111.166 -82 176.499s-32.5 136 -32.5 212v142h84v-142c0 -47.333 4.5 -91.5 13.5 -132.5s22.667 -80.667 41 -119s41.5 -76 69.5 -113s60.667 -74.833 98 -113.5c6.66699 14 14 28.333 22 43l24.5 44l24.5 41.5c8 13 15.667 24.5 23 34.5
c-20 22 -37.667 46.5 -53 73.5s-28.333 54.5 -39 82.5s-18.834 55.667 -24.501 83s-8.5 52.666 -8.5 75.999v142h371z" />
    <glyph glyph-name="uni1842" unicode="&#x1842;" horiz-adv-x="910" 
d="M920 909l0.00195312 -182h-139v-137c0 -80.667 -14 -143.167 -42 -187.5s-72.333 -66.5 -133 -66.5s-106.334 22.167 -137.001 66.5s-46 106.833 -46 187.5v137h-66v-137c0 -80.667 -14 -143.167 -42 -187.5s-72.333 -66.5 -133 -66.5s-106.334 22.167 -137.001 66.5
s-46 106.833 -46 187.5v319h921zM303.002 727h-250v-137c0 -38 11.667 -66.5 35 -85.5s55.333 -28.5 96 -28.5c36.667 0 65.667 9.5 87 28.5s32 47.5 32 85.5v137zM727.002 727h-250v-137c0 -38 11.667 -66.5 35 -85.5s55.333 -28.5 96 -28.5c36.667 0 65.667 9.5 87 28.5
s32 47.5 32 85.5v137z" />
    <glyph glyph-name="glyph364" unicode="&#x1843;" horiz-adv-x="165" 
d="M182 909l0.000976562 -182h-192v182h44c0 22.667 -1.33301 45.167 -4 67.5s-5.5 43.666 -8.5 63.999s-5.66699 39.166 -8 56.499s-3.5 32.666 -3.5 45.999c0 17.333 4.66699 30.666 14 39.999s23.666 14 42.999 14c18 0 31.667 -4.66699 41 -14s14 -22.666 14 -39.999
c0 -13.333 -1.16699 -28.666 -3.5 -45.999s-5 -36.166 -8 -56.499s-5.66699 -41.666 -8 -63.999s-3.5 -44.833 -3.5 -67.5h83z" />
    <glyph glyph-name="uni1844" unicode="&#x1844;" horiz-adv-x="967" 
d="M977 909l-0.00390625 -181.998h-382c2 -34 6.33301 -67 13 -99s16.667 -60.5 30 -85.5s30.333 -45.667 51 -62s46 -26.5 76 -30.5c62.667 -8 97.334 -22.667 104.001 -44c2 -6 4.83301 -15.167 8.5 -27.5l11.5 -38.5c4 -13.333 7.5 -26 10.5 -38s5.16699 -21.333 6.5 -28
c-12 5.33301 -28.833 11.5 -50.5 18.5s-47.5 11.833 -77.5 14.5c-57.333 4.66699 -102.666 18 -135.999 40s-59.166 51 -77.499 87s-31 78.833 -38 128.5s-12.167 104.5 -15.5 164.5h-129c-2 -50 -6.5 -101.333 -13.5 -154s-14.833 -105.334 -23.5 -158.001l-36 -10
c-13.333 28.667 -24.666 60.667 -33.999 96s-17.333 69.666 -24 102.999s-11.5 63.833 -14.5 91.5s-4.5 48.834 -4.5 63.501v150c0 26.667 -3.16699 48.167 -9.5 64.5s-17.166 24.5 -32.499 24.5c-10.667 0 -20.167 -0.833008 -28.5 -2.5s-16.333 -4.16699 -24 -7.5
s-15.5 -7.33301 -23.5 -12s-17 -10.334 -27 -17.001c-16.667 -11.333 -29.5 -21.166 -38.5 -29.499s-15.833 -12.5 -20.5 -12.5c-7.33301 6.66699 -13.833 14.167 -19.5 22.5s-8.5 15.5 -8.5 21.5c7.33301 7.33301 15.666 16.666 24.999 27.999l28 33
c44.667 51.333 82.667 88.333 114 111s59 34 83 34c30 0 53.333 -14.833 70 -44.5s25 -68.5 25 -116.5v-97h632z" />
    <glyph glyph-name="uni1845" unicode="&#x1845;" horiz-adv-x="1100" 
d="M1060 770c0 -59.333 -2.83301 -112.168 -8.5 -158.501s-13.667 -90 -24 -131s-23 -80.667 -38 -119s-31.833 -78.5 -50.5 -120.5l-87 166c30 64.667 52.167 127.834 66.5 189.501s21.5 119.5 21.5 173.5c0 40 -5.83301 81 -17.5 123s-28.5 80.5 -50.5 115.5
s-49.167 64.667 -81.5 89s-69.5 39.166 -111.5 44.499c-12.667 0 -23.167 -3.66699 -31.5 -11s-12.5 -17.666 -12.5 -30.999v-638c0 -12.667 -1.83301 -25.167 -5.5 -37.5s-12.5 -18.5 -26.5 -18.5c-7.33301 0 -13 2 -17 6s-7.33301 8.83301 -10 14.5s-4.5 11.167 -5.5 16.5
s-1.83301 9.33301 -2.5 12l-64 272h-122c-2 -50 -6.5 -101.333 -13.5 -154s-14.833 -105.334 -23.5 -158.001l-36 -10c-13.333 28.667 -24.666 60.667 -33.999 96s-17.333 69.666 -24 102.999s-11.5 63.833 -14.5 91.5s-4.5 48.834 -4.5 63.501v150
c0 26.667 -3.16699 48.167 -9.5 64.5s-17.166 24.5 -32.499 24.5c-10.667 0 -20.167 -0.833008 -28.5 -2.5s-16.333 -4.16699 -24 -7.5s-15.5 -7.33301 -23.5 -12s-17 -10.334 -27 -17.001c-16.667 -11.333 -29.5 -21.166 -38.5 -29.499s-15.833 -12.5 -20.5 -12.5
c-7.33301 6.66699 -13.833 14.167 -19.5 22.5s-8.5 15.5 -8.5 21.5c7.33301 7.33301 15.666 16.666 24.999 27.999l28 33c44.667 51.333 82.667 88.333 114 111s59 34 83 34c30 0 53.333 -14.833 70 -44.5s25 -68.5 25 -116.5v-97h176l-1 323
c0 8.66699 0.666992 17.334 2 26.001s4 16.5 8 23.5s9.33301 12.833 16 17.5s15.334 7 26.001 7c17.333 0 31.166 -2 41.499 -6s19.666 -8.66699 27.999 -14s17.5 -10.666 27.5 -15.999s23 -9.66602 39 -12.999c52 -10.667 99.667 -31.334 143 -62.001s80.5 -68 111.5 -112
s55 -93 72 -147s25.5 -109.333 25.5 -166z" />
    <glyph glyph-name="uni1846" unicode="&#x1846;" horiz-adv-x="944" 
d="M945 909l-0.000976562 -640.998h-51c-22 0 -46.833 0.833008 -74.5 2.5s-56.5 5 -86.5 10s-58.5 12.667 -85.5 23s-50.833 23.833 -71.5 40.5s-35.667 37.667 -45 63l-24 320h-125c-2 -50 -6.5 -101.333 -13.5 -154s-14.833 -105.334 -23.5 -158.001l-36 -10
c-13.333 28.667 -24.666 60.667 -33.999 96s-17.333 69.666 -24 102.999s-11.5 63.833 -14.5 91.5s-4.5 48.834 -4.5 63.501v150c0 26.667 -3.16699 48.167 -9.5 64.5s-17.166 24.5 -32.499 24.5c-10.667 0 -20.167 -0.833008 -28.5 -2.5s-16.333 -4.16699 -24 -7.5
s-15.5 -7.33301 -23.5 -12s-17 -10.334 -27 -17.001c-16.667 -11.333 -29.5 -21.166 -38.5 -29.499s-15.833 -12.5 -20.5 -12.5c-7.33301 6.66699 -13.833 14.167 -19.5 22.5s-8.5 15.5 -8.5 21.5c7.33301 7.33301 15.666 16.666 24.999 27.999l28 33
c44.667 51.333 82.667 88.333 114 111s59 34 83 34c30 0 53.333 -14.833 70 -44.5s25 -68.5 25 -116.5v-97h600zM872.999 727.002h-293.999l19 -209c9.33301 -25.333 24 -45.5 44 -60.5s42.667 -26.667 68 -35s52.166 -14 80.499 -17s55.833 -5.5 82.5 -7.5v329z" />
    <glyph glyph-name="uni1847" unicode="&#x1847;" horiz-adv-x="1054" 
d="M1043 881c0 -24 -2.67285 -42.3291 -8.00586 -54.9961s-10 -19 -14 -19c-9.33301 0 -16.166 5.16699 -20.499 15.5s-9.16602 30.833 -14.499 61.5c-7.33301 47.333 -17.666 88.333 -30.999 123s-28.666 63.334 -45.999 86.001s-36.333 39.5 -57 50.5
s-42.334 16.5 -65.001 16.5c-108.667 0 -178 -83.667 -208 -251h236c56.667 0 85 -29 85 -87v-186c0 -34.667 -2.66699 -68.5 -8 -101.5s-14.166 -63.167 -26.499 -90.5s-28.666 -50.333 -48.999 -69s-45.5 -30.667 -75.5 -36c16.667 -86 61.667 -140 135 -162
c7.33301 -13.333 12.833 -28.333 16.5 -45s5.5 -30 5.5 -40s-1.83301 -19.833 -5.5 -29.5s-9.16699 -18.167 -16.5 -25.5c-18.667 6 -37.5 18.333 -56.5 37s-37.167 41.667 -54.5 69s-32.833 57.666 -46.5 90.999s-24.167 67.666 -31.5 102.999
c-26 2.66699 -48.333 11 -67 25s-34.5 31.667 -47.5 53s-23.5 45.333 -31.5 72s-14.167 54 -18.5 82s-7.33301 55.667 -9 83s-2.5 52.333 -2.5 75h-129c-2 -50 -6.5 -101.333 -13.5 -154s-14.833 -105.334 -23.5 -158.001l-36 -10c-13.333 28.667 -24.666 60.667 -33.999 96
s-17.333 69.666 -24 102.999s-11.5 63.833 -14.5 91.5s-4.5 48.834 -4.5 63.501v150c0 26.667 -3.16699 48.167 -9.5 64.5s-17.166 24.5 -32.499 24.5c-10.667 0 -20.167 -0.833008 -28.5 -2.5s-16.333 -4.16699 -24 -7.5s-15.5 -7.33301 -23.5 -12s-17 -10.334 -27 -17.001
c-16.667 -11.333 -29.5 -21.166 -38.5 -29.499s-15.833 -12.5 -20.5 -12.5c-7.33301 6.66699 -13.833 14.167 -19.5 22.5s-8.5 15.5 -8.5 21.5c7.33301 7.33301 15.666 16.666 24.999 27.999l28 33c44.667 51.333 82.667 88.333 114 111s59 34 83 34
c30 0 53.333 -14.833 70 -44.5s25 -68.5 25 -116.5v-97h166c9.33301 133.333 36.833 235.166 82.5 305.499s110.167 105.5 193.5 105.5c41.333 0 78 -11 110 -33s58.833 -52.5 80.5 -91.5s38 -85.333 49 -139s16.5 -112.167 16.5 -175.5zM835.994 727.004h-261.001
c0 -36 0.666992 -69.333 2 -100s6 -57.167 14 -79.5s20.833 -39.833 38.5 -52.5s42.834 -19 75.501 -19s57.834 6.16699 75.501 18.5s30.667 29.5 39 51.5s13.166 48.333 14.499 79s2 64.667 2 102z" />
    <glyph glyph-name="uni1848" unicode="&#x1848;" horiz-adv-x="945" 
d="M948 909l-0.00195312 -641.003h-51c-22 0 -46.833 0.833008 -74.5 2.5s-56.5 5 -86.5 10s-58.5 12.667 -85.5 23s-50.833 23.833 -71.5 40.5s-35.667 37.667 -45 63l-24 320h-128c-2 -50 -6.5 -101 -13.5 -153s-14.833 -105 -23.5 -159l-36 -10
c-13.333 28.667 -24.666 60.667 -33.999 96s-17.333 69.666 -24 102.999s-11.5 63.833 -14.5 91.5s-4.5 48.834 -4.5 63.501v150c0 26.667 -3.16699 48.167 -9.5 64.5s-17.166 24.5 -32.499 24.5c-10.667 0 -20.167 -0.833008 -28.5 -2.5s-16.333 -4.16699 -24 -7.5
s-15.5 -7.33301 -23.5 -12s-17 -10.334 -27 -17.001c-16.667 -11.333 -29.5 -21.166 -38.5 -29.499s-15.833 -12.5 -20.5 -12.5c-7.33301 6.66699 -13.833 14.167 -19.5 22.5s-8.5 15.5 -8.5 21.5c7.33301 7.33301 15.666 16.666 24.999 27.999l28 33
c44.667 51.333 82.667 88.333 114 111s59 34 83 34c30 0 53.333 -14.833 70 -44.5s25 -68.5 25 -116.5v-97h240v121c2.66699 12.667 0.666992 25.334 -6 38.001s-14.5 25.5 -23.5 38.5s-17.5 26 -25.5 39s-12 26.5 -12 40.5c0 18.667 7.66699 28 23 28
c10 0 23.5 -4.16699 40.5 -12.5s34.167 -17.5 51.5 -27.5c20.667 -12 38.834 -23.167 54.501 -33.5s23.5 -23.166 23.5 -38.499c0 -9.33301 -1.5 -17.666 -4.5 -24.999s-6.16699 -16.666 -9.5 -27.999l-46 -140h297zM875.998 726.997h-293.999l19 -209
c9.33301 -25.333 24 -45.5 44 -60.5s42.667 -26.667 68 -35s52.166 -14 80.499 -17s55.833 -5.5 82.5 -7.5v329z" />
    <glyph glyph-name="uni1849" unicode="&#x1849;" horiz-adv-x="1055" 
d="M1043 881c0 -24 -2.67188 -42.334 -8.00488 -55.001s-10 -19 -14 -19c-9.33301 0 -16.166 5.16699 -20.499 15.5s-9.16602 30.833 -14.499 61.5c-7.33301 47.333 -17.666 88.333 -30.999 123s-28.666 63.334 -45.999 86.001s-36.333 39.5 -57 50.5
s-42.334 16.5 -65.001 16.5c-108.667 0 -178 -83.667 -208 -251h236c56.667 0 85 -29 85 -87v-186c0 -38 -3.16699 -75 -9.5 -111s-17 -68 -32 -96s-35 -50.5 -60 -67.5s-56.167 -25.5 -93.5 -25.5c-28.667 0 -53.167 6.33301 -73.5 19s-37.666 29.667 -51.999 51
s-26 45.666 -35 72.999s-16 55.333 -21 84s-8.33301 57.334 -10 86.001s-2.5 54.667 -2.5 78h-129c-2 -50 -6.5 -101 -13.5 -153s-14.833 -104.333 -23.5 -157l-36 -10c-13.333 28.667 -24.666 60.334 -33.999 95.001s-17.333 68.667 -24 102s-11.5 63.833 -14.5 91.5
s-4.5 48.834 -4.5 63.501v150c0 26.667 -3.16699 48.167 -9.5 64.5s-17.166 24.5 -32.499 24.5c-10.667 0 -20.167 -0.833008 -28.5 -2.5s-16.333 -4.16699 -24 -7.5s-15.5 -7.33301 -23.5 -12s-17 -10.334 -27 -17.001c-16.667 -11.333 -29.5 -21.166 -38.5 -29.499
s-15.833 -12.5 -20.5 -12.5c-7.33301 6.66699 -13.833 14.167 -19.5 22.5s-8.5 15.5 -8.5 21.5c7.33301 7.33301 15.666 16.666 24.999 27.999l28 33c44.667 51.333 82.667 88.333 114 111s59 34 83 34c30 0 53.333 -14.833 70 -44.5s25 -68.5 25 -116.5v-97h166
c9.33301 133.333 36.833 235.166 82.5 305.499s110.167 105.5 193.5 105.5c41.333 0 78 -11 110 -33s58.833 -52.5 80.5 -91.5s38 -85.333 49 -139s16.5 -112.167 16.5 -175.5zM835.995 726.999h-261.001c0 -36 0.666992 -69.333 2 -100s6 -57.167 14 -79.5
s20.833 -39.833 38.5 -52.5s42.834 -19 75.501 -19s57.834 6.16699 75.501 18.5s30.667 29.5 39 51.5s13.166 48.333 14.499 79s2 64.667 2 102z" />
    <glyph glyph-name="uni184A" unicode="&#x184a;" horiz-adv-x="1150" 
d="M1139 544l-0.00390625 -329.997c0 -46 -4.16699 -85.833 -12.5 -119.5s-20.5 -63 -36.5 -88s-36 -46.5 -60 -64.5s-51.667 -34 -83 -48c-18 -8 -32.333 -15.167 -43 -21.5s-19.667 -13 -27 -20s-13.666 -15.333 -18.999 -25l-20 -36.5h-18l53 227l21.5 6
c7 2 14.667 4.5 23 7.5s17.333 6.83301 27 11.5s21.167 11 34.5 19c8 4.66699 17 10.667 27 18s19.5 16.666 28.5 27.999s16.667 25.666 23 42.999s9.5 38.333 9.5 63v330c0 59.333 -11.333 104.666 -34 135.999s-54 47 -94 47h-575c2 -34 6.33301 -67 13 -99
s16.667 -60.5 30 -85.5s30.333 -45.667 51 -62s46 -26.5 76 -30.5c62.667 -8 97.334 -22.667 104.001 -44c2 -6 4.83301 -15.167 8.5 -27.5l11.5 -38.5c4 -13.333 7.5 -26 10.5 -38s5.16699 -21.333 6.5 -28c-12 5.33301 -28.833 11.5 -50.5 18.5s-47.5 11.833 -77.5 14.5
c-57.333 4.66699 -102.666 18 -135.999 40s-59.166 51 -77.499 87s-31 78.833 -38 128.5s-12.167 104.5 -15.5 164.5h-130c-1.33301 -16 -3.33301 -38.333 -6 -67l-8.5 -89.5c-3 -31 -6.83301 -60.5 -11.5 -88.5s-9.33398 -50 -14.001 -66l-35 -11
c-20 50 -36.167 102.333 -48.5 157s-21.166 109.667 -26.499 165v182h939c66 0 115.833 -30.167 149.5 -90.5s50.5 -151.833 50.5 -274.5z" />
    <glyph glyph-name="uni184B" unicode="&#x184b;" horiz-adv-x="843" 
d="M833 544v-329.997c0 -46 -4.16699 -85.833 -12.5 -119.5s-20.5 -63 -36.5 -88s-36 -46.5 -60 -64.5s-51.667 -34 -83 -48c-18 -8 -32.333 -15.167 -43 -21.5s-19.667 -13 -27 -20s-13.666 -15.333 -18.999 -25l-20 -36.5h-18l53 227l21.5 6c7 2 14.667 4.5 23 7.5
s17.333 6.83301 27 11.5s21.167 11 34.5 19c8 4.66699 17 10.667 27 18s19.5 16.666 28.5 27.999s16.667 25.666 23 42.999s9.5 38.333 9.5 63v330c0 59.333 -11.333 104.666 -34 135.999s-54 47 -94 47h-277v-137c0 -80.667 -14 -143.167 -42 -187.5
s-72.333 -66.5 -133 -66.5s-106.334 22.167 -137.001 66.5s-46 106.833 -46 187.5v319h635c66 0 115.833 -30.167 149.5 -90.5s50.5 -151.833 50.5 -274.5zM302 727.003h-250v-137c0 -38 11.667 -66.5 35 -85.5s55.333 -28.5 96 -28.5c36.667 0 65.667 9.5 87 28.5
s32 47.5 32 85.5v137z" />
    <glyph glyph-name="uni184C" unicode="&#x184c;" horiz-adv-x="722" 
d="M710 874c0 -24 -2.6709 -42.333 -8.00391 -55s-10 -19 -14 -19c-9.33301 0 -16.166 5.16699 -20.499 15.5s-9.16602 30.833 -14.499 61.5c-7.33301 47.333 -17.666 88.5 -30.999 123.5s-28.666 64.167 -45.999 87.5s-36.333 40.666 -57 51.999s-42.334 17 -65.001 17
c-27.333 0 -53.5 -8 -78.5 -24s-47.167 -37.667 -66.5 -65s-34.666 -59.666 -45.999 -96.999s-17 -77 -17 -119c0 -67.333 8.16699 -129.333 24.5 -186s35 -107 56 -151s41.667 -81 62 -111s34.833 -52.333 43.5 -67c-50 13.333 -97.833 23.166 -143.5 29.499
s-86.5 9.5 -122.5 9.5c-57.333 0 -104.666 -7.33301 -141.999 -22v96l51 24l-10 253h-65v182h65v257c0 14 3 25.333 9 34s17.667 13 35 13c16.667 0 28 -5.5 34 -16.5s8.66699 -21.167 8 -30.5l-16 -257h41c3.33301 57.333 12.5 110.833 27.5 160.5
s34.667 92.834 59 129.501s52.666 65.5 84.999 86.5s67.833 31.5 106.5 31.5c41.333 0 78 -11.167 110 -33.5s58.833 -53.333 80.5 -93s38 -86.5 49 -140.5s16.5 -112.667 16.5 -176zM283.996 450c-23.333 42.667 -44.5 87.168 -63.5 133.501s-32.167 94.166 -39.5 143.499
h-46l-16 -248h22c32 -1.33301 59.667 -4.5 83 -9.5s43.333 -11.5 60 -19.5z" />
    <glyph glyph-name="uni184D" unicode="&#x184d;" horiz-adv-x="790" 
d="M799 909l-0.00292969 -182h-138c-1.33301 -16 -3.33301 -38.333 -6 -67s-5.66699 -58.5 -9 -89.5s-7.16602 -60.5 -11.499 -88.5s-8.83301 -50 -13.5 -66l-35 -11c-20 50 -36.167 102.333 -48.5 157s-21.166 109.667 -26.499 165h-129c-2 -50 -6.5 -101.333 -13.5 -154
s-14.833 -105.334 -23.5 -158.001l-36 -10c-13.333 28.667 -24.666 60.334 -33.999 95.001s-17.333 69 -24 103s-11.5 64.833 -14.5 92.5s-4.5 48.834 -4.5 63.501v150c0 26.667 -3.16699 48.167 -9.5 64.5s-17.166 24.5 -32.499 24.5
c-10.667 0 -20.167 -0.833008 -28.5 -2.5s-16.333 -4.16699 -24 -7.5s-15.5 -7.33301 -23.5 -12s-17 -10.334 -27 -17.001c-16.667 -11.333 -29.5 -21.166 -38.5 -29.499s-15.833 -12.5 -20.5 -12.5c-7.33301 6.66699 -13.833 14.167 -19.5 22.5s-8.5 15.5 -8.5 21.5
c7.33301 7.33301 15.666 16.666 24.999 27.999l28 33c44.667 51.333 82.667 88.333 114 111s59 34 83 34c30 0 53.333 -14.833 70 -44.5s25 -68.5 25 -116.5v-97h454zM365.997 178c0 -6.66699 -1.99902 -12.665 -5.99902 -17.998s-9.16699 -10.833 -15.5 -16.5
s-13.5 -11.667 -21.5 -18s-16 -13.833 -24 -22.5c-7.33301 -8 -13.666 -15.667 -18.999 -23l-14.5 -19.5c-4.33301 -5.66699 -8.5 -10.167 -12.5 -13.5s-8.33301 -5 -13 -5c-11.333 0 -20.833 2.83301 -28.5 8.5s-11.5 14.5 -11.5 26.5c0 15.333 1.16699 29.166 3.5 41.499
s6.16602 26.166 11.499 41.499c3.33301 9.33301 7.66602 19.333 12.999 30s11.5 20.5 18.5 29.5s14.667 16.333 23 22s17.5 8.5 27.5 8.5c10.667 0 22.667 -6 36 -18c22 -20 33 -38 33 -54zM635.998 178.002c0 -6.66699 -1.99902 -12.665 -5.99902 -17.998
s-9.16699 -10.833 -15.5 -16.5s-13.5 -11.667 -21.5 -18s-16 -13.833 -24 -22.5c-7.33301 -8 -13.666 -15.667 -18.999 -23l-14.5 -19.5c-4.33301 -5.66699 -8.5 -10.167 -12.5 -13.5s-8.33301 -5 -13 -5c-11.333 0 -20.833 2.83301 -28.5 8.5s-11.5 14.5 -11.5 26.5
c0 15.333 1.16699 29.166 3.5 41.499s6.16602 26.166 11.499 41.499c3.33301 9.33301 7.66602 19.333 12.999 30s11.5 20.5 18.5 29.5s14.667 16.333 23 22s17.5 8.5 27.5 8.5c10.667 0 22.667 -6 36 -18c22 -20 33 -38 33 -54z" />
    <glyph glyph-name="uni184E" unicode="&#x184e;" horiz-adv-x="790" 
d="M800 909l-0.000976562 -182h-139c-1.33301 -16 -3.33301 -38.333 -6 -67l-8.5 -89.5c-3 -31 -6.83301 -60.5 -11.5 -88.5s-9.33398 -50 -14.001 -66l-35 -11c-20 50 -36.167 102.333 -48.5 157s-21.166 109.667 -26.499 165h-129c-2 -50 -6.5 -101.333 -13.5 -154
s-14.833 -105.334 -23.5 -158.001l-36 -10c-13.333 28.667 -24.666 60.334 -33.999 95.001s-17.333 69 -24 103s-11.5 64.833 -14.5 92.5s-4.5 48.834 -4.5 63.501v150c0 26.667 -3.16699 48.167 -9.5 64.5s-17.166 24.5 -32.499 24.5
c-10.667 0 -20.167 -0.833008 -28.5 -2.5s-16.333 -4.16699 -24 -7.5s-15.5 -7.33301 -23.5 -12s-17 -10.334 -27 -17.001c-16.667 -11.333 -29.5 -21.166 -38.5 -29.499s-15.833 -12.5 -20.5 -12.5c-7.33301 6.66699 -13.833 14.167 -19.5 22.5s-8.5 15.5 -8.5 21.5
c7.33301 7.33301 15.666 16.666 24.999 27.999l28 33c44.667 51.333 82.667 88.333 114 111s59 34 83 34c30 0 53.333 -14.833 70 -44.5s25 -68.5 25 -116.5v-97h455zM620.999 146c0 -46 -12.833 -81.833 -38.5 -107.5s-61.5 -38.5 -107.5 -38.5
c-44.667 -0 -80 12.833 -106 38.5s-39 61.5 -39 107.5c0 39.333 12.667 71.333 38 96s61 37 107 37c47.333 0 83.5 -12.333 108.5 -37s37.5 -56.667 37.5 -96zM569.999 144c0 24.667 -8.33301 45.334 -25 62.001s-40 25 -70 25c-29.333 0 -52.333 -8.33301 -69 -25
s-25 -37.334 -25 -62.001c0 -29.333 8.5 -52.5 25.5 -69.5s39.833 -25.5 68.5 -25.5c30 0 53.333 8.5 70 25.5s25 40.167 25 69.5z" />
    <glyph glyph-name="uni184F" unicode="&#x184f;" horiz-adv-x="609" 
d="M569 1142l-52.498 -71.498c-17.667 -25 -34.5 -50.833 -50.5 -77.5s-31 -53.667 -45 -81s-25.667 -54.666 -35 -81.999c-11.333 -31.333 -21.833 -63.833 -31.5 -97.5s-18.167 -69.667 -25.5 -108s-13.5 -79.666 -18.5 -123.999s-7.83301 -92.833 -8.5 -145.5
c-53.333 43.333 -98.5 82.333 -135.5 117s-67.167 69.667 -90.5 105s-40.333 73.166 -51 113.499s-16 87.833 -16 142.5c0 92.667 3.33301 167.167 10 223.5s16.167 99.666 28.5 129.999s27.166 50.333 44.499 60s36.666 14.5 57.999 14.5c23.333 0 44 -5.16699 62 -15.5
s34.333 -24.166 49 -41.499s28 -37.5 40 -60.5s23.667 -47.167 35 -72.5c10.667 39.333 17.834 75.666 21.501 108.999s5.5 65.666 5.5 96.999c0 10.667 -1.5 23.667 -4.5 39s-6.5 30.5 -10.5 45.5s-7.5 28.667 -10.5 41s-4.5 21.166 -4.5 26.499c0 17.333 2.5 30 7.5 38
s14.167 12 27.5 12c11.333 0 25.666 -12.667 42.999 -38s36.333 -58.333 57 -99c22 -44 42.167 -82.167 60.5 -114.5s31.833 -60.833 40.5 -85.5zM302.002 973.002c-5.33301 18.667 -11.9961 37.001 -19.9961 55.001s-18 34 -30 48s-26.333 25.333 -43 34
s-36.334 13 -59.001 13c-14 0 -25.5 -9.16699 -34.5 -27.5s-16 -42 -21 -71s-8.33301 -61 -10 -96s-2.5 -68.833 -2.5 -101.5c0 -42 4.5 -77.333 13.5 -106s20.333 -53.334 34 -74.001s28.167 -39.167 43.5 -55.5s29.666 -33.5 42.999 -51.5c0 16 0.833008 37 2.5 63
s4.66699 55.167 9 87.5s10.666 66.833 18.999 103.5s19.166 74 32.499 112l12 34.5c4 11 7.66699 21.833 11 32.5z" />
    <glyph glyph-name="uni1850" unicode="&#x1850;" horiz-adv-x="436" 
d="M298 1051c0 8 -0.667969 16.166 -2.00098 24.499s-4.33301 15.833 -9 22.5s-11.334 12 -20.001 16s-20.334 6 -35.001 6c-31.333 0 -57.5 -10 -78.5 -30s-37.667 -44.167 -50 -72.5s-21.166 -57.833 -26.499 -88.5s-8 -56.667 -8 -78c0 -44 8.5 -82.667 25.5 -116
s37.833 -62.666 62.5 -87.999l120 -124c4 10 7.33301 23.333 10 40s4.83398 35 6.50098 55s2.83398 41 3.50098 63s1 43.333 1 64v306zM459.999 908.999v-182.001h-93c0 -13.333 -0.5 -30 -1.5 -50s-2.5 -41.5 -4.5 -64.5s-4.33301 -47 -7 -72s-5.5 -49 -8.5 -72
s-6.5 -44.5 -10.5 -64.5s-8 -36.667 -12 -50h-30l-39 34.5l-42 37l-41.5 37.5l-37.5 36c-35.333 35.333 -62.166 66.5 -80.499 93.5s-31.333 53.167 -39 78.5s-11.834 51.333 -12.501 78s-1 57.334 -1 92.001c0 67.333 6.33301 128 19 182s30.667 100 54 138
s51.333 67.333 84 88s69 31 109 31c67.333 0 101 -43.333 101 -130v-241h93z" />
    <glyph glyph-name="uni1851" unicode="&#x1851;" horiz-adv-x="468" 
d="M304 450l-114 277h-105l124 -390zM484 909v-182h-242l157 -308l-202 -274h-14l-183 582v182h484z" />
    <glyph glyph-name="uni1852" unicode="&#x1852;" horiz-adv-x="544" 
d="M319 218c0 37.333 -9.66797 65.001 -29.001 83.001s-42 27 -68 27c-18 0 -32.667 -3.16699 -44 -9.5s-20.333 -14.5 -27 -24.5s-11.167 -21 -13.5 -33s-3.5 -23.667 -3.5 -35c0 -25.333 7.83301 -47.333 23.5 -66s36.834 -28 63.501 -28c16 0 30.167 2.66699 42.5 8
s22.5 12.166 30.5 20.499s14.167 17.5 18.5 27.5s6.5 20 6.5 30zM566.999 909.001l0.00585938 -182.001h-134v-137c0 -58 -13.333 -105.833 -40 -143.5s-69.334 -62.167 -128.001 -73.5c22 -6 40.333 -14.333 55 -25s26.167 -22.834 34.5 -36.501s14.166 -28.5 17.499 -44.5
s5 -32.333 5 -49c0 -54 -13.5 -95.833 -40.5 -125.5s-65.5 -44.5 -115.5 -44.5c-26.667 0 -49.667 5.83301 -69 17.5s-35.333 27.667 -48 48s-22 44.333 -28 72s-9 57.834 -9 90.501c0 18.667 2.16699 39.167 6.5 61.5s11.666 44 21.999 65s24.166 39.667 41.499 56
s38.666 27.5 63.999 33.5c38 8.66699 67.667 17.834 89 27.501s37.166 20.5 47.499 32.5s16.833 25.667 19.5 41s4.66699 33.333 6 54v80h-366v182h570z" />
    <glyph glyph-name="uni1853" unicode="&#x1853;" horiz-adv-x="550" 
d="M566 909v-181.999h-93c-4 -8.66699 -7.5 -19.167 -10.5 -31.5s-5.33301 -25.166 -7 -38.499s-3 -26.5 -4 -39.5s-1.5 -24.167 -1.5 -33.5c0 -20 1.33301 -42 4 -66s6.16699 -48.167 10.5 -72.5s9 -47.5 14 -69.5l12.5 -55h-251c-11.333 0 -23.333 -2.5 -36 -7.5
s-24.5 -11.5 -35.5 -19.5s-20.167 -17.167 -27.5 -27.5s-11 -20.833 -11 -31.5s1.33301 -20.834 4 -30.501s7 -18.167 13 -25.5s14.333 -13.166 25 -17.499s24 -6.5 40 -6.5h140c80.667 -7.33301 126.334 -65 137.001 -173c-13.333 8.66699 -28 16.167 -44 22.5
s-32.833 11.666 -50.5 15.999s-36.167 8.16602 -55.5 11.499l-57 10c-37.333 6.66699 -69.166 15.5 -95.499 26.5s-48 24.833 -65 41.5s-29.333 36.667 -37 60s-11.5 50.666 -11.5 81.999c0 32 3.33301 63 10 93s17 56.833 31 80.5s32.167 42.5 54.5 56.5s49.5 21 81.5 21
h128c-0.666992 38.667 1.16602 76.334 5.49902 113.001s11.166 73.667 20.499 111h-408v182h570z" />
    <glyph glyph-name="uni1854" unicode="&#x1854;" horiz-adv-x="536" 
d="M554 909l-0.00292969 -182.002h-129v-98c0 -43.333 -3.33301 -79.166 -10 -107.499s-16.167 -51.5 -28.5 -69.5s-27.166 -32.333 -44.499 -43s-36.666 -20 -57.999 -28l-59 -21c-19.333 -6.66699 -36.666 -14.334 -51.999 -23.001s-27.833 -18.5 -37.5 -29.5
s-14.5 -24.167 -14.5 -39.5h-27c-5.33301 10 -10.333 22.333 -15 37s-7 31 -7 49c0 22 4 40.833 12 56.5s19.5 29.834 34.5 42.501s33 24 54 34s44.5 20.333 70.5 31c22.667 9.33301 41 18.833 55 28.5s24.667 20.334 32 32.001s12.333 25.167 15 40.5s4 33 4 53v55h-360
v182h565z" />
    <glyph glyph-name="uni1855" unicode="&#x1855;" horiz-adv-x="358" 
d="M370 909l-0.00195312 -181.996h-302v-43c0 -20.667 3.16699 -39.334 9.5 -56.001s13.833 -31.834 22.5 -45.501s17.334 -25.334 26.001 -35.001s15.334 -17.834 20.001 -24.501l96 -106v-26l-60 -217h-17l-104 284c-4.66699 13.333 -10.5 29 -17.5 47
s-13.667 37.167 -20 57.5s-11.833 40.833 -16.5 61.5s-7 40.667 -7 60v225h370z" />
    <glyph glyph-name="uni1856" unicode="&#x1856;" horiz-adv-x="523" 
d="M539 909l-0.000976562 -182h-473l87 -263c14.667 18.667 34 33.334 58 44.001s52 16 84 16c56.667 0 99.834 -14.833 129.501 -44.5s44.5 -67.834 44.5 -114.501c0 -54 -15.167 -96.5 -45.5 -127.5s-73.166 -46.5 -128.499 -46.5c-32 0 -58.333 5.83301 -79 17.5
s-37.834 27.5 -51.501 47.5s-25.167 43.167 -34.5 69.5l-28 82.5l-104 319v182h541zM399.999 363c0 27.333 -8.99902 50.166 -26.999 68.499s-44 27.5 -78 27.5c-32.667 0 -58.167 -9.16699 -76.5 -27.5s-27.5 -41.166 -27.5 -68.499c0 -32.667 9.33301 -58.5 28 -77.5
s44 -28.5 76 -28.5c33.333 0 59.166 9.5 77.499 28.5s27.5 44.833 27.5 77.5z" />
    <glyph glyph-name="uni1857" unicode="&#x1857;" horiz-adv-x="475" 
d="M450 864c0 -20 -1.16504 -34.4971 -3.49805 -43.4971s-7.83301 -13.5 -16.5 -13.5c-7.33301 0 -13 4.16699 -17 12.5s-7.33301 17.833 -10 28.5l-19.5 88.5c-7 31.667 -15.833 61.167 -26.5 88.5s-24.334 50 -41.001 68s-37.667 27 -63 27c-28 0 -52.333 -7.5 -73 -22.5
s-37.667 -35.5 -51 -61.5s-23.333 -56.333 -30 -91s-10.334 -71.667 -11.001 -111c0 -60 6.5 -110.333 19.5 -151s26.167 -71.667 39.5 -93c10 -16 19.667 -30.167 29 -42.5l25.5 -34.5c7.66699 -10.667 13.667 -20.834 18 -30.501s6.5 -20.5 6.5 -32.5
c0 -13.333 -3.33301 -21 -10 -23s-17 -3 -31 -3h-117c-19.333 0 -32.5 3.16699 -39.5 9.5s-10.5 15.166 -10.5 26.499c0 8.66699 3.5 15.667 10.5 21s14.5 10.5 22.5 15.5s15.5 10.833 22.5 17.5s10.5 15.667 10.5 27c0 16 -3.33301 30.167 -10 42.5s-14 27.833 -22 46.5
s-15.333 43.167 -22 73.5s-10 71.833 -10 124.5c0 64.667 5.16699 124.5 15.5 179.5s25.5 102.667 45.5 143s44.5 72 73.5 95s62.167 34.5 99.5 34.5c38.667 0 70.667 -12.333 96 -37s45.333 -56.834 60 -96.501s25 -84.167 31 -133.5s9 -99 9 -149z" />
    <glyph glyph-name="uni1858" unicode="&#x1858;" horiz-adv-x="535" 
d="M526 836c0 -20 -1.16504 -34.502 -3.49805 -43.502s-7.83301 -13.5 -16.5 -13.5c-7.33301 0 -13 4.16699 -17 12.5s-7.33301 17.833 -10 28.5c-6 27.333 -12.167 58.333 -18.5 93s-15.333 67.334 -27 98.001s-27.334 56.5 -47.001 77.5s-46.167 31.5 -79.5 31.5
c-24 0 -48 -6.5 -72 -19.5s-45.667 -31.833 -65 -56.5s-35 -54.334 -47 -89.001s-18 -73.334 -18 -116.001c0 -44.667 5 -84.167 15 -118.5s22.333 -65.166 37 -92.499s30.334 -51.833 47.001 -73.5l45 -59.5l-37 -193h-13c-16 27.333 -31.167 54.833 -45.5 82.5
s-27.5 56.167 -39.5 85.5c-25.333 -10.667 -47.833 -17.5 -67.5 -20.5s-31.834 -4.5 -36.501 -4.5c-6.66699 0 -10 3.66699 -10 11c0 1.33301 0.666992 5.5 2 12.5s4.5 16.333 9.5 28s12.5 24.834 22.5 39.501s23.667 30.667 41 48l-35 143v182
c5.33301 50.667 16.166 98.5 32.499 143.5s36.5 84.333 60.5 118s51 60.334 81 80.001s61.333 29.5 94 29.5c46.667 0 84.334 -13.833 113.001 -41.5s50.667 -63 66 -106s25.666 -90.667 30.999 -143s8 -103.5 8 -153.5z" />
    <glyph glyph-name="uni1859" unicode="&#x1859;" horiz-adv-x="1239" 
d="M1212 697l0.000976562 -93.998c0 -38 -6.5 -68.667 -19.5 -92s-29.167 -35 -48.5 -35v19c0 72 -13.167 128.167 -39.5 168.5s-65.833 61.5 -118.5 63.5h-349c0 -38 13.333 -80 40 -126s62.667 -91.667 108 -137c-13.333 -14 -29.166 -34.833 -47.499 -62.5
s-36.166 -57 -53.499 -88s-32.833 -61 -46.5 -90s-22.167 -51.833 -25.5 -68.5c-34 20 -69.667 47.667 -107 83s-72 77.5 -104 126.5s-59.333 104 -82 165s-36 126.833 -40 197.5h-130c-1.33301 -16 -3.33301 -38.333 -6 -67l-8 -89.5
c-2.66699 -31 -6.33398 -60.5 -11.001 -88.5s-9.33398 -50 -14.001 -66l-35 -11c-22 50 -38.833 102.333 -50.5 157s-20.167 109.667 -25.5 165v182h363v-142c0 -47.333 4.5 -91.5 13.5 -132.5s22.667 -80.667 41 -119s41.5 -76 69.5 -113s60.667 -74.833 98 -113.5
c6.66699 14 14 28.333 22 43l24.5 44l24.5 41.5c8 13 15.667 24.5 23 34.5c-20 22 -37.667 46.5 -53 73.5s-28.333 54.5 -39 82.5s-18.834 55.667 -24.501 83s-8.5 52.666 -8.5 75.999v142h502c50 -4.66699 88.667 -25.334 116 -62.001s41 -86.667 41 -150z" />
    <glyph glyph-name="uni185A" unicode="&#x185a;" horiz-adv-x="690" 
d="M311 727l-253.002 -0.000976562c0 -39.333 2.83301 -72.166 8.5 -98.499s14.334 -47.5 26.001 -63.5s26.334 -27.333 44.001 -34s38.5 -10 62.5 -10c36.667 0 64.5 16.667 83.5 50s28.5 85.333 28.5 156zM699.998 908.999l0.00195312 -182.007h-125
c-8 -50 -19.333 -100 -34 -150s-32.167 -96.167 -52.5 -138.5s-43.5 -78.666 -69.5 -108.999s-54 -50.833 -84 -61.5l50.5 -17c20.333 -6.66699 40.166 -14.334 59.499 -23.001s36 -18.334 50 -29.001s21 -22 21 -34c0 -11.333 -5.66699 -22.666 -17 -33.999l-64.5 24
c-21.667 8 -42.834 15.167 -63.501 21.5s-40 11.5 -58 15.5s-34 6 -48 6c-15.333 0 -29.333 -0.166992 -42 -0.5s-24.667 -0.5 -36 -0.5c-22.667 0 -38.334 4 -47.001 12s-13 20 -13 36c0 6 0.333008 10.833 1 14.5s1 6.5 1 8.5h20c50 0 96.5 12.833 139.5 38.5
s80 62.334 111 110.001s55.333 105.334 73 173.001s26.5 143.834 26.5 228.501c0 61.333 -5.33301 113.5 -16 156.5s-26.167 78.333 -46.5 106s-44.833 47.834 -73.5 60.501s-61 19 -97 19c-66.667 0.666992 -117.167 -20.166 -151.5 -62.499
s-53.166 -105.166 -56.499 -188.499h321v-225c0 -101.333 -14.833 -177.166 -44.5 -227.499s-75.834 -75.5 -138.501 -75.5c-127.333 0 -196 115.333 -206 346v182c6 68 16 127.5 30 178.5s33.167 93.833 57.5 128.5s54.333 60.667 90 78s77.834 26 126.501 26
c43.333 0 81.5 -9.33301 114.5 -28s61 -45.5 84 -80.5s41 -78 54 -129s21.167 -108.833 24.5 -173.5h129z" />
    <glyph glyph-name="uni185B" unicode="&#x185b;" horiz-adv-x="507" 
d="M513 909l-0.00195312 -181.999h-440c1.33301 -23.333 3.5 -50 6.5 -80s7.33301 -60.667 13 -92s13.334 -61.833 23.001 -91.5s21.834 -56.167 36.501 -79.5s32.167 -42.166 52.5 -56.499s43.833 -21.5 70.5 -21.5c19.333 0 33.833 3.66699 43.5 11s17.167 15.5 22.5 24.5
s9.5 17.333 12.5 25s7.5 11.5 13.5 11.5c11.333 0 19.333 -5.5 24 -16.5s7 -26.5 7 -46.5c0 -20.667 -2.66699 -40 -8 -58s-13.333 -33.833 -24 -47.5s-23.5 -24.334 -38.5 -32.001s-32.5 -11.5 -52.5 -11.5c-33.333 0 -63.166 9.16699 -89.499 27.5
s-49.666 42.666 -69.999 72.999s-37.5 65 -51.5 104s-25.5 79.333 -34.5 121s-15.667 83 -20 124s-6.5 78.167 -6.5 111.5v409c0 9.33301 1.5 16.833 4.5 22.5s9.5 8.5 19.5 8.5c4.66699 0 10.667 -1.33301 18 -4l23.5 -8.5c8.33301 -3 17.333 -5.66699 27 -8
s19.167 -3.5 28.5 -3.5c40 0 74.333 2.83301 103 8.5s52.834 11.834 72.501 18.501s34.667 12.834 45 18.501s17.166 8.5 20.499 8.5c5.33301 0 8.5 -0.833008 9.5 -2.5s1.5 -5.5 1.5 -11.5c0 -4 -4.83301 -11.167 -14.5 -21.5s-20.334 -25.333 -32.001 -45
s-22.334 -44.334 -32.001 -74.001s-14.5 -65.834 -14.5 -108.501v-14c0 -4 0.333008 -7.66699 1 -11h229zM247.998 1077c-19.333 -5.33301 -40.8359 -9 -64.5029 -11s-46.5 -3 -68.5 -3c-13.333 0 -22.666 0.5 -27.999 1.5s-10.666 1.5 -15.999 1.5v-157h156
c0 6 -0.166992 11.167 -0.5 15.5s-0.5 9.83301 -0.5 16.5s0.5 15.667 1.5 27s2.33301 23.5 4 36.5s3.83398 25.833 6.50098 38.5s6 24 10 34z" />
    <glyph glyph-name="uni185C" unicode="&#x185c;" horiz-adv-x="610" 
d="M614 909l-0.00390625 -182.002h-119c-4 -17.333 -7.5 -35 -10.5 -53s-4.5 -38 -4.5 -60c0 -33.333 2.16699 -65.666 6.5 -96.999s9.5 -60.5 15.5 -87.5s11.833 -50.667 17.5 -71s9.83398 -35.833 12.501 -46.5h-45l36 -253h-73
c-29.333 0.666992 -54.166 -0.166016 -74.499 -2.49902s-37.166 -6.16602 -50.499 -11.499s-23.833 -12 -31.5 -20s-13.834 -16.667 -18.501 -26c-3.33301 7.33301 -5.5 14 -6.5 20s-1.5 11.667 -1.5 17c0 46.667 13.333 81.5 40 104.5s66 34.5 118 34.5
c4 0 8.5 -0.333008 13.5 -1s10.5 -1 16.5 -1l-21 139h-161c-34 0 -61.167 -8.33301 -81.5 -25s-34.5 -39 -42.5 -67c-7.33301 0.666992 -14.166 3.5 -20.499 8.5s-11.666 11 -15.999 18s-7.83301 14.667 -10.5 23s-4 16.5 -4 24.5c0 27.333 3.5 53.166 10.5 77.499
s17.833 45.5 32.5 63.5s33 32.333 55 43s47.667 16 77 16h138l-2 32c-0.666992 10.667 -1 21.334 -1 32.001c0 53.333 6.66699 109.666 20 168.999h-429v182h615z" />
    <glyph glyph-name="uni185D" unicode="&#x185d;" horiz-adv-x="702" 
d="M665 1358l-132.998 -211.499c-42.667 -70.333 -79 -142.5 -109 -216.5c-39.333 -95.333 -71.5 -194 -96.5 -296s-41.833 -209.333 -50.5 -322c-50 30.667 -92.333 64.167 -127 100.5s-63 74 -85 113s-38 78 -48 117s-15 76.167 -15 111.5l-1 155h68v-155
c0 -32 4.5 -62 13.5 -90s20.167 -53.333 33.5 -76s27.333 -42.667 42 -60s27.667 -31.333 39 -42c-4 14.667 -4.5 40 -1.5 76s9 77.333 18 124s20.333 96 34 148s29.5 101.333 47.5 148l63 162c20 51.333 37.667 98.666 53 141.999s27.666 82.5 36.999 117.5
s14 64.833 14 89.5c0 10.667 -1.5 25 -4.5 43s-6.16699 36 -9.5 54l-9.5 49.5c-3 15 -4.5 25.167 -4.5 30.5c0 17.333 2.16699 30 6.5 38s13.166 12 26.499 12c4 0 9.66699 -4.16699 17 -12.5s14.333 -18.833 21 -31.5l42.5 -84l36.5 -74l37.5 -74.5zM148.002 1228
c0 -6.66699 -1.99902 -12.665 -5.99902 -17.998s-9.16699 -10.833 -15.5 -16.5s-13.5 -11.667 -21.5 -18s-16 -13.833 -24 -22.5c-7.33301 -8 -13.666 -15.667 -18.999 -23l-14.5 -19.5c-4.33301 -5.66699 -8.5 -10.167 -12.5 -13.5s-8.33301 -5 -13 -5
c-11.333 0 -20.833 2.83301 -28.5 8.5s-11.5 14.5 -11.5 26.5c0 15.333 1.16699 29.166 3.5 41.499s6.16602 26.166 11.499 41.499c3.33301 9.33301 7.66602 19.333 12.999 30s11.5 20.5 18.5 29.5s14.667 16.333 23 22s17.5 8.5 27.5 8.5c10.667 0 22.667 -6 36 -18
c22 -20 33 -38 33 -54z" />
    <glyph glyph-name="uni185E" unicode="&#x185e;" horiz-adv-x="682" 
d="M692 909v-182h-343l208 -276v-24l-44 -208h-23l-209 508h-130c-1.33301 -16 -3.33301 -38.333 -6 -67s-5.66699 -58.5 -9 -89.5s-7.33301 -60.5 -12 -88.5s-9.33398 -50 -14.001 -66l-35 -11c-20 50 -36.167 102.333 -48.5 157s-21.166 109.667 -26.499 165v182h692z" />
    <glyph glyph-name="uni185F" unicode="&#x185f;" horiz-adv-x="282" 
d="M88 976l59 191h60l-97 -233h-44l-96 233h60zM294 909v-182h-143c-1.33301 -16 -3.33301 -38.333 -6 -67s-5.66699 -58.5 -9 -89.5s-7.33301 -60.5 -12 -88.5s-9.33398 -50 -14.001 -66l-35 -11c-20 50 -36.167 102.333 -48.5 157s-21.166 109.667 -26.499 165v182h294z
" />
    <glyph glyph-name="uni1860" unicode="&#x1860;" horiz-adv-x="858" 
d="M869 909v-319.001c0 -80.667 -14 -143.167 -42 -187.5s-72.333 -66.5 -133 -66.5s-106.334 22.167 -137.001 66.5s-46 106.833 -46 187.5v137h-129c-2 -50 -6.5 -101 -13.5 -153s-14.833 -104.333 -23.5 -157l-36 -10c-13.333 28.667 -24.666 60.334 -33.999 95.001
s-17.333 68.667 -24 102s-11.5 63.833 -14.5 91.5s-4.5 48.834 -4.5 63.501v150c0 26.667 -3.16699 48.167 -9.5 64.5s-17.166 24.5 -32.499 24.5c-10.667 0 -20.167 -0.833008 -28.5 -2.5s-16.333 -4.16699 -24 -7.5s-15.5 -7.33301 -23.5 -12s-17 -10.334 -27 -17.001
c-16.667 -11.333 -29.5 -21.166 -38.5 -29.499s-15.833 -12.5 -20.5 -12.5c-7.33301 6.66699 -13.833 14.167 -19.5 22.5s-8.5 15.5 -8.5 21.5c7.33301 7.33301 15.666 16.666 24.999 27.999l28 33c44.667 51.333 82.667 88.333 114 111s59 34 83 34
c30 0 53.333 -14.833 70 -44.5s25 -68.5 25 -116.5v-97h524zM815 726.999h-250v-137c0 -38 11.667 -66.5 35 -85.5s55.333 -28.5 96 -28.5c36.667 0 65.667 9.5 87 28.5s32 47.5 32 85.5v137zM783 1228c0 -6.66699 -1.99902 -12.665 -5.99902 -17.998
s-9.16699 -10.833 -15.5 -16.5s-13.5 -11.667 -21.5 -18s-16 -13.833 -24 -22.5c-7.33301 -8 -13.666 -15.667 -18.999 -23l-14.5 -19.5c-4.33301 -5.66699 -8.5 -10.167 -12.5 -13.5s-8.33301 -5 -13 -5c-11.333 0 -20.833 2.83301 -28.5 8.5s-11.5 14.5 -11.5 26.5
c0 15.333 1.16699 29.166 3.5 41.499s6.16602 26.166 11.499 41.499c3.33301 9.33301 7.66602 19.333 12.999 30s11.5 20.5 18.5 29.5s14.667 16.333 23 22s17.5 8.5 27.5 8.5c10.667 0 22.667 -6 36 -18c22 -20 33 -38 33 -54z" />
    <glyph glyph-name="uni1861" unicode="&#x1861;" horiz-adv-x="880" 
d="M894 909l0.000976562 -182h-340l208 -276v-24l-44 -208h-23l-209 508h-128v-137c0 -80.667 -14 -143.167 -42 -187.5s-72.333 -66.5 -133 -66.5s-106.334 22.167 -137.001 66.5s-46 106.833 -46 187.5v319h894zM304.001 727h-250v-137c0 -38 11.667 -66.5 35 -85.5
s55.333 -28.5 96 -28.5c36.667 0 65.667 9.5 87 28.5s32 47.5 32 85.5v137z" />
    <glyph glyph-name="uni1862" unicode="&#x1862;" horiz-adv-x="975" 
d="M940 544l-0.000976562 -329.997c0 -46 -4.16699 -85.833 -12.5 -119.5s-20.5 -63 -36.5 -88s-36 -46.5 -60 -64.5s-51.667 -34 -83 -48c-18 -8 -32.333 -15.167 -43 -21.5s-19.667 -13 -27 -20s-13.666 -15.333 -18.999 -25l-20 -36.5h-18l53 227l21.5 6
c7 2 14.667 4.5 23 7.5s17.333 6.83301 27 11.5s21.167 11 34.5 19c8 4.66699 17 10.667 27 18s19.5 16.666 28.5 27.999s16.667 25.666 23 42.999s9.5 38.333 9.5 63v330c0 59.333 -11.333 104.666 -34 135.999s-54 47 -94 47h-310c-1.33301 -16 -3.33301 -38.333 -6 -67
s-5.66699 -58.5 -9 -89.5s-7.33301 -60.5 -12 -88.5s-9.33398 -50 -14.001 -66l-35 -11c-20 50 -36.167 102.333 -48.5 157s-21.166 109.667 -26.499 165h-128c-1.33301 -16 -3.33301 -38.333 -6 -67s-5.66699 -58.5 -9 -89.5s-7.33301 -60.5 -12 -88.5
s-9.33398 -50 -14.001 -66l-35 -11c-20 50 -36.167 102.333 -48.5 157s-21.166 109.667 -26.499 165v182h740c66 0 115.833 -30.167 149.5 -90.5s50.5 -151.833 50.5 -274.5z" />
    <glyph glyph-name="uni1863" unicode="&#x1863;" horiz-adv-x="718" 
d="M693 1358l-133.001 -211.498c-42.667 -70.333 -79 -142.5 -109 -216.5c-39.333 -95.333 -71.5 -194 -96.5 -296s-41.833 -209.333 -50.5 -322c-37.333 19.333 -72.166 45.833 -104.499 79.5s-60.666 70 -84.999 109s-44.166 78.5 -59.499 118.5s-24.333 76 -27 108h-28
v182h96v-110c0 -25.333 4.5 -53.833 13.5 -85.5s20.167 -62.5 33.5 -92.5s27.333 -57.333 42 -82s27.667 -42.334 39 -53.001c-4 14.667 -4.5 40 -1.5 76s9 77.333 18 124s20.333 96 34 148s29.5 101.333 47.5 148l63 162c20 51.333 37.667 98.666 53 141.999
s27.666 82.5 36.999 117.5s14 64.833 14 89.5c0 10.667 -1.5 25 -4.5 43s-6.16699 36 -9.5 54l-9.5 49.5c-3 15 -4.5 25.167 -4.5 30.5c0 17.333 2.16699 30 6.5 38s13.166 12 26.499 12c4 0 9.66699 -4.16699 17 -12.5s14.333 -18.833 21 -31.5l42.5 -84l36.5 -74
l37.5 -74.5zM516.999 340.002c0 -6.66699 -1.99902 -12.665 -5.99902 -17.998s-9.16699 -10.833 -15.5 -16.5s-13.5 -11.667 -21.5 -18s-16 -13.833 -24 -22.5c-7.33301 -8 -13.666 -15.667 -18.999 -23l-14.5 -19.5c-4.33301 -5.66699 -8.5 -10.167 -12.5 -13.5
s-8.33301 -5 -13 -5c-11.333 0 -20.833 2.83301 -28.5 8.5s-11.5 14.5 -11.5 26.5c0 15.333 1.16699 29.166 3.5 41.499s6.16602 26.166 11.499 41.499c3.33301 9.33301 7.66602 19.333 12.999 30s11.5 20.5 18.5 29.5s14.667 16.333 23 22s17.5 8.5 27.5 8.5
c10.667 0 22.667 -6 36 -18c22 -20 33 -38 33 -54zM659 136.004c0 -6.66699 -1.99902 -12.665 -5.99902 -17.998s-9.16699 -10.833 -15.5 -16.5s-13.5 -11.667 -21.5 -18s-16 -13.833 -24 -22.5c-7.33301 -8 -13.666 -15.667 -18.999 -23l-14.5 -19.5
c-4.33301 -5.66699 -8.5 -10.167 -12.5 -13.5s-8.33301 -5 -13 -5c-11.333 0 -20.833 2.83301 -28.5 8.5s-11.5 14.5 -11.5 26.5c0 15.333 1.16699 29.166 3.5 41.499s6.16602 26.166 11.499 41.499c3.33301 9.33301 7.66602 19.333 12.999 30s11.5 20.5 18.5 29.5
s14.667 16.333 23 22s17.5 8.5 27.5 8.5c10.667 0 22.667 -6 36 -18c22 -20 33 -38 33 -54z" />
    <glyph glyph-name="uni1864" unicode="&#x1864;" horiz-adv-x="800" 
d="M810 909l0.00195312 -181.998h-184c-8.66699 -55.333 -18.5 -109.333 -29.5 -162s-24.167 -105.334 -39.5 -158.001h-27l-24.5 83.5c-8.33301 29.667 -15.666 58.834 -21.999 87.501s-11.666 55.834 -15.999 81.501s-6.5 48.167 -6.5 67.5c0 12 1.33301 24.667 4 38
l8.5 44.5c3 16.333 5.83301 34.666 8.5 54.999s4 43.5 4 69.5c0 60.667 -9.83301 106.834 -29.5 138.501s-44.834 47.5 -75.501 47.5c-22.667 0 -43 -7.16699 -61 -21.5s-33.333 -34.333 -46 -60s-22.334 -56 -29.001 -91s-10 -73.167 -10 -114.5
c0 -42.667 5.66699 -79.167 17 -109.5s24 -58 38 -83s26.667 -48.833 38 -71.5s17 -47.334 17 -74.001c0 -58.667 -37.667 -88 -113 -88c-18 0 -34.5 1.33301 -49.5 4s-27.833 6.16699 -38.5 10.5s-18.834 9 -24.501 14s-8.16699 9.83301 -7.5 14.5c2 14.667 9 25.667 21 33
s24.667 15.666 38 24.999s25.5 22.166 36.5 38.499s16.5 40.5 16.5 72.5c0 14 -2.33301 28.667 -7 44s-11.167 29.5 -19.5 42.5s-18.833 23.667 -31.5 32s-27 12.5 -43 12.5c-6.66699 0 -13.334 -1.16699 -20.001 -3.5s-13.5 -5 -20.5 -8s-14 -5.66699 -21 -8
s-13.5 -3.5 -19.5 -3.5c-9.33301 11.333 -15.333 25 -18 41s-4 34 -4 54c0 19.333 2.83301 35 8.5 47s13.167 21.667 22.5 29s19.5 13.5 30.5 18.5l33 15.5c11 5.33301 21 11.833 30 19.5s15.833 18.167 20.5 31.5c34.667 96 71.5 169.5 110.5 220.5s81.5 76.5 127.5 76.5
c22.667 0 44.667 -6 66 -18s40.333 -30.333 57 -55s30 -56.167 40 -94.5s15 -83.833 15 -136.5v-67h229zM796.002 1144c0 -6.66699 -1.99902 -12.665 -5.99902 -17.998s-9.16699 -10.833 -15.5 -16.5s-13.5 -11.667 -21.5 -18s-16 -13.833 -24 -22.5
c-7.33301 -8 -13.666 -15.667 -18.999 -23l-14.5 -19.5c-4.33301 -5.66699 -8.5 -10.167 -12.5 -13.5s-8.33301 -5 -13 -5c-11.333 0 -20.833 2.83301 -28.5 8.5s-11.5 14.5 -11.5 26.5c0 15.333 1.16699 29.166 3.5 41.499s6.16602 26.166 11.499 41.499
c3.33301 9.33301 7.66602 19.333 12.999 30s11.5 20.5 18.5 29.5s14.667 16.333 23 22s17.5 8.5 27.5 8.5c10.667 0 22.667 -6 36 -18c22 -20 33 -38 33 -54z" />
    <glyph glyph-name="uni1865" unicode="&#x1865;" horiz-adv-x="872" 
d="M890 909l0.00195312 -181.998h-264c-8.66699 -55.333 -18.5 -109.333 -29.5 -162s-24.167 -105.334 -39.5 -158.001h-27l-24.5 83.5c-8.33301 29.667 -15.666 58.834 -21.999 87.501s-11.666 55.834 -15.999 81.501s-6.5 48.167 -6.5 67.5c0 12 1.33301 24.667 4 38
l8.5 44.5c3 16.333 5.83301 34.666 8.5 54.999s4 43.5 4 69.5c0 60.667 -9.83301 106.834 -29.5 138.501s-44.834 47.5 -75.501 47.5c-22.667 0 -43 -7.16699 -61 -21.5s-33.333 -34.333 -46 -60s-22.334 -56 -29.001 -91s-10 -73.167 -10 -114.5
c0 -42.667 5.66699 -79.167 17 -109.5s24 -58 38 -83s26.667 -48.833 38 -71.5s17 -47.334 17 -74.001c0 -58.667 -37.667 -88 -113 -88c-18 0 -34.5 1.33301 -49.5 4s-27.833 6.16699 -38.5 10.5s-18.834 9 -24.501 14s-8.16699 9.83301 -7.5 14.5c2 14.667 9 25.667 21 33
s24.667 15.666 38 24.999s25.5 22.166 36.5 38.499s16.5 40.5 16.5 72.5c0 14 -2.33301 28.667 -7 44s-11.167 29.5 -19.5 42.5s-18.833 23.667 -31.5 32s-27 12.5 -43 12.5c-6.66699 0 -13.334 -1.16699 -20.001 -3.5s-13.5 -5 -20.5 -8s-14 -5.66699 -21 -8
s-13.5 -3.5 -19.5 -3.5c-9.33301 11.333 -15.333 25 -18 41s-4 34 -4 54c0 19.333 2.83301 35 8.5 47s13.167 21.667 22.5 29s19.5 13.5 30.5 18.5l33 15.5c11 5.33301 21 11.833 30 19.5s15.833 18.167 20.5 31.5c34.667 96 71.5 169.5 110.5 220.5s81.5 76.5 127.5 76.5
c22.667 0 44.667 -6 66 -18s40.333 -30.333 57 -55s30 -56.167 40 -94.5s15 -83.833 15 -136.5v-67h309zM895.002 1126c0 -46 -12.833 -81.833 -38.5 -107.5s-61.5 -38.5 -107.5 -38.5c-44.667 0 -80 12.833 -106 38.5s-39 61.5 -39 107.5c0 39.333 12.667 71.333 38 96
s61 37 107 37c47.333 0 83.5 -12.333 108.5 -37s37.5 -56.667 37.5 -96zM844.002 1124c0 24.667 -8.33301 45.334 -25 62.001s-40 25 -70 25c-29.333 0 -52.333 -8.33301 -69 -25s-25 -37.334 -25 -62.001c0 -29.333 8.5 -52.5 25.5 -69.5s39.833 -25.5 68.5 -25.5
c30 0 53.333 8.5 70 25.5s25 40.167 25 69.5z" />
    <glyph glyph-name="uni1866" unicode="&#x1866;" horiz-adv-x="622" 
d="M327 727h-261.001c0 -36 0.666992 -69.333 2 -100s6 -57.167 14 -79.5s20.833 -39.833 38.5 -52.5s42.834 -19 75.501 -19s57.834 6.16699 75.501 18.5s30.667 29.5 39 51.5s13.166 48.333 14.499 79s2 64.667 2 102zM581.999 850
c0 -24 -2.66895 -42.334 -8.00195 -55.001s-10 -19 -14 -19c-9.33301 0 -16.166 5.16699 -20.499 15.5s-9.16602 30.833 -14.499 61.5c-4 26 -7.66699 54.333 -11 85s-8.5 59 -15.5 85s-17.167 47.833 -30.5 65.5s-32.666 26.5 -57.999 26.5c-16 0 -30.5 -4 -43.5 -12
s-24.333 -17.5 -34 -28.5s-18 -22 -25 -33s-12.833 -19.833 -17.5 -26.5c-4 8.66699 -8.66699 19.5 -14 32.5s-12.333 25.667 -21 38s-19.334 22.833 -32.001 31.5s-28.334 13 -47.001 13c-18 0 -33.667 -8.16699 -47 -24.5s-24.333 -36.166 -33 -59.499
s-15.167 -47.5 -19.5 -72.5s-6.5 -46.5 -6.5 -64.5h236c56.667 0 85 -29 85 -87v-186c0 -38 -3.16699 -75 -9.5 -111s-17 -68 -32 -96s-35 -50.5 -60 -67.5s-56.167 -25.5 -93.5 -25.5c-28.667 0 -53.167 6.33301 -73.5 19s-37.666 29.667 -51.999 51s-26 45.666 -35 72.999
s-16 55.333 -21 84s-8.33301 57.334 -10 86.001s-2.5 54.667 -2.5 78v182c0 40 3.33301 81.667 10 125s17.334 83.333 32.001 120s33.667 66.834 57 90.501s51.666 35.5 84.999 35.5c18.667 0 34.667 -4.33301 48 -13s24.5 -19.334 33.5 -32.001s16.333 -26 22 -40l14.5 -36
l16.5 31.5c6.33301 12.333 14.333 24 24 35s22 20.333 37 28s33.833 11.5 56.5 11.5c23.333 0 43 -6.5 59 -19.5s29.333 -30.333 40 -52s19 -46.5 25 -74.5s10.5 -57.5 13.5 -88.5s4.83301 -62 5.5 -93s1 -60.167 1 -87.5z" />
    <glyph glyph-name="uni1867" unicode="&#x1867;" horiz-adv-x="624" 
d="M635 909l-0.000976562 -181.996h-100l-21 -308l-28 -10c-16 43.333 -29.167 84 -39.5 122s-18.166 71.167 -23.499 99.5s-8.83301 51 -10.5 68s-2.5 26.5 -2.5 28.5v142c0 11.333 0.833008 26 2.5 44s3.5 36.833 5.5 56.5l6 59c2 19.667 3.33301 37.167 4 52.5
c0 3.33301 -0.666992 7.33301 -2 12s-2 8.66699 -2 12c-6.66699 -6 -13.167 -15.833 -19.5 -29.5s-12.166 -28.167 -17.499 -43.5l-15 -44.5l-11 -34.5c-23.333 -66.667 -49.5 -117.834 -78.5 -153.501s-61.5 -53.5 -97.5 -53.5c-22.667 0 -43 4.66699 -61 14
s-33.167 22.333 -45.5 39s-21.833 36.5 -28.5 59.5s-10 48.167 -10 75.5c0 11.333 1.5 21.333 4.5 30s9.83301 13 20.5 13c6 0 12.333 -3.83301 19 -11.5s14.5 -16.167 23.5 -25.5s19.667 -17.833 32 -25.5s27.5 -11.5 45.5 -11.5c35.333 0 64.166 13.833 86.499 41.5
s40.5 67.5 54.5 119.5c18.667 69.333 37.5 122.666 56.5 159.999s33.833 56 44.5 56c14 0 25.5 -4.16699 34.5 -12.5s16 -18.333 21 -30s8.5 -24.167 10.5 -37.5s3 -25 3 -35c0 -13.333 -0.5 -31 -1.5 -53s-2.16699 -45.333 -3.5 -70s-2.83301 -48.834 -4.5 -72.501
s-3.16699 -43.834 -4.5 -60.501h153zM404.999 399.004c0 -7.33301 -1.33008 -12.668 -3.99707 -16.001s-8.66699 -5 -18 -5c-16 0 -31.833 3.66699 -47.5 11s-31.334 17.166 -47.001 29.499s-31.5 26.833 -47.5 43.5l-49 53c-4 4 -12.333 8.33301 -25 13
s-25.834 10.334 -39.501 17.001s-25.834 14.834 -36.501 24.501s-16 21.5 -16 35.5c0 17.333 5.16699 32 15.5 44s25.833 18 46.5 18c17.333 0 36 -5.16699 56 -15.5s40 -23.833 60 -40.5s39.167 -35.167 57.5 -55.5s34.5 -40.5 48.5 -60.5s25.167 -38.5 33.5 -55.5
s12.5 -30.5 12.5 -40.5z" />
    <glyph glyph-name="uni1868" unicode="&#x1868;" horiz-adv-x="940" 
d="M955 909l-0.00195312 -182.002h-113c-8.66699 -55.333 -18.5 -109.333 -29.5 -162s-24.167 -105.334 -39.5 -158.001h-27c-16 52.667 -30.167 105.334 -42.5 158.001s-21.166 106.667 -26.499 162h-596c-14 12 -24.333 24 -31 36s-10 23 -10 33
c0 40 37.333 77.667 112 113h226c-6 9.33301 -15.5 20.833 -28.5 34.5s-28 27.334 -45 41.001s-35.167 26.334 -54.5 38.001s-37.666 20.167 -54.999 25.5c126 127.333 240.667 191 344 191c34.667 0 66.5 -7.16699 95.5 -21.5s53.833 -35.5 74.5 -63.5
s36.667 -62.5 48 -103.5s17 -88.167 17 -141.5h181zM341.998 1037c25.333 -15.333 47.5 -34.166 66.5 -56.499s34.167 -46.166 45.5 -71.499h225c0 29.333 -3.83301 56.666 -11.5 81.999s-19 47.166 -34 65.499s-33.5 32.666 -55.5 42.999s-47.333 15.5 -76 15.5
c-32 0 -62.333 -7.66699 -91 -23s-51.667 -33.666 -69 -54.999z" />
    <glyph glyph-name="uni1869" unicode="&#x1869;" horiz-adv-x="734" 
d="M750 909v-181.999h-136l-24.5 -162c-7.66699 -52.667 -19.167 -105.334 -34.5 -158.001h-27c-16 52 -30 104 -42 156s-21 105 -27 159c-12 -16 -25.167 -29.5 -39.5 -40.5s-28.5 -20 -42.5 -27s-27.333 -12 -40 -15s-23.667 -4.5 -33 -4.5
c-14 0 -27.833 1.16699 -41.5 3.5s-27.167 6.83301 -40.5 13.5s-26.333 16 -39 28s-25 27.667 -37 47l-41 62.5c-12 17.667 -23.5 32.667 -34.5 45s-22 22.833 -33 31.5s-23.5 16.667 -37.5 24v24c10 8 19.333 16.167 28 24.5s17.167 17.5 25.5 27.5
s16.833 21.167 25.5 33.5s17.667 26.166 27 41.499c18 29.333 35.333 53.333 52 72s33 33.5 49 44.5s32 18.5 48 22.5s32.333 6 49 6c26.667 0 52.5 -5.83301 77.5 -17.5s47.167 -29.167 66.5 -52.5s35 -52.166 47 -86.499s18.333 -74.5 19 -120.5h236zM438 905.001
c0 48.667 -11.6689 88.5 -35.002 119.5s-56.333 46.5 -99 46.5c-25.333 0 -47.666 -6.33301 -66.999 -19s-37.166 -27.834 -53.499 -45.501s-32.333 -36.167 -48 -55.5s-32.5 -35.666 -50.5 -48.999c16.667 -8 33.334 -20.5 50.001 -37.5l51 -51
c17.333 -17 35.666 -31.833 54.999 -44.5s40.333 -19 63 -19c38.667 0 70.667 12.833 96 38.5s38 64.5 38 116.5zM718.998 1128c0 -6.66699 -1.99902 -12.665 -5.99902 -17.998s-9.16699 -10.833 -15.5 -16.5s-13.5 -11.667 -21.5 -18s-16 -13.833 -24 -22.5
c-7.33301 -8 -13.666 -15.667 -18.999 -23l-14.5 -19.5c-4.33301 -5.66699 -8.5 -10.167 -12.5 -13.5s-8.33301 -5 -13 -5c-11.333 0 -20.833 2.83301 -28.5 8.5s-11.5 14.5 -11.5 26.5c0 15.333 1.16699 29.166 3.5 41.499s6.16602 26.166 11.499 41.499
c3.33301 9.33301 7.66602 19.333 12.999 30s11.5 20.5 18.5 29.5s14.667 16.333 23 22s17.5 8.5 27.5 8.5c10.667 0 22.667 -6 36 -18c22 -20 33 -38 33 -54z" />
    <glyph glyph-name="uni186A" unicode="&#x186a;" horiz-adv-x="513" 
d="M530 909l0.000976562 -182.002h-385l45.5 -47.5l58.5 -63.5c20.667 -23.333 41.167 -48 61.5 -74s38.833 -52.333 55.5 -79s30.167 -53.167 40.5 -79.5s15.5 -50.833 15.5 -73.5c0 -43.333 -9.83301 -76.666 -29.5 -99.999s-47.167 -35 -82.5 -35
c-8 0 -20.667 3.33301 -38 10s-34.833 14.834 -52.5 24.501s-33 19.834 -46 30.501s-19.5 20 -19.5 28c0 16 10.333 24 31 24c11.333 0 20.166 -1.33301 26.499 -4s14.5 -4 24.5 -4c13.333 0 23.166 5.83301 29.499 17.5s9.5 24.834 9.5 39.501
c0 21.333 -4.83301 45.166 -14.5 71.499s-22.167 53.333 -37.5 81s-32.666 54.667 -51.999 81s-39 50.166 -59 71.499s-39 39.333 -57 54s-33.667 23.667 -47 27h-8v182h530z" />
    <glyph glyph-name="uni186B" unicode="&#x186b;" horiz-adv-x="711" 
d="M730 909v-181.999h-419c0 -41.333 5.83301 -80.5 17.5 -117.5s26.667 -69.167 45 -96.5s39 -49 62 -65s45.5 -24 67.5 -24c19.333 0 35 3.66699 47 11s21.833 15.5 29.5 24.5s14 17.333 19 25s10.5 11.5 16.5 11.5c11.333 0 19.333 -5.5 24 -16.5s7 -26.5 7 -46.5
c0 -20.667 -3.66699 -40 -11 -58s-17.5 -33.833 -30.5 -47.5s-28.167 -24.334 -45.5 -32.001s-36 -11.5 -56 -11.5c-43.333 0 -81.166 13.667 -113.499 41s-59.5 65.333 -81.5 114s-39.333 106.667 -52 174s-20.667 141 -24 221c-3.33301 67.333 -12 126.333 -26 177
s-31.5 93 -52.5 127s-44.667 60 -71 78s-53.833 28 -82.5 30c55.333 49.333 105.666 74 150.999 74c19.333 0 38 -4.66699 56 -14s34 -22.5 48 -39.5s25.167 -37.5 33.5 -61.5s12.5 -50.667 12.5 -80c0 -27.333 -0.333008 -59.833 -1 -97.5s-1.66699 -77.167 -3 -118.5h433z
" />
    <glyph glyph-name="uni186C" unicode="&#x186c;" horiz-adv-x="513" 
d="M470 864c0 -20 -1.16602 -34.5 -3.49902 -43.5s-7.83301 -13.5 -16.5 -13.5c-7.33301 0 -13 4.16699 -17 12.5s-7.33301 17.833 -10 28.5l-19.5 88.5c-7 31.667 -15.833 61.167 -26.5 88.5s-24.334 50 -41.001 68s-37.667 27 -63 27c-29.333 0 -55 -6.66699 -77 -20
s-40.667 -32.166 -56 -56.499s-26.833 -53.5 -34.5 -87.5s-11.5 -71.333 -11.5 -112c0 -28 6.16699 -53.5 18.5 -76.5s27 -43.5 44 -61.5s34.5 -33.5 52.5 -46.5s32.333 -22.833 43 -29.5l-59 -250h-29c-4 22 -9 44.667 -15 68s-12.667 45.833 -20 67.5s-15 42 -23 61
s-16.333 35.5 -25 49.5c-2.66699 -16 -6.16699 -33 -10.5 -51s-9.83301 -34.5 -16.5 -49.5s-14.5 -27.333 -23.5 -37s-19.167 -13.834 -30.5 -12.501v433h27c4.66699 58.667 14.167 111 28.5 157s32.333 84.833 54 116.5s46.5 55.834 74.5 72.501s58 25 90 25
c38.667 0 70.667 -12.333 96 -37s45.333 -56.834 60 -96.501s25 -84.167 31 -133.5s9 -99 9 -149zM366.001 1528c0 -6.66699 -1.99902 -12.665 -5.99902 -17.998s-9.16699 -10.833 -15.5 -16.5s-13.5 -11.667 -21.5 -18s-16 -13.833 -24 -22.5
c-7.33301 -8 -13.666 -15.667 -18.999 -23l-14.5 -19.5c-4.33301 -5.66699 -8.5 -10.167 -12.5 -13.5s-8.33301 -5 -13 -5c-11.333 0 -20.833 2.83301 -28.5 8.5s-11.5 14.5 -11.5 26.5c0 15.333 1.16699 29.166 3.5 41.499s6.16602 26.166 11.499 41.499
c3.33301 9.33301 7.66602 19.333 12.999 30s11.5 20.5 18.5 29.5s14.667 16.333 23 22s17.5 8.5 27.5 8.5c10.667 0 22.667 -6 36 -18c22 -20 33 -38 33 -54z" />
    <glyph glyph-name="uni186D" unicode="&#x186d;" horiz-adv-x="499" 
d="M470 864c0 -20 -1.16602 -34.5 -3.49902 -43.5s-7.83301 -13.5 -16.5 -13.5c-7.33301 0 -13 4.16699 -17 12.5s-7.33301 17.833 -10 28.5l-19.5 88.5c-7 31.667 -15.833 61.167 -26.5 88.5s-24.334 50 -41.001 68s-37.667 27 -63 27c-29.333 0 -55 -6.66699 -77 -20
s-40.667 -32.166 -56 -56.499s-26.833 -53.5 -34.5 -87.5s-11.5 -71.333 -11.5 -112c0 -28 6.16699 -53.5 18.5 -76.5s27 -43.5 44 -61.5s34.5 -33.5 52.5 -46.5s32.333 -22.833 43 -29.5l-59 -250h-29c-4 22 -9 44.667 -15 68s-12.667 45.833 -20 67.5s-15 42 -23 61
s-16.333 35.5 -25 49.5c-2.66699 -16 -6.16699 -33 -10.5 -51s-9.83301 -34.5 -16.5 -49.5s-14.5 -27.333 -23.5 -37s-19.167 -13.834 -30.5 -12.501v433h27c4.66699 58.667 14.167 111 28.5 157s32.333 84.833 54 116.5s46.5 55.834 74.5 72.501s58 25 90 25
c38.667 0 70.667 -12.333 96 -37s45.333 -56.834 60 -96.501s25 -84.167 31 -133.5s9 -99 9 -149zM411.001 1526c0 -46 -12.833 -81.833 -38.5 -107.5s-61.5 -38.5 -107.5 -38.5c-44.667 0 -80 12.833 -106 38.5s-39 61.5 -39 107.5c0 39.333 12.667 71.333 38 96
s61 37 107 37c47.333 0 83.5 -12.333 108.5 -37s37.5 -56.667 37.5 -96zM360.001 1524c0 24.667 -8.33301 45.334 -25 62.001s-40 25 -70 25c-29.333 0 -52.333 -8.33301 -69 -25s-25 -37.334 -25 -62.001c0 -29.333 8.5 -52.5 25.5 -69.5s39.833 -25.5 68.5 -25.5
c30 0 53.333 8.5 70 25.5s25 40.167 25 69.5z" />
    <glyph glyph-name="uni186E" unicode="&#x186e;" horiz-adv-x="624" 
d="M635 909v-181.997h-100l-21 -308l-28 -10c-16 43.333 -29.167 84 -39.5 122s-18.166 71.167 -23.499 99.5s-8.83301 51 -10.5 68s-2.5 26.5 -2.5 28.5v142c0 11.333 0.833008 26 2.5 44s3.5 36.833 5.5 56.5l6 59c2 19.667 3.33301 37.167 4 52.5
c0 3.33301 -0.666992 7.33301 -2 12s-2 8.66699 -2 12c-6.66699 -6 -13.167 -15.833 -19.5 -29.5s-12.166 -28.167 -17.499 -43.5l-15 -44.5l-11 -34.5c-23.333 -66.667 -49.5 -117.834 -78.5 -153.501s-61.5 -53.5 -97.5 -53.5c-22.667 0 -43 4.66699 -61 14
s-33.167 22.333 -45.5 39s-21.833 36.5 -28.5 59.5s-10 48.167 -10 75.5c0 11.333 1.5 21.333 4.5 30s9.83301 13 20.5 13c6 0 12.333 -3.83301 19 -11.5s14.5 -16.167 23.5 -25.5s19.667 -17.833 32 -25.5s27.5 -11.5 45.5 -11.5c35.333 0 64.166 13.833 86.499 41.5
s40.5 67.5 54.5 119.5c14.667 54.667 29.667 99.5 45 134.5s28.666 58.833 39.999 71.5h-143c-10 0 -19.5 3.5 -28.5 10.5s-13.5 19.5 -13.5 37.5c0 14 4.5 25.5 13.5 34.5s18.5 13.5 28.5 13.5h122v158c0 33.333 15 50 45 50c28.667 0 43 -16.667 43 -50v-158h122
c10 0 18.167 -4.5 24.5 -13.5s9.5 -20.5 9.5 -34.5c0 -12 -3.16699 -23 -9.5 -33s-14.5 -15 -24.5 -15h-141c7.33301 -5.33301 13.5 -12.333 18.5 -21s8.83301 -18 11.5 -28s4.5 -19.833 5.5 -29.5s1.5 -18.5 1.5 -26.5c0 -13.333 -0.5 -31 -1.5 -53
s-2.16699 -45.333 -3.5 -70s-2.83301 -48.834 -4.5 -72.501s-3.16699 -43.834 -4.5 -60.501h153z" />
    </font>
</defs>
</svg>
